<?xml version="1.0" standalone="no"?>
<!DOCTYPE svg PUBLIC "-//W3C//DTD SVG 1.1//EN" "http://www.w3.org/Graphics/SVG/1.1/DTD/svg11.dtd" >
<svg>
<metadata>
Created by FontForge 20090914 at Sun Apr 24 00:29:28 2016
 By www-data
Copyright PJ Lloyd 1995
</metadata>
<defs>
<font id="BoltonBold" horiz-adv-x="588" >
  <font-face 
    font-family="BoltonBold"
    font-weight="400"
    font-stretch="normal"
    units-per-em="1000"
    panose-1="0 0 5 0 0 0 0 0 0 0"
    ascent="800"
    descent="-200"
    x-height="577"
    cap-height="836"
    bbox="-1 -209.001 1319 935"
    underline-thickness="10"
    underline-position="10"
    unicode-range="U+0020-U+00A3"
  />
<missing-glyph horiz-adv-x="502" 
d="M-1 0h500v500h-500v-500zM9 10v480h480v-480h-480z" />
    <glyph glyph-name=".notdef" horiz-adv-x="502" 
d="M-1 0h500v500h-500v-500zM9 10v480h480v-480h-480z" />
    <glyph glyph-name="space" unicode=" " horiz-adv-x="400" 
 />
    <glyph glyph-name="exclam" unicode="!" horiz-adv-x="228" 
d="M114 158c-26.667 0 -48.332 -7.66699 -64.999 -23c-19.333 -15.333 -29 -34 -29 -56c0 -21.333 9.66699 -40 29 -56c16 -14.667 37.667 -22 65 -22c25.333 0 47 7 65 21c19.333 16 29 35 29 57s-9.66699 40.667 -29 56c-18.667 15.333 -40.334 23 -65.001 23z
M202.002 539c0 10.667 0.333008 22.332 1 34.999v31c0 70.667 -6 124 -18 160c-20 55.333 -42 83.333 -66 84c-26 0 -48.667 -27.667 -68 -83c-14.667 -41.333 -22 -101.333 -22 -180c0 -2 0.333008 -9.66699 1 -23v-24l27 -390c34 16.667 53.333 25.334 58 26.001
c5.33301 0 26.333 -7.66699 63 -23c0 66 3 133 9 201c5.33301 57.333 10.333 119.333 15 186z" />
    <glyph glyph-name="quotedbl" unicode="&#x22;" horiz-adv-x="292" 
d="M20 836l0.000976562 -74c2 -37.333 7.5 -62.333 16.5 -75s23.5 -19 43.5 -19c19.333 0 33.166 6.33301 41.499 19s12.5 37.667 12.5 75v74h-114zM159.001 836l-0.000976562 -74c2 -37.333 7.33301 -62.333 16 -75s23 -19 43 -19c18.667 0 32.334 6.33301 41.001 19
s13 37.667 13 75v74h-113z" />
    <glyph glyph-name="numbersign" unicode="#" 
d="M220 45l29 154h65l-27 -154h60l28 154h193v52h-185l9 48h176v52h-167l29 163h-60l-29 -163h-67l30 163h-61l-28 -163h-195v-52h185l-8 -48h-177v-52h169l-28 -154h59zM257 251l8 48h67l-8 -48h-67z" />
    <glyph glyph-name="dollar" unicode="$" horiz-adv-x="664" 
d="M331 686l-11.998 -110.002c-6.66699 0.666992 -20 1.66699 -40 3v-1c-1.33301 0 -5.66602 0.333008 -12.999 1h-13c-48 0 -92.667 -7 -134 -21c-52.667 -20 -79 -58.333 -79 -115c0 -32.667 11 -59 33 -79c28 -23.333 58.333 -37.666 91 -42.999c18 -8 38 -14.333 60 -19
c4 -0.666992 10 -2 18 -4c18.667 -4 32 -6.66699 40 -8l-23 -194c-38 9.33301 -67 25.333 -87 48c-24.667 22.667 -42.334 46.334 -53.001 71.001c-2.66699 4 -6.33398 11.667 -11.001 23c-0.666992 1.33301 -1.33398 3.33301 -2.00098 6c-6.66699 20.667 -23 31 -49 31
c-24.667 0 -37 -12 -37 -36c0 -6 0.333008 -13.333 1 -22v-12v-43v-41c0 -26.667 7.33301 -42 22 -46c45.333 -34.667 113.666 -57.667 204.999 -69l-14 -109h53l14 105h44c67.333 0 133.666 18.333 198.999 55c66.667 38 100 88.333 100 151
c-4 77.333 -40.333 129 -109 155c-60.667 24 -122 41.667 -184 53l10 73c20.667 -5.33301 44.334 -14.666 71.001 -27.999c27.333 -13.333 48.333 -28.333 63 -45l5 -4c5.33301 -4.66699 10 -8.33398 14 -11.001c9.33301 -6 18.333 -9 27 -9c23.333 0 35 9.33301 35 28v5
c-0.666992 2 -1 3.33301 -1 4c-3.33301 9.33301 -9.66602 19 -18.999 29c-6.66699 13.333 -12 31.333 -16 54c-2.66699 12 -14.334 21.333 -35.001 28c-12.667 3.33301 -23.667 7 -33 11c-21.333 8 -55.666 14.667 -102.999 20l14 115h-52zM310.002 88.998l25 190.999
c28.667 -6 49.334 -11 62.001 -15c26.667 -12 46.667 -24.333 60 -37c12 -12.667 18.333 -29 19 -49c0 -27.333 -13.667 -49.666 -41 -66.999c-27.333 -33.333 -55 -50 -83 -50c0 8.66699 -0.333008 15 -1 19s-2.33398 6 -5.00098 6c-7.33301 0 -15.666 0.333008 -24.999 1
c-4.66699 0.666992 -8.33398 1 -11.001 1zM308.002 499.997l-9 -75.999c-7.33301 1.33301 -15.666 3 -24.999 5l-15 3c-18.667 5.33301 -36.334 12.666 -53.001 21.999c-13.333 6.66699 -20 13.667 -20 21c0 9.33301 6 15.333 18 18c22 6 44.333 9.33301 67 10
c10.667 0 23 -1 37 -3z" />
    <glyph glyph-name="percent" unicode="%" horiz-adv-x="680" 
d="M470 292c-50.667 0 -94 -14.333 -130 -43c-36 -28 -54 -63 -54 -105c0 -41.333 18 -76 54 -104c34.667 -28.667 78 -43 130 -43c50.667 0 93.667 14.333 129 43c37.333 30 56 64.667 56 104c0 40 -18.667 75 -56 105c-36.667 28.667 -79.667 43 -129 43zM470 246
c22.667 0 38 -8.33203 46 -24.999c8.66699 -21.333 14 -47 16 -77c0 -26.667 -6.33301 -51.667 -19 -75c-11.333 -16.667 -25.333 -25 -42 -25c-18 1.33301 -32.667 10.666 -44 27.999c-13.333 19.333 -20 43.333 -20 72s5 54 15 76c7.33301 17.333 23.333 26 48 26z
M251 581.001l-0.00195312 -2.99805c-16.667 3.33301 -32 5 -46 5c-50.667 0 -94.334 -14.333 -131.001 -43c-36 -30 -54 -65 -54 -105c0 -40.667 18 -76.334 54 -107.001c36.667 -27.333 80.334 -41 131.001 -41c49.333 0 92.333 13.667 129 41c37.333 30 56 65.667 56 107
c0 30 -3 54.333 -9 73c15.333 -0.666992 36 -1 62 -1c30 0 63.333 3 100 9l-519 -515h59l548 540l-3 -2c2.66699 0 4.33398 0.333008 5.00098 1s2.33398 3 5.00098 7v2l22 26h-22v19c-1.33301 -3.33301 -4.66602 -7 -9.99902 -11
c-4.66699 -2.66699 -8.33398 -5.33398 -11.001 -8.00098h-16l-5 -7c-56 -16 -107 -24 -153 -24c-58.667 0 -122.667 12.333 -192 37zM203.998 537.003c22.667 0 38 -9.00098 46 -27.001c9.33301 -22 15 -47.333 17 -76c0 -34 -6.33301 -59 -19 -75
c-10.667 -16.667 -25 -25 -43 -25c-16 0 -30.333 4.66699 -43 14c-12.667 22.667 -19 51.334 -19 86.001c0 30 4.33301 55 13 75c9.33301 18.667 25.333 28 48 28z" />
    <glyph glyph-name="ampersand" unicode="&#x26;" horiz-adv-x="848" 
d="M363 842c-6 1.33301 -15.668 2.00488 -29.001 2.00488c-19.333 0 -37 -2.33301 -53 -7c-84 -21.333 -133 -56 -147 -104c-3.33301 -8 -5 -21.333 -5 -40c0 -38.667 15 -83.667 45 -135l2 -3c4 -6 6 -10.333 6 -13c0 -3.33301 -2.33301 -6.33301 -7 -9
c-61.333 -34.667 -105.333 -82.334 -132 -143.001c-15.333 -34.667 -23 -67.334 -23 -98.001c0 -30 5.66699 -58.333 17 -85c30.667 -77.333 93.667 -134 189 -170c56 -21.333 111.333 -32 166 -32c36.667 0 77 5.33301 121 16c1.33301 0 2.66602 0.333008 3.99902 1h3
c3.33301 0 6 -1 8 -3c7.33301 -11.333 21 -17 41 -17c45.333 3.33301 82 5 110 5c33.333 0 74 -1.66699 122 -5c10 0 17 0.833008 21 2.5s6 6.16699 6 13.5c0 5.33301 -2.33301 10.666 -7 15.999c-18.667 22.667 -34.667 34 -48 34c-7.33301 0 -26.333 12.667 -57 38
c2 -0.666992 3 -1.33398 3 -2.00098c0 1.33301 1.66699 2.66602 5 3.99902c18.667 12 33.334 22.667 44.001 32c13.333 11.333 20 23 20 35c-5.33301 11.333 -9 29.666 -11 54.999c-0.666992 12.667 -1 31 -1 55c0 17.333 -8 26 -24 26c-1.33301 0 -3 -0.333008 -5 -1
c-3.33301 -0.666992 -5.66602 -1 -6.99902 -1h-4c-18 -5.33301 -27 -17.333 -27 -36v-8c-8 -27.333 -25.333 -56 -52 -86c0 -3.33301 -0.333008 -5.66602 -1 -6.99902l1 -2l-4 4c-3.33301 2.66699 -6 5.33398 -8 8.00098c-4 4.66699 -10 12.334 -18 23.001l-61 74
c-38.667 46 -75.667 92.667 -111 140l-44 59c-12.667 14.667 -25.667 32 -39 52l-1 1c-0.666992 0 -1.33398 0.333008 -2.00098 1c0.666992 0.666992 1 1.66699 1 3h5c12 2 30.667 3 56 3c30 0 55.333 -2 76 -6c43.333 -8 81.666 -21.667 114.999 -41
c11.333 -8.66699 23.333 -13 36 -13l9 2c12.667 6 19 13 19 21c0 4.66699 -4.66699 12.667 -14 24c-24.667 21.333 -42.667 39.666 -54 54.999c-8 9.33301 -15 15.666 -21 18.999c-6 5.33301 -17.667 8.33301 -35 9c-12.667 2.66699 -25.167 4.33398 -37.5 5.00098
s-27.5 1 -45.5 1c-52 0 -98.333 -5.66699 -139 -17c-2 -0.666992 -4.66699 -1 -8 -1c-8 0 -14.333 3.33301 -19 10c-0.666992 1.33301 -2.66699 4 -6 8l-11 16c-3.33301 4 -7.33301 9.66699 -12 17c-2 2 -3 3.33301 -3 4l-19 35c-4 10 -6 17 -6 21l1 2v1
c4.66699 6.66699 11.334 11.334 20.001 14.001c2 1.33301 5 2 9 2c6.66699 0 16 -3 28 -9c18.667 -11.333 29.334 -20 32.001 -26c2.66699 -2.66699 4 -5 4 -7v-1l-1 -2c-2.66699 -5.33301 -4 -13 -4 -23c0 -10.667 1.66699 -18.334 5 -23.001
c4 -8.66699 7 -13.334 9 -14.001c6.66699 -6.66699 14.667 -10 24 -10c7.33301 0 13.333 1.33301 18 4c15.333 6.66699 24.666 16.667 27.999 30c2 14 8.66699 25.333 20 34c16.667 11.333 30 25 40 41c6.66699 7.33301 10 16 10 26c0 10.667 -3.33301 19.667 -10 27
c-1.33301 2.66699 -2.33301 4.33398 -3 5.00098c-13.333 21.333 -32.666 37.666 -57.999 48.999c-22 10 -43.667 15 -65 15zM244.999 465.005c1.33301 -1.33301 5.33105 -6.33301 11.998 -15s10.667 -14 12 -16l7 -10c8.66699 -10.667 14.667 -18.667 18 -24
c66.667 -82.667 113.334 -143 140.001 -181l8 -14l60 -105c2 -1.33301 3 -3.33301 3 -6c0 -0.666992 -3.33301 -1 -10 -1h-11c-6.66699 -0.666992 -10.667 -1 -12 -1c-47.333 0 -92.333 13 -135 39c-51.333 31.333 -87.666 73.333 -108.999 126
c-16.667 39.333 -25 77.333 -25 114c0 36 9.33301 65.667 28 89c4 6 7.66699 10 11 12c1.33301 0 2.33301 -2.33301 3 -7z" />
    <glyph glyph-name="quotesingle" unicode="'" horiz-adv-x="154" 
d="M20 836l-0.000976562 -74c0 -37.333 4.5 -62.333 13.5 -75s23.5 -19 43.5 -19c20.667 0 35.334 6.33301 44.001 19s13 37.667 13 75v74h-114z" />
    <glyph glyph-name="parenleft" unicode="(" horiz-adv-x="224" 
d="M204 -62c-34 51.333 -61.666 125.666 -82.999 222.999c-16 82 -24 172 -24 270c0 98.667 8 188.334 24 269.001c21.333 95.333 49 170.333 83 225c-56.667 -22.667 -104.334 -84.334 -143.001 -185.001c-27.333 -89.333 -41 -192.333 -41 -309
c0 -117.333 13.667 -220.666 41 -309.999c39.333 -101.333 87 -162.333 143 -183z" />
    <glyph glyph-name="parenright" unicode=")" horiz-adv-x="221" 
d="M20 -53c56 22.667 102.668 84 140.001 184c27.333 82.667 41 186 41 310c0 122 -13.667 225 -41 309c-36.667 99.333 -83.334 161 -140.001 185c34 -59.333 61 -134.333 81 -225c16 -82 24 -171.667 24 -269c0 -98 -8 -187.667 -24 -269
c-20 -91.333 -47 -166.333 -81 -225z" />
    <glyph glyph-name="asterisk" unicode="*" horiz-adv-x="233" 
d="M91 778c-34 20 -54 30 -60 30l-6 -5l-5 -6c0 -4.66699 6 -15.667 18 -33c11.333 -12 23.666 -23.667 36.999 -35c-17.333 -15.333 -29.666 -27 -36.999 -35c-12 -18 -18 -29.333 -18 -34l9 -9c-4 0 -6 -0.333008 -6 -1c8 0 30.667 9.33301 68 28c2 -36 10.333 -54 25 -54
c10 0 18.333 18 25 54c30.667 -18.667 49.667 -28 57 -28l7 3l8 6c0 6 -6.66699 17.667 -20 35c-6.66699 8 -18.667 19.667 -36 35c16.667 14.667 28.667 26 36 34c13.333 16 20 27.667 20 35l-6 5l-6 5c-7.33301 0 -27.333 -9.66699 -60 -29c-6.66699 36.667 -15 55 -25 55
c-14.667 0 -23 -18.667 -25 -56z" />
    <glyph glyph-name="plus" unicode="+" 
d="M266 248v-193h59v193h243v52h-243v193h-59v-193h-246v-52h246z" />
    <glyph glyph-name="comma" unicode="," horiz-adv-x="223" 
d="M163 -66c12.667 12.667 23 32.002 31 58.002c6 15.333 9 33.333 9 54v11c-0.666992 5.33301 -1 8.66602 -1 9.99902c-6.66699 54 -37 81 -91 81c-24 0 -45.333 -7.66699 -64 -23c-18 -16 -27 -35.333 -27 -58s9.33301 -41.667 28 -57c16 -16 37 -24 63 -24
c0.666992 0 3 -2 7 -6v-2c0 -4.66699 -3.66699 -14.334 -11 -29.001c-6.66699 -13.333 -10 -24 -10 -32c0 -6 1.66699 -10 5 -12s6 -3 8 -3c16 0 33.667 10.667 53 32z" />
    <glyph glyph-name="hyphen" unicode="-" 
d="M20 300v-52h548v52h-548z" />
    <glyph glyph-name="period" unicode="." horiz-adv-x="228" 
d="M114 158c-26.667 0 -48.332 -7.66699 -64.999 -23c-19.333 -15.333 -29 -34 -29 -56c0 -21.333 9.66699 -40 29 -56c16 -14.667 37.667 -22 65 -22c25.333 0 47 7 65 21c19.333 16 29 35 29 57s-9.66699 40.667 -29 56c-18.667 15.333 -40.334 23 -65.001 23z" />
    <glyph glyph-name="slash" unicode="/" horiz-adv-x="476" 
d="M389 805l-369 -783h67l369 783h-67z" />
    <glyph glyph-name="zero" unicode="0" horiz-adv-x="859" 
d="M429 840c-94 0 -185.334 -41.3311 -274.001 -123.998c-90 -82 -135 -180.667 -135 -296s43.333 -214.333 130 -297c86 -81.333 179 -122 279 -122s193 37.333 279 112c86.667 75.333 130.334 177.666 131.001 306.999c0 129.333 -44.667 231.666 -134 306.999
c-91.333 75.333 -183.333 113 -276 113zM423.999 754.002c67.333 0 119.335 -30 156.002 -90c32 -54.667 48 -122 48 -202c0 -4.66699 -0.333008 -11.667 -1 -21c-0.666992 -10 -1 -17.667 -1 -23c-6.66699 -101.333 -28.334 -182.666 -65.001 -243.999
c-34.667 -57.333 -80.334 -88 -137.001 -92c-59.333 0 -108 31.333 -146 94c-36.667 60 -55 129.667 -55 209c0 4 0.333008 9.66699 1 17s1 12.666 1 15.999c5.33301 95.333 23 175.666 53 240.999c31.333 62.667 80 94.334 146 95.001z" />
    <glyph glyph-name="one" unicode="1" horiz-adv-x="483" 
d="M194 569c1.33301 0.666992 2.99707 1.00293 4.99707 1.00293c4.66699 0 8 -0.333008 10 -1c4 -0.666992 6 -2 6 -4v-79v-79c0 -14.667 0.333008 -30 1 -46v-38c0 -66 -2.66699 -117 -8 -153c-4.66699 -42 -12.334 -71.333 -23.001 -88
c-6.66699 -12 -13.667 -18.333 -21 -19c-16 0 -28.667 -13.667 -38 -41c0 -0.666992 -0.333008 -1.66699 -1 -3s-1 -2.66602 -1 -3.99902c0 -13.333 11.667 -20 35 -20c10 0.666992 16.667 1.33398 20 2.00098c22.667 2.66699 39 4.33398 49 5.00098
c10.667 0 24.334 0.333008 41.001 1h30c27.333 0 49 -0.333008 65 -1c13.333 0 31.333 -1.33301 54 -4c5.33301 -0.666992 9 -1 11 -1c22.667 0 34 8.33301 34 25c0 10.667 -3 19.167 -9 25.5s-13.667 9.5 -23 9.5c0.666992 -0.666992 1.33398 -1 2.00098 -1
c-2.66699 0 -5.66699 -0.333008 -9 -1c-3.33301 0 -6.66602 3.66699 -9.99902 11c-11.333 13.333 -20.333 40.666 -27 81.999c-2.66699 23.333 -4.83398 53.666 -6.50098 90.999s-2.5 85.666 -2.5 144.999v83c0 7.33301 0.333008 26.666 1 57.999
c0 21.333 0.333008 40.666 1 57.999c0 26.667 0.666992 64 2 112c0 13.333 0.333008 30.666 1 51.999v21c6 12 9 22.333 9 31c0 20.667 -10.333 32 -31 34h-4c-2 0.666992 -3.66699 1 -5 1c-9.33301 0 -19.666 -2 -30.999 -6c-8 -4.66699 -15 -11.667 -21 -21
c-10 -14.667 -23 -32 -39 -52c-3.33301 -4 -6.33301 -8 -9 -12c-15.333 -18.667 -32.666 -37.334 -51.999 -56.001c-18 -17.333 -43.667 -34 -77 -50c-29.333 -14.667 -55.666 -30 -78.999 -46c-6 -3.33301 -11.667 -9.66602 -17 -18.999c-4.66699 -4 -7 -9.33301 -7 -16
c0 -9.33301 9.33301 -19.666 28 -30.999c4.66699 -3.33301 13.667 -5 27 -5l7 1h8c8 1.33301 15 3.66602 21 6.99902l6 3l3 2c4 2 7 3.66699 9 5c10.667 6 19 10.333 25 13c9.33301 3.33301 22.666 9.33301 39.999 18z" />
    <glyph glyph-name="two" unicode="2" horiz-adv-x="771" 
d="M696 247c-31.333 0 -53.335 -11.333 -66.002 -34c-32 -40.667 -80.667 -64.667 -146 -72c-64.667 -5.33301 -146.334 -8.66602 -245.001 -9.99902c-4.66699 0 -8.66699 1 -12 3c5.33301 0 8 -3 8 -9c0 1.33301 1 3 3 5c34.667 36.667 80.334 68.667 137.001 96
c40 19.333 96.667 49 170 89c59.333 32 107.333 66 144 102c41.333 36.667 62 84 62 142c0 40 -11 83 -33 129h-2c-24.667 43.333 -64.667 78.666 -120 105.999c-59.333 30.667 -127.666 46 -204.999 46c-99.333 0 -185.666 -21.333 -258.999 -64
c-74.667 -44.667 -112 -101 -112 -169c3.33301 -82 45.666 -143.667 126.999 -185c3.33301 -1.33301 5.66602 -2.33301 6.99902 -3c6 -2.66699 10 -4.33398 12 -5.00098s5 -2 9 -4c20 -7.33301 44 -11 72 -11c84 0 139 21.667 165 65
c-0.666992 -0.666992 -1.33398 -1 -2.00098 -1h1c0.666992 1.33301 1.33398 3 2.00098 5c2.66699 6.66699 4 11.334 4 14.001c0 27.333 -15 41 -45 41c-10 0 -19.333 -3.66699 -28 -11c-23.333 -16 -52.666 -24 -87.999 -24c-14 0 -27.333 3.33301 -40 10
c-14.667 8.66699 -26 17.667 -34 27h-1c-12 18 -18 40.333 -18 67c0 32.667 17.333 63 52 91c36 28 76.667 42 122 42c28 0 49 -1 63 -3c14.667 -3.33301 33 -11.666 55 -24.999c24.667 -14 42.334 -29.667 53.001 -47c19.333 -28.667 29 -61 29 -97
c-4 -26.667 -12.667 -50 -26 -70c-9.33301 -17.333 -24.666 -39.333 -45.999 -66c-11.333 -10 -29 -24.333 -53 -43c-13.333 -10 -33.333 -23 -60 -39c-10.667 -4.66699 -24.667 -11.667 -42 -21l-1 -1c-72.667 -40.667 -126.667 -80 -162 -118
c-40.667 -44 -75.334 -93 -104.001 -147c-3.33301 -2.66699 -5 -7.66699 -5 -15c0 -6 2.66699 -12.333 8 -19c6.66699 -10 15.667 -15 27 -15c82.667 5.33301 161.667 8.33301 237 9c52.667 0 99.667 -0.5 141 -1.5s85.333 -2.5 132 -4.5c26 0 43 8.66699 51 26
c9.33301 16 15.666 30 18.999 42c0.666992 2 2.66699 7.33301 6 16c4 9.33301 7 16.666 9 21.999c6.66699 13.333 15.334 26.333 26.001 39c12.667 12.667 23 27 31 43c4.66699 4 7 10.667 7 20c0 8 -1.66699 14 -5 18c-4.66699 12.667 -15 19 -31 19z" />
    <glyph glyph-name="three" unicode="3" horiz-adv-x="827" 
d="M738 838c-82.667 -4 -166.335 -5.99609 -251.002 -5.99609c-48.667 0 -93 0.5 -133 1.5s-79.667 2.83301 -119 5.5c-12 0 -21.667 -4 -29 -12c-7.33301 -7.33301 -12 -13.666 -14 -18.999c-28 -40.667 -57.333 -75.334 -88 -104.001
c-9.33301 -7.33301 -15.666 -19.666 -18.999 -36.999c0 -20.667 9.66699 -31 29 -31c30 0 56 13 78 39c18.667 20 61.667 32.333 129 37c26.667 2.66699 63 4 109 4c26.667 0 52.334 -1 77.001 -3c2.66699 -0.666992 5.33398 -1 8.00098 -1
c3.33301 0 5.66602 -0.333008 6.99902 -1l-5 4c-2 -0.666992 -4.66699 -1.33398 -8 -2.00098c-35.333 -32 -67 -59 -95 -81c-44.667 -34 -79.667 -59.667 -105 -77c-15.333 -12 -23 -25.667 -23 -41c0 -18 8.66699 -27 26 -27c20.667 0 36.667 2.66699 48 8
c12.667 4.66699 25.667 7 39 7c62 0 114.333 -20.333 157 -61c33.333 -32 50 -68.667 50 -110c0 -10 -1 -20.667 -3 -32c-2 -52.667 -24.667 -100.334 -68 -143.001c-42.667 -42.667 -98 -64 -166 -64c-50 0 -92 14 -126 42c-33.333 27.333 -50 57.666 -50 90.999v11
c-0.666992 5.33301 -1 8.66602 -1 9.99902c0 20.667 5 36.334 15 47.001c6.66699 9.33301 20 18 40 26c28.667 11.333 43 25 43 41c0 4 -0.333008 7.66699 -1 11c0 8 -4 14.333 -12 19c-6 3.33301 -13.167 5.66602 -21.5 6.99902s-20.166 2 -35.499 2
c-24 -0.666992 -44 -4.66699 -60 -12c-93.333 -30.667 -140 -85 -140 -163c0 -56 33.333 -107.667 100 -155c64.667 -46.667 145.667 -70 243 -70c50 0 99.667 8.66699 149 26c46.667 16 93.667 39.333 141 70c44 30 79.667 62.667 107 98c29.333 39.333 45 79 47 119
c0 40.667 -4.83301 76.667 -14.5 108s-24.167 60.666 -43.5 87.999c-40 56 -101 93 -183 111h-7c1.33301 2.66699 2.66602 4.66699 3.99902 6c36 32 64.333 56 85 72c36.667 29.333 68 53.333 94 72c15.333 14 23.333 27 24 39c0 20 -9.33301 30 -28 30z" />
    <glyph glyph-name="four" unicode="4" horiz-adv-x="792" 
d="M51 239c-16 -12.667 -26.334 -28.6631 -31.001 -47.9961c0 -23.333 14.667 -37 44 -41h413c8.66699 0 15.667 -0.333008 21 -1c-0.666992 0 -1 -4 -1 -12c-1.33301 -31.333 -3.66602 -51 -6.99902 -59c-3.33301 -6 -7 -10 -11 -12
c-2 -0.666992 -3.66699 -1.33398 -5 -2.00098c-8 -4 -14.667 -6.66699 -20 -8c-11.333 -4.66699 -25.333 -19.334 -42 -44.001c0 -8 3.33301 -15.333 10 -22c8.66699 -5.33301 16 -8 22 -8c19.333 2 42.333 4 69 6h13c25.333 1.33301 43 2 53 2c18.667 0 39 -1 61 -3
c10 -0.666992 23.667 -2.33398 41 -5.00098c7.33301 -0.666992 14 -1.33398 20 -2.00098c22.667 0 34 9 34 27c-2 18.667 -7.33301 30 -16 34l-6 4c-4 2.66699 -7.33301 4.66699 -10 6c-5.33301 2 -11 5.33301 -17 10c-6.66699 16 -12 40.667 -16 74
c0 3.33301 1 6.33301 3 9c3.33301 4 8.66602 6 15.999 6h36c31.333 0 47 13 47 39v31c0 26 -15.667 39 -47 39h-43c-13.333 0 -20.333 -1.33301 -21 -4c-1.33301 12 -2 21.667 -2 29c-0.666992 11.333 -1 30.666 -1 57.999c0 28.667 0.333008 51.334 1 68.001
c1.33301 42 2.66602 106.333 3.99902 193v3c0.666992 31.333 1.33398 66.333 2.00098 105s1.33398 73.334 2.00098 104.001c-2 0 -4 1.33301 -6 4c-2.66699 17.333 -15 27 -37 29c-32 -0.666992 -56 -14.334 -72 -41.001c-78 -110 -157.667 -211.667 -239 -305z
M486.999 579.004c0.666992 1.33301 3.33203 4 7.99902 8l8 8h-2c-3.33301 0 -5 -4.33301 -5 -13c-0.666992 -19.333 -1 -48.666 -1 -87.999v-89c0.666992 -10.667 1 -22.667 1 -36c0.666992 -18.667 1 -30.334 1 -35.001c0.666992 -14.667 1 -34.667 1 -60
c0 -9.33301 -2 -14 -6 -14c-8 -0.666992 -15.333 -1 -22 -1l-260 -5c-1.33301 0 -3 -0.333008 -5 -1h-4c0.666992 0 1 -2 1 -6c0 3.33301 1 6 3 8c40.667 56 87.334 115 140.001 177c54 52 101.333 101 142 147z" />
    <glyph glyph-name="five" unicode="5" horiz-adv-x="786" 
d="M149 831l9.00293 0.000976562c-2 1.33301 -5 2 -9 2l-5 1c-8 0 -15.667 -3 -23 -9c-6 -7.33301 -9 -14.666 -9 -21.999c2.66699 -34.667 5 -60.667 7 -78c3.33301 -30 5 -56 5 -78c0 -24 -1.66699 -50.333 -5 -79c-1.33301 -12 -3.33301 -33.667 -6 -65l-1 -10
c-0.666992 -8.66699 -1 -22 -1 -40c0 -26 15.333 -39 46 -39c8.66699 0 21 5 37 15c13.333 9.33301 34.666 21.333 63.999 36c26.667 10 53 15 79 15c12.667 0 26 -1 40 -3c57.333 -7.33301 104.666 -28 141.999 -62c36.667 -34.667 56 -81 58 -139
c0 -60 -18.667 -106.667 -56 -140c-38.667 -34.667 -86.334 -55.667 -143.001 -63h-30c-46.667 0 -87 12.333 -121 37c-31.333 23.333 -47 52.333 -47 87c0 54 30 87 90 99c22.667 2 34 13.667 34 35c0 23.333 -13.333 35 -40 35c-4.66699 0 -9.66699 0.333008 -15 1h-13
c-54.667 0 -102.334 -12 -143.001 -36c-47.333 -28.667 -71.666 -75.334 -72.999 -140.001c0 -74.667 35.333 -128 106 -160c68.667 -31.333 151.334 -47 248.001 -47c105.333 0 197.666 31.333 276.999 94c76.667 60.667 115 130 115 208v9c-0.666992 4 -1 6.33301 -1 7
c0 98 -37.333 175.333 -112 232c-75.333 58 -165.666 87.333 -270.999 88c-54 -2 -104 -10 -150 -24h-11c0.666992 0 1 -1.33301 1 -4c0.666992 4 1 12.333 1 25v24v17v22c-1.33301 4 -2 7.66699 -2 11c0 -2 3 -3 9 -3c30 2 74.667 3 134 3
c52.667 0 110.667 -1.66699 174 -5c5.33301 -1.33301 9.33301 -2 12 -2h1c12 0 22 0.333008 30 1c16 0.666992 29.333 10 40 28c13.333 22 35 47 65 75c9.33301 8 14 16 14 24c0 5.33301 -2.33301 10.666 -7 15.999c-8.66699 8.66699 -22.334 13 -41.001 13
c-7.33301 -2 -17 -6.33301 -29 -13c-3.33301 -2.66699 -10 -5.33398 -20 -8.00098c-40 -4 -83.667 -6 -131 -6c-8 0 -21 0.333008 -39 1c-18.667 0.666992 -33 1 -43 1c-58.667 2.66699 -139 7.33398 -241 14.001v-1z" />
    <glyph glyph-name="six" unicode="6" horiz-adv-x="817" 
d="M554 835c-60 0 -124 -16 -192 -48c-63.333 -29.333 -121.333 -68 -174 -116c-50.667 -45.333 -92.334 -95.666 -125.001 -150.999c-14.667 -26 -25.5 -51.5 -32.5 -76.5s-10.5 -51.5 -10.5 -79.5c0 -126.667 42 -221 126 -283c89.333 -63.333 197 -95 323 -95v1
c-6.66699 0 -11.667 -0.333008 -15 -1h8c76.667 0.666992 151.667 30 225 88c73.333 57.333 110 127 110 209c0 49.333 -9.33301 91.666 -28 126.999s-46.667 65.666 -84 90.999c-72 49.333 -160.333 74 -265 74c-19.333 0 -31.333 -4 -36 -12
c-56 -59.333 -113 -108.333 -171 -147c-2 -2 -4.66699 -3 -8 -3c2 -0.666992 3 -2.66699 3 -6c3.33301 54.667 18.333 101.334 45 140.001c28.667 42 61.334 77 98.001 105c34 29.333 71.333 53.333 112 72c28 14 59 27.667 93 41c22 0 38 6.66699 48 20
c2.66699 6.66699 4 11.667 4 15c0 23.333 -18 35 -54 35zM430 76c-55.333 0 -100.998 22.999 -136.998 68.999c-37.333 43.333 -56 79 -56 107c0 44.667 18 84.334 54 119.001c39.333 38 85.666 57 138.999 57s99.666 -17.667 138.999 -53c38 -34.667 57 -75.667 57 -123
c0 -46.667 -19 -88 -57 -124c-40 -34.667 -86.333 -52 -139 -52z" />
    <glyph glyph-name="seven" unicode="7" horiz-adv-x="743" 
d="M666 837c-26 -1.33301 -64.668 -1.99805 -116.001 -1.99805c-12.667 0 -32 0.333008 -58 1c-26.667 0.666992 -47 1 -61 1c-78.667 3.33301 -156.667 6.33301 -234 9h-3h-3c-14 0 -29 -4 -45 -12c-17.333 -8 -28.666 -18.667 -33.999 -32
c-8.66699 -24.667 -19.667 -47 -33 -67c-20 -30.667 -36 -53.334 -48 -68.001c-4.66699 -3.33301 -7.66699 -7 -9 -11s-2 -8.66699 -2 -14c0 -7.33301 2 -13 6 -17c8 -10 19.667 -15 35 -15c34.667 0 60.667 13.667 78 41c22 30.667 75.333 48.334 160 53.001
c25.333 2 61.666 3 108.999 3c39.333 0 79 -1.66699 119 -5c8 0 12 -0.666992 12 -2c0 -0.666992 -0.666992 -1 -2 -1l-212 -340c-74 -106 -133.333 -213.667 -178 -323v-3c-0.666992 -2 -1 -3.33301 -1 -4c0 -6 1.66699 -12 5 -18c3.33301 -8 13 -12 29 -12
c24.667 3.33301 47.334 5 68.001 5c20 0 42.667 -1.66699 68 -5c2 0 4.33301 -0.333008 7 -1h3c22 0 36 11 42 33c33.333 138 81.333 270 144 396c68 133.333 136 255.666 204 366.999c4.66699 5.33301 7 11.666 7 18.999c0 16.667 -11.333 25 -34 25
c-11.333 0 -19 -0.333008 -23 -1z" />
    <glyph glyph-name="eight" unicode="8" horiz-adv-x="789" 
d="M387 844c-79.333 0 -148.666 -18.334 -207.999 -55.001c-58 -38.667 -87 -84.334 -87 -137.001c0 -38 8.66699 -68 26 -90c14.667 -27.333 31.667 -49 51 -65c18 -12.667 32.333 -20.334 43 -23.001v5c0 1.33301 -0.333008 2.33301 -1 3
c-45.333 -26 -88.333 -58.333 -129 -97c-41.333 -40 -62 -84.333 -62 -133c0 -79.333 36.333 -141.666 109 -186.999c71.333 -44 157 -66 257 -66s188.667 25.667 266 77c78 54 117 115.333 117 184c0 52.667 -18.333 102.334 -55 149.001
c-38.667 45.333 -88 79.333 -148 102c-11.333 0.666992 -17 1.66699 -17 3c0 -5.33301 -2.33301 -8 -7 -8l12 7c8.66699 5.33301 15 9 19 11c22.667 14.667 46.667 34.334 72 59.001c22 24 33 50 33 78c0 50 -28.333 93.333 -85 130c-56.667 35.333 -125.334 53 -206.001 53
zM389 73.999c-28 0 -52.499 3.83301 -73.499 11.5s-41.167 19.5 -60.5 35.5c-37.333 33.333 -58 72 -62 116v10c-0.666992 4.66699 -1 7.66699 -1 9c0 40 12 78.333 36 115c25.333 44 56.666 66 93.999 66c6 0 23.667 -4.33301 53 -13c30.667 -10 62.334 -24 95.001 -42
c30.667 -16.667 59.667 -38.667 87 -66c19.333 -20 29 -46.333 29 -79c-6.66699 -62 -28.334 -103.667 -65.001 -125c-36 -22 -80 -34.667 -132 -38zM386.001 769.999c28.667 -0.666992 60.001 -11.002 94.001 -31.002c31.333 -17.333 47 -39.666 47 -66.999
s-7 -52.666 -21 -75.999c-14 -20.667 -33 -32.667 -57 -36c-32.667 0 -74.334 12.333 -125.001 37c-49.333 24 -74 49 -74 75c0 28 13 51 39 69c26.667 19.333 59 29 97 29z" />
    <glyph glyph-name="nine" unicode="9" horiz-adv-x="792" 
d="M190 -2c62 0 128.003 15.333 198.003 46c69.333 31.333 132.666 69.666 189.999 114.999c58 47.333 105.333 98 142 152c18 26 31.167 51.5 39.5 76.5s12.5 51.833 12.5 80.5c0 126 -35.333 219.667 -106 281c-72 63.333 -169.333 95.333 -292 96
c-74 0 -153.333 -28.667 -238 -86c-77.333 -54 -116 -118.667 -116 -194c0 -3.33301 0.666992 -8 2 -14c0.666992 -6 1 -11 1 -15c0 -95.333 42 -167.666 126 -216.999c84.667 -48.667 168.667 -73 252 -73c18.667 0 31 3.66699 37 11c8 23.333 19.333 43.666 34 60.999
c15.333 14.667 41.666 32.334 78.999 53.001c1.33301 2 2.66602 3 3.99902 3c-0.666992 0.666992 -1 2.66699 -1 6c-7.33301 -42.667 -25 -80.334 -53 -113.001c-28 -34 -62.333 -65.333 -103 -94c-30 -21.333 -69 -43.666 -117 -66.999c-30.667 -14 -61 -27 -91 -39h-1
c-26 -4.66699 -41.333 -10.667 -46 -18c-4.66699 -5.33301 -7 -11 -7 -17c0 -22.667 18 -34 54 -34zM388.003 744c68.667 -8 114.334 -34.666 137.001 -79.999c23.333 -44.667 37.666 -81.334 42.999 -110.001c0.666992 -2 2 -8.66699 4 -20s3 -18.333 3 -21
c0 -0.666992 0.333008 -2.33398 1 -5.00098v-6c0 -6.66699 -1.66699 -12.334 -5 -17.001c-8 -14 -30.333 -30 -67 -48c-36 -17.333 -74.667 -26.666 -116 -27.999c-56 0 -100.167 13.333 -132.5 40s-54.5 67.334 -66.5 122.001l-1 5c-3.33301 16 -5 28 -5 36
c0 35.333 14 66 42 92c34 28 76.333 42 127 42c15.333 0 27.333 -0.666992 36 -2z" />
    <glyph glyph-name="colon" unicode=":" horiz-adv-x="228" 
d="M114 158c-26.667 0 -48.332 -7.66699 -64.999 -23c-19.333 -15.333 -29 -34 -29 -56c0 -21.333 9.66699 -40 29 -56c16 -14.667 37.667 -22 65 -22c25.333 0 47 7 65 21c19.333 16 29 35 29 57s-9.66699 40.667 -29 56c-18.667 15.333 -40.334 23 -65.001 23z
M114.002 577c-26.667 0 -48.332 -7.66699 -64.999 -23c-19.333 -17.333 -29 -36 -29 -56c0 -22 9.66699 -41 29 -57c17.333 -14 39 -21 65 -21c24 0 45.667 7 65 21c19.333 16 29 35 29 57c0 20.667 -9.66699 39.667 -29 57c-18.667 14.667 -40.334 22 -65.001 22z" />
    <glyph glyph-name="semicolon" unicode=";" horiz-adv-x="224" 
d="M163 -66c12.667 12.667 23 32.002 31 58.002c6 15.333 9 33.333 9 54v11c-0.666992 5.33301 -1 8.66602 -1 9.99902c-6.66699 54 -37 81 -91 81c-24 0 -45.333 -7.66699 -64 -23c-18 -16 -27 -35.333 -27 -58s9.33301 -41.667 28 -57c16 -16 37 -24 63 -24
c0.666992 0 3 -2 7 -6v-2c0 -4.66699 -3.66699 -14.334 -11 -29.001c-6.66699 -13.333 -10 -24 -10 -32c0 -6 1.66699 -10 5 -12s6 -3 8 -3c16 0 33.667 10.667 53 32zM111 578.002c-24 0 -45.333 -7.66699 -64 -23c-18 -16 -27 -35.333 -27 -58s9.33301 -41.667 28 -57
c17.333 -15.333 38.333 -23 63 -23s46 7.33301 64 22c19.333 16 29 35.333 29 58c0 20.667 -9.66699 39.667 -29 57c-16.667 16 -38 24 -64 24z" />
    <glyph glyph-name="equal" unicode="=" 
d="M20 351v-52h548v52h-548zM20 251v-52h548v52h-548z" />
    <glyph glyph-name="question" unicode="?" horiz-adv-x="709" 
d="M245 723c18.667 8.66699 40.0039 14.9961 64.0039 18.9961c7.33301 1.33301 18.333 2 33 2c19.333 0 37.666 -3.33301 54.999 -10c27.333 -10.667 48.666 -29 63.999 -55c11.333 -20.667 17 -47 17 -79c0 -15.333 -1.33301 -30.666 -4 -45.999
c-6.66699 -61.333 -24 -102 -52 -122c-24.667 -16.667 -54.667 -32.667 -90 -48c-32 -12 -61.333 -31.333 -88 -58c-20 -22 -30 -61 -30 -117c0 -7.33301 0.333008 -16.666 1 -27.999c0.666992 -15.333 1 -26.333 1 -33c31.333 16.667 50.666 25.667 57.999 27
c8 0 28.333 -8 61 -24c0 80 14 129.333 42 148c29.333 16 65.666 28.333 108.999 37c41.333 6.66699 82.333 22.334 123 47.001c41.333 22.667 67.666 81 78.999 175c0 4.66699 0.333008 9.66699 1 15v14c0 68 -25.333 125.333 -76 172c-58 54 -139.667 81 -245 81
c-10.667 2.66699 -28 4 -52 4c-48.667 0 -104 -10.667 -166 -32c-86.667 -30.667 -130 -77 -130 -139c0 -28 12 -51.667 36 -71c22.667 -18.667 50.334 -28 83.001 -28c31.333 0 59.333 9.33301 84 28s37 42.334 37 71.001c0 19.333 -5 36 -15 50zM272.004 157.996
c-25.333 0 -47.333 -7.66602 -66 -22.999c-19.333 -14.667 -29 -33.334 -29 -56.001s9.66699 -41.667 29 -57c18 -14 40 -21 66 -21s48 7 66 21c19.333 16 29 35 29 57s-9.66699 40.667 -29 56c-18.667 15.333 -40.667 23 -66 23z" />
    <glyph glyph-name="at" unicode="@" horiz-adv-x="842" 
d="M673 292c-2 -2.66699 -2.99805 -5.66895 -2.99805 -9.00195c-3.33301 -3.33301 -7 -7.33301 -11 -12c-5.33301 -6 -9 -9.66699 -11 -11h14c-6 -17.333 -13.667 -26 -23 -26h-16c-6 13.333 -9.66699 32.333 -11 57c0 10.667 -0.333008 19 -1 25v26
c0.666992 18 1 34.333 1 49c0.666992 24.667 1 41 1 49v47c1.33301 3.33301 2.33301 8.33301 3 15c0 2 0.333008 5.33301 1 10c0 8.66699 -3.66699 15.334 -11 20.001c-30.667 16.667 -65.334 29.334 -104.001 38.001c-34.667 8 -69 12 -103 12
c-60.667 0 -122.334 -19 -185.001 -57c-4.66699 -1.33301 -7.5 -3.33301 -8.5 -6s-1.5 -6.33398 -1.5 -11.001c0 -7.33301 4.66699 -15.666 14 -24.999c12 -8 22 -12 30 -12c6 0 11 2 15 6c33.333 25.333 77.666 38 132.999 38c16 -0.666992 35 -2.66699 57 -6
c17.333 -2 28.333 -5.66699 33 -11c4.66699 -7.33301 7.33398 -14 8.00098 -20c0 -6 -6.66699 -9 -20 -9h-16c-4.66699 1.33301 -11.334 2 -20.001 2c-72 0 -134.333 -9.66699 -187 -29c-54.667 -20.667 -82 -66.667 -82 -138c0 -56 30.333 -93.667 91 -113
c24.667 -8 53.667 -12 87 -12c36.667 0 70 5 100 15c14.667 4.66699 28.667 7 42 7c10 0 19.333 -1.66699 28 -5c12 -5.33301 26.333 -11 43 -17l4 -1c20 -14 45 -23.333 75 -28c34 0 63.333 11.333 88 34c22.667 22 40.667 47.667 54 77
c15.333 35.333 25.333 64.666 30 87.999c7.33301 30.667 11 54 11 70c0 114.667 -41.333 213.334 -124 296.001c-82.667 82 -177.667 123 -285 123c-108 0 -200.667 -41 -278 -123c-76.667 -80.667 -115 -179.334 -115 -296.001c0 -117.333 38.333 -215.666 115 -294.999
c76 -82 168.667 -123 278 -123c55.333 0 106 11 152 33c55.333 26 104 62.667 146 110c-72 0 -130 -9.66699 -174 -29c-31.333 -16.667 -72.666 -25 -123.999 -25c-84 0 -150.667 26.667 -200 80c-49.333 69.333 -74 152.333 -74 249c0 90.667 24.667 168.667 74 234
c48 64 114.667 96 200 96s153.333 -32.333 204 -97c52.667 -63.333 79 -141 79 -233c0 -48.667 -7.66699 -91 -23 -127zM480.002 416.998c0.666992 0 1.66895 -0.332031 3.00195 -0.999023l9 -3c0.666992 -0.666992 1 -2.66699 1 -6c0 -2 -0.666992 -8.33301 -2 -19
c-0.666992 -6.66699 -1.33398 -13 -2.00098 -19c0 -16.667 -0.333008 -28.334 -1 -35.001c-0.666992 -7.33301 -1 -17.333 -1 -30c-1.33301 -14.667 -6 -24 -14 -28c-0.666992 -0.666992 -2 -1.66699 -4 -3c-2 -0.666992 -3.33301 -1.33398 -4 -2.00098l-6 -3
c-0.666992 -0.666992 -1.33398 -1 -2.00098 -1c-26.667 -12 -51 -18 -73 -18c-14 0 -26.667 3 -38 9c-26 13.333 -39 33 -39 59s12 48.667 36 68c25.333 20.667 71 31.334 137 32.001z" />
    <glyph glyph-name="A" unicode="A" horiz-adv-x="1064" 
d="M303 179h422c6.66699 -0.666992 11.334 -5 14.001 -13c15.333 -35.333 23.333 -59 24 -71c0 -10 -1.66699 -16.667 -5 -20c-4 -5.33301 -8.66699 -9 -14 -11c-13.333 -3.33301 -20 -17 -20 -41c2.66699 -9.33301 12.334 -16 29.001 -20
c5.33301 -0.666992 13.666 -1 24.999 -1c52 2.66699 90 4.33398 114 5.00098c27.333 0 67 -1.66699 119 -5c12 0 20.333 4 25 12c5.33301 8.66699 8 15.667 8 21l-3 6c-10.667 22 -21.667 33 -33 33c-5.33301 0 -12.666 5.66699 -21.999 17
c-16.667 15.333 -38 45.333 -64 90c-28.667 48 -69 128 -121 240l-5 7l-180 378c-1.33301 1.33301 -2.33301 2.66602 -3 3.99902c-12 14.667 -22 22 -30 22c-6.66699 -1.33301 -15.667 -2 -27 -2h-25c-5.33301 -0.666992 -12.333 -1 -21 -1
c-36.667 0 -72.334 0.333008 -107.001 1c-56 1.33301 -92.333 2.66602 -109 3.99902c-10 0 -18 -4.33301 -24 -13c-2 -4 -3 -9 -3 -15c0 -0.666992 0.333008 -1.66699 1 -3c0.666992 -2 1 -3.33301 1 -4c6 -27.333 37.333 -43 94 -47c44.667 -2 69 -16 73 -42
c0 -22 -13 -52.667 -39 -92c-28.667 -42.667 -66 -111 -112 -205c-68 -122.667 -114 -202.667 -138 -240c-30.667 -46 -53.667 -76 -69 -90c-9.33301 -11.333 -16.333 -17 -21 -17c-8 0 -18.667 -9.66699 -32 -29c-3.33301 -4.66699 -5 -10 -5 -16
c0 -7.33301 2.66699 -12.333 8 -15s13.666 -4 24.999 -4c9.33301 0.666992 16 1 20 1c46 2 79.667 3.33301 101 4c30 0 67.667 -1.66699 113 -5c18.667 0 30.667 6 36 18c4 5.33301 6 12.333 6 21c0 14.667 -6.66699 22 -20 22c-6 1.33301 -14.333 4.33301 -25 9
c-5.33301 2.66699 -9.33301 9.66699 -12 21c0 18.667 8.66699 45.334 26 80.001c1.33301 4 3 6 5 6zM689 270l-348.999 0.000976562c-0.666992 0 -1 -1.33301 -1 -4c0 2.66699 0.333008 5.33398 1 8.00098v6c9.33301 23.333 18 41.666 26 54.999
c4.66699 8.66699 7.66699 14 9 16c13.333 24 23.333 41.333 30 52l59 113c24 48 41.333 81.667 52 101l1 2c0 1.33301 0.333008 2 1 2c2 0 3.33301 -2 4 -6c29.333 -44.667 64 -115.667 104 -213l35 -69c7.33301 -12.667 16.666 -31 27.999 -55
c1.33301 -2.66699 2 -6.33398 2 -11.001c0 2 -0.666992 3 -2 3z" />
    <glyph glyph-name="B" unicode="B" horiz-adv-x="1056" 
d="M288 -12l1.00293 -0.00195312h1h5h9c6 -0.666992 20 -1 42 -1c46.667 0 104 -0.666992 172 -2c33.333 0 61 0.5 83 1.5s41.667 3.16699 59 6.5c156 24 257 64 303 120c48 58 72.333 113.667 73 167c-0.666992 72.667 -28.334 129.667 -83.001 171
c-51.333 39.333 -121 68.666 -209 87.999c1.33301 0 2 -1 2 -3c0.666992 0.666992 1.66699 1 3 1c114.667 32.667 172 79 172 139c0 14 -5.66699 32.667 -17 56c-12.667 24.667 -42.334 47.334 -89.001 68.001c-44.667 18.667 -112.334 33.667 -203.001 45
c-40 5.33301 -93 8 -159 8c-56 0 -126.667 -2.66699 -212 -8h-38c-8 0.666992 -20.667 1 -38 1c-32.667 0 -69.667 1.66699 -111 5c-12 0 -20.667 -1.83301 -26 -5.5s-8 -10.5 -8 -20.5c2 -25.333 12 -38.666 30 -39.999c7.33301 0 15 -4 23 -12
c11.333 -20 20.333 -58 27 -114c5.33301 -37.333 8 -88.666 8 -153.999c0 -11.333 -0.333008 -26.333 -1 -45c-0.666992 -26 -1 -44.333 -1 -55c-4 -117.333 -10.333 -199.333 -19 -246c-9.33301 -50 -18 -81.667 -26 -95c-4.66699 -12 -9.33398 -18 -14.001 -18
c-16.667 0 -25 -12.667 -25 -38c0 -16 11.333 -24 34 -24c44 2.66699 82.333 4.66699 115 6h59c3.33301 0 13 -0.333008 29 -1c10.667 0 20.334 -0.333008 29.001 -1zM457.003 500.998c85.333 -8 151.998 -19.668 199.998 -35.001c45.333 -13.333 80.333 -30.333 105 -51
c22.667 -18.667 36.334 -38 41.001 -58c6 -25.333 9.33301 -47.333 10 -66c-6 -36 -14.333 -66.667 -25 -92c-9.33301 -25.333 -28.333 -47 -57 -65c-29.333 -20 -73.666 -36 -132.999 -48c-63.333 -12 -145.333 -19.333 -246 -22c-14.667 0 -24.334 1.33301 -29.001 4
c-5.33301 3.33301 -10.666 12.666 -15.999 27.999c-11.333 22.667 -20 57.334 -26 104.001c-2 24 -3.5 51.833 -4.5 83.5s-1.5 73.834 -1.5 126.501c0 23.333 0.333008 40.333 1 51v5c1.33301 17.333 2 30.666 2 39.999c0 -0.666992 4.66699 -1 14 -1
c22.667 -1.33301 49 -2.66602 79 -3.99902h6h80zM269.001 599.997l0.00195312 2c4.66699 57.333 8.66699 94.333 12 111c3.33301 20 7.66602 37.333 12.999 52c2 8 7.66699 12 17 12c183.333 -2 297.333 -11 342 -27c40.667 -14 61 -37.667 61 -71
c0 -40 -32.333 -67.333 -97 -82c-32.667 -7.33301 -74.834 -12.833 -126.501 -16.5s-116.5 -5.5 -194.5 -5.5c-17.333 0 -26.333 1.33301 -27 4v21z" />
    <glyph glyph-name="C" unicode="C" horiz-adv-x="1073" 
d="M1010 304c-24 0 -38.999 -10.665 -44.999 -31.998l-4 -12c-32.667 -42.667 -82 -81.334 -148 -116.001c-66.667 -35.333 -128 -53 -184 -53c-90.667 0 -179.667 31 -267 93c-86 60 -129 136.333 -129 229s35 171.334 105 236.001c70 66.667 150.333 100 241 100
c4 0 8.66699 0.333008 14 1h12c63.333 0 128 -12.667 194 -38c72.667 -28.667 128.667 -66 168 -112c12 -18.667 25.333 -28 40 -28h11c18 0 28 7 30 21c0 6.66699 -0.333008 13.334 -1 20.001c-0.666992 2.66699 -1 5 -1 7c-22.667 32 -37.667 63.667 -45 95
c-3.33301 5.33301 -9 11 -17 17c-7.33301 16 -22.333 29.333 -45 40c-70 28 -135.667 45.333 -197 52c-56 6.66699 -117.333 10 -184 10c-64 0 -127.667 -11 -191 -33c-62.667 -21.333 -120 -51 -172 -89c-49.333 -36 -91.333 -79.667 -126 -131
c-32.667 -52 -49 -106.333 -49 -163c0 -114.667 52.667 -213 158 -295c105.333 -80 232 -120 380 -120c59.333 0 129 6.33301 209 19c83.333 12 148.666 29.667 195.999 53c28 11.333 42 23.666 42 36.999c0 16.667 5.66699 42 17 76c9.33301 30 19 55.667 29 77
c0 1.33301 0.333008 2.66602 1 3.99902s1 2.66602 1 3.99902c0 6.66699 -4.33301 13.667 -13 21c-8.66699 6.66699 -18 10 -28 10h-2z" />
    <glyph glyph-name="D" unicode="D" horiz-adv-x="1022" 
d="M225 2c10.667 0 26.002 0.666016 46.002 1.99902c29.333 1.33301 46.333 2.33301 51 3c187.333 12.667 346.666 61.334 477.999 146.001c134.667 86.667 202 183.667 202 291c-4.66699 82.667 -27.667 150 -69 202c-40.667 50.667 -93.667 90 -159 118
c-68 27.333 -141 45.333 -219 54c-86.667 10 -169 15.333 -247 16c-1.33301 1.33301 -5 2 -11 2c-27.333 0 -46 -1 -56 -3h-12c-13.333 -0.666992 -25.333 -1 -36 -1h-62c-22.667 0 -43 1.33301 -61 4c-21.333 0 -32 -9 -32 -27c2 -22.667 9.66699 -35 23 -37
c3.33301 -0.666992 7.33301 -7.66699 12 -21c6 -14.667 11.667 -47 17 -97c3.33301 -34.667 5 -76 5 -124c0 -13.333 -0.333008 -31.333 -1 -54c-0.666992 -31.333 -1 -54.333 -1 -69c-4 -111.333 -10 -191 -18 -239c-8.66699 -48.667 -16 -78.667 -22 -90
c-4 -10 -7.33301 -15 -10 -15c-15.333 0 -23 -12.333 -23 -37c0 -10 2.5 -16.5 7.5 -19.5s13.167 -4.5 24.5 -4.5c10 0.666992 28.667 1 56 1c11.333 -0.666992 29.666 -1 54.999 -1h27h35zM289.002 718.999c0 7.33301 1.66504 18.3311 4.99805 32.998h23
c122.667 -2.66699 232 -24.334 328 -65.001c93.333 -37.333 142.333 -118.666 147 -243.999c0 -84.667 -48 -160.667 -144 -228c-96.667 -69.333 -214 -108.666 -352 -117.999c-4.66699 0 -7.66699 -0.666992 -9 -2c-0.666992 5.33301 -1.66699 9.33301 -3 12
c-6.66699 20 -12 53.667 -16 101c-1.33301 17.333 -2.16602 39.333 -2.49902 66s-0.5 72.334 -0.5 137.001c0.666992 79.333 3.33398 146 8.00098 200c4 42.667 9.33301 78.667 16 108z" />
    <glyph glyph-name="E" unicode="E" horiz-adv-x="988" 
d="M748 837c-107.333 0 -203.337 -1.33301 -288.004 -4c-87.333 -2.66699 -184.333 -4 -291 -4c-40 0 -78.333 2.33301 -115 7c-22.667 0 -34 -9 -34 -27c2 -24 11.667 -36 29 -36c6 -0.666992 13 -7.66699 21 -21c11.333 -17.333 20.333 -49.666 27 -96.999
c4.66699 -28.667 7 -73.334 7 -134.001c0 -12 -0.333008 -28.333 -1 -49c-0.666992 -28.667 -1 -49.334 -1 -62.001c-4 -114 -10.333 -194 -19 -240c-9.33301 -47.333 -18.333 -77.666 -27 -90.999c-4 -10.667 -8 -16 -12 -16c-16 0 -24 -12.333 -24 -37
c0 -10 2.5 -16.5 7.5 -19.5s13.5 -4.5 25.5 -4.5c50.667 2.66699 89 4 115 4h116c14 0 49.667 -0.333008 107 -1c38.667 0 74.334 -0.333008 107.001 -1c24 0 74 -0.333008 150 -1c45.333 0 95.333 -0.333008 150 -1c14.667 0 26 4 34 12c8 6.66699 16.333 14 25 22
c12.667 14.667 28.334 31 47.001 49c5.33301 6 13.333 13 24 21l2 1c11.333 7.33301 20.333 13.666 27 18.999c7.33301 4.66699 11 16 11 34c0 20.667 -12 31 -36 31c-12 0 -30 -6 -54 -18c-18.667 -9.33301 -36 -16.666 -52 -21.999c-52 -25.333 -126.333 -43 -223 -53
c-90 -8 -162 -12 -216 -12c-7.33301 0 -15.333 0.333008 -24 1h-23c-28.667 1.33301 -48.667 13.333 -60 36c-9.33301 20 -14.666 52.667 -15.999 98c0 38.667 0.333008 79.667 1 123v69v45c0.666992 4 1 10 1 18s0.333008 14.333 1 19c0 2 1.33301 3 4 3h262h5
c60 -1.33301 106.333 -3 139 -5c46.667 -2.66699 76.334 -17 89.001 -43c8 -18.667 20.667 -28 38 -28h3c26.667 0 40 9.33301 40 28v3l-1 3c-6.66699 33.333 -10 62.666 -10 87.999c0 24 3.33301 51 10 81c0 1.33301 0.333008 3 1 5v3c0 18.667 -12.333 28 -37 28h-1
c-12.667 0 -21.667 -9.33301 -27 -28c-2 0.666992 -6.33301 1.66699 -13 3c-28.667 -22.667 -62 -38 -100 -46c-42 -8.66699 -93.667 -13 -155 -13h-231c-8 0 -12 1 -12 3l2 29c2 24.667 4 42.334 6 53.001c3.33301 24 6.66602 42.667 9.99902 56
c2 8.66699 6.66699 18.334 14 29.001c6 7.33301 19 11 39 11c8 0 26 -0.333008 54 -1c16.667 0 34.667 -0.333008 54 -1c26.667 -0.666992 69 -2 127 -4l22 -1c52 -4 102 -10 150 -18c46.667 -8 82.334 -19.667 107.001 -35c18 -15.333 40 -23 66 -23h9c8.66699 0 16 2 22 6
c7.33301 0 11 5 11 15c0 5.33301 -3.33301 11.666 -10 18.999l-2 2c-26 22 -44 38.333 -54 49l-8 8c-21.333 20 -38 34.333 -50 43c-10 8 -21.333 13 -34 15c-14 4 -26 6 -36 6h-8c-8 0 -12.667 -0.333008 -14 -1z" />
    <glyph glyph-name="F" unicode="F" horiz-adv-x="928" 
d="M271 258c0 24 -1.33301 46.9971 -4 68.9971c-0.666992 10.667 -1 37.334 -1 80.001c0 20.667 0.333008 35.667 1 45v38c0 1.33301 1.33301 2 4 2l199 -2c42.667 -0.666992 90.667 -2.66699 144 -6c48 -3.33301 77.667 -17.666 89 -42.999c8 -18.667 20.667 -28 38 -28h2
c26.667 0 40 9.33301 40 28v3l-1 3c-6 31.333 -9 60.666 -9 87.999s3 55 9 83c0 2 0.333008 3.66699 1 5v2c0 18.667 -11.667 28 -35 28h-3c-13.333 0 -22.333 -4.33301 -27 -13c-4 -5.33301 -7.66699 -9 -11 -11c-28 -22 -62 -37.667 -102 -47
c-42 -8.66699 -94 -13 -156 -13l-166 2c-8 0 -12 1 -12 3c0.666992 9.33301 1.66699 19.666 3 30.999c1.33301 25.333 3 43.333 5 54c3.33301 26 6.66602 45.667 9.99902 59c2 8.66699 6.66699 18.334 14 29.001c6 7.33301 19.333 11 40 11l98 -3
c46.667 -1.33301 90 -3.66602 130 -6.99902c44.667 -4.66699 88 -11.667 130 -21c39.333 -8 72.333 -19.667 99 -35c18.667 -15.333 40.667 -23 66 -23h10c10 0 17.667 2.33301 23 7c4 1.33301 6.5 3.33301 7.5 6s1.5 6 1.5 10s-3 9.66699 -9 17l-3 3
c-24.667 20.667 -42.667 36.667 -54 48c-18 18 -37 35 -57 51c-10 7.33301 -21.667 12.333 -35 15c-14.667 4 -26.667 6 -36 6h-9c-4.66699 0 -8.33398 -0.333008 -11.001 -1c-123.333 0 -211 -0.333008 -263 -1s-139.333 -1 -262 -1c-39.333 0 -77.666 2.33301 -114.999 7
c-22.667 0 -34 -9 -34 -27c2 -24 11.667 -36 29 -36c6 -0.666992 13 -7.66699 21 -21c11.333 -17.333 20.333 -49.666 27 -96.999c4.66699 -32 7 -81.333 7 -148v-43c-0.666992 -18.667 -1 -36.334 -1 -53.001c-1.33301 -8 -2 -14 -2 -18c-0.666992 -4 -1 -10.333 -1 -19
c-4 -100 -9.66699 -172.333 -17 -217c-7.33301 -43.333 -14 -70.666 -20 -81.999c-2.66699 -8 -5 -12 -7 -12c-14 0 -21 -12.333 -21 -37c0 -16 10.333 -24 31 -24l21 1c46.667 2 78.667 3.33301 96 4c19.333 0 40.333 -1 63 -3c7.33301 -0.666992 21 -2 41 -4l22 -3
c22.667 0 34 8.33301 34 25c0 22 -6.66699 34.667 -20 38c-5.33301 1.33301 -10.666 5 -15.999 11c-7.33301 10 -14.333 27 -21 51c-6.66699 26 -11.667 71.333 -15 136z" />
    <glyph glyph-name="G" unicode="G" horiz-adv-x="1097" 
d="M833 277c-2.66699 -28.667 -4.50391 -53.0039 -5.50391 -73.0039s-1.5 -38.667 -1.5 -56c0 -12.667 -14.333 -23 -43 -31c-26 -8.66699 -50 -14.667 -72 -18c-10 -1.33301 -31 -3.33301 -63 -6c-10 -1.33301 -16.333 -2 -19 -2c-90.667 0 -180.667 29.667 -270 89
c-42.667 28.667 -74.334 61.834 -95.001 99.501s-31 82.167 -31 133.5v14c-0.666992 8 -1 12.667 -1 14c0 86 29.667 157.667 89 215c66.667 63.333 144.334 95 233.001 95c6.66699 0 13.667 0.333008 21 1h19c58.667 0 112.334 -7.33301 161.001 -22
c58.667 -16 121.334 -48 188.001 -96c11.333 -18 26.333 -27 45 -27h10c17.333 0 27.333 6.66699 30 20c0 0.666992 0.333008 2.33398 1 5.00098v4c0 8 -2.33301 15.333 -7 22c-15.333 22 -26.666 42 -33.999 60c-9.33301 20 -25 37.667 -47 53
c-70 28 -136.333 45.667 -199 53c-56 6.66699 -117.333 10 -184 10c-126.667 0 -247.667 -36.667 -363 -110c-116.667 -76 -175 -178 -175 -306c0 -114.667 52.667 -213 158 -295c105.333 -80 232 -120 380 -120c59.333 0 131.333 9.33301 216 28
c82.667 16 149.667 36.667 201 62c25.333 16.667 38 30.667 38 42l-5 5c-0.666992 1.33301 -1 2.33301 -1 3c-3.33301 8 -6 14 -8 18c0 70 0.5 122.667 1.5 158s2.5 62.333 4.5 81c6 52 13 85 21 99h19c16.667 0 27.334 12.333 32.001 37c0 6.66699 -5.33301 14 -16 22
c-4.66699 3.33301 -12.667 5 -24 5c-7.33301 -0.666992 -19.333 -1.33398 -36 -2.00098c-11.333 -0.666992 -19.666 -1 -24.999 -1c-14.667 -0.666992 -34.334 -1 -59.001 -1h-61c-20 0 -40 1 -60 3c-13.333 0 -22.833 -1.66699 -28.5 -5s-8.5 -9.66602 -8.5 -18.999
c2 -22 9.66699 -34 23 -36c2.66699 0 7 0.666992 13 2h3c8 -13.333 15 -37.666 21 -72.999c7.33301 -27.333 12 -78.666 14 -153.999z" />
    <glyph glyph-name="H" unicode="H" horiz-adv-x="997" 
d="M266 586c-6 0 -8.99707 1.66113 -8.99707 4.99414c0.666992 62 4.33398 105.667 11.001 131c5.33301 21.333 11.333 35 18 41c5.33301 5.33301 9.66602 8.33301 12.999 9c12.667 2 19 14.333 19 37c0 18 -11 27 -33 27c-38 -4.66699 -76.667 -7 -116 -7
c-40 0 -78.333 2.33301 -115 7c-22.667 0 -34 -9 -34 -27c2 -22.667 10.333 -35 25 -37c6 -1.33301 11 -8.33301 15 -21c7.33301 -14.667 14 -47 20 -97c3.33301 -35.333 5 -78.666 5 -129.999c0 -12.667 -0.333008 -30 -1 -52c-0.666992 -30 -1 -51.667 -1 -65
c-4 -103.333 -9.33301 -182.666 -16 -237.999c-6.66699 -43.333 -13 -73.333 -19 -90c-2.66699 -10.667 -5 -16 -7 -16c-14 0 -21 -12.333 -21 -37c0 -10 2.5 -16.5 7.5 -19.5s13.5 -4.5 25.5 -4.5c48.667 3.33301 87.334 5 116.001 5c32.667 0 71.667 -1.66699 117 -5
c12 0 20.333 1.83301 25 5.5s7 9.83398 7 18.501c0 26 -7.66699 39.333 -23 40c-4.66699 0 -10 6 -16 18c-8 12.667 -15.667 42.667 -23 90c-3.33301 28.667 -5 79.334 -5 152.001c0 3.33301 0.333008 16.333 1 39v46v44v41v3c0.666992 1.33301 1 3 1 5c0 -2 3 -3 9 -3
c18 -0.666992 39 -1 63 -1c23.333 0 44 -0.333008 62 -1c27.333 -0.666992 69.333 -1 126 -1c48 0 84 0.333008 108 1c25.333 0 62 0.666992 110 2c6.66699 0 10 1.33301 10 4c0.666992 -2.66699 1 -6 1 -10v-40c-0.666992 -17.333 -1 -33.333 -1 -48
c-4 -113.333 -9.33301 -192.666 -16 -237.999c-7.33301 -48 -14 -78.333 -20 -91c-2 -10 -4 -15 -6 -15c-13.333 0 -20 -12.333 -20 -37c0 -16 10.333 -24 31 -24c48 3.33301 87 5 117 5s69 -1.66699 117 -5c12.667 0 21.334 1.83301 26.001 5.5s7 9.83398 7 18.501
c0 26 -8 39.333 -24 40c-4.66699 0 -9.66699 5.66699 -15 17c-8 12.667 -15.667 43 -23 91c-4.66699 32.667 -7 84.667 -7 156c0 3.33301 0.333008 15.666 1 36.999v43c0.666992 114.667 5 199 13 253c7.33301 48.667 14.666 79.667 21.999 93
c3.33301 9.33301 6.66602 14 9.99902 14c15.333 0 23 12.667 23 38c0 18 -11.333 27 -34 27c-38 -4.66699 -76.667 -7 -116 -7c-34.667 0 -73.334 2.33301 -116.001 7c-21.333 0 -32 -9 -32 -27c2 -20.667 9.33301 -32 22 -34c6 -2.66699 11.333 -7 16 -13
c7.33301 -6.66699 13.666 -21 18.999 -43c2.66699 -8.66699 4.33398 -20.667 5.00098 -36s1 -43.666 1 -84.999c0 -6.66699 -2.33301 -10 -7 -10c-16.667 0.666992 -35.334 1 -56.001 1s-39.334 0.333008 -56.001 1c-24 0.666992 -60.667 1 -110 1
c-56 0 -97.667 -0.333008 -125 -1l-31 -1z" />
    <glyph glyph-name="I" unicode="I" horiz-adv-x="338" 
d="M53 836c-22 0 -32.999 -9.00195 -32.999 -27.002c2 -22.667 10.333 -35 25 -37c6 -1.33301 11 -8.33301 15 -21c7.33301 -14.667 14 -47 20 -97c3.33301 -35.333 5 -78.666 5 -129.999c0 -12.667 -0.333008 -30 -1 -52c-0.666992 -30 -1 -51.667 -1 -65
c-4 -103.333 -9.33301 -183 -16 -239c-6.66699 -44.667 -13 -75 -19 -91c-3.33301 -9.33301 -5.66602 -14 -6.99902 -14c-14 0 -21 -12.333 -21 -37c0 -10 2.5 -16.5 7.5 -19.5s13.167 -4.5 24.5 -4.5l16 1c45.333 2 79 3.33301 101 4c32.667 0 71.667 -1.66699 117 -5
c12 0 20.333 1.83301 25 5.5s7 9.83398 7 18.501c0 26 -8 39 -24 39c-4.66699 0 -9.66699 5.66699 -15 17c-8 11.333 -15.667 41.333 -23 90c-3.33301 28.667 -5 79.667 -5 153c0 3.33301 0.333008 16.333 1 39v47c1.33301 119.333 5.33301 203.333 12 252
c7.33301 48.667 14.666 79.667 21.999 93c3.33301 9.33301 6.66602 14 9.99902 14c14.667 0 22 13 22 39c0 18 -11 27 -33 27c-38 -4.66699 -76.667 -7 -116 -7c-40 0 -78.667 2.33301 -116 7z" />
    <glyph glyph-name="J" unicode="J" horiz-adv-x="562" 
d="M276 836c-14.667 0 -24.999 -1.99414 -30.999 -5.99414s-9 -11 -9 -21c2 -22.667 10.667 -35 26 -37c6 -0.666992 12 -8 18 -22c7.33301 -14 14.333 -46.333 21 -97c4 -21.333 6 -67.333 6 -138v-49c-0.666992 -20.667 -1 -40.334 -1 -59.001
c-4 -108 -8.66699 -183.333 -14 -226c-4.66699 -51.333 -10.334 -90.666 -17.001 -117.999c-4.66699 -16.667 -9.66699 -28.334 -15 -35.001c-6.66699 -6.66699 -11 -14.667 -13 -24c-22.667 -28.667 -50.667 -52.334 -84 -71.001c-36 -18.667 -68.667 -32.667 -98 -42
l-4 -2c-12 -4 -20 -7.66699 -24 -11c-11.333 -6.66699 -17 -17 -17 -31c0 -13.333 5.66699 -23.333 17 -30c8.66699 -6.66699 19.667 -10 33 -10c30.667 3.33301 63.667 11 99 23c14 4.66699 41 14.667 81 30l14 6c31.333 13.333 65 32.333 101 57
c34 22.667 71.667 42.667 113 60c2.66699 0 10 5 22 15c6 4 10 9 12 15s3 15 3 27c-6 32 -11.667 50.667 -17 56c-2.66699 3.33301 -5 11.666 -7 24.999c-2 9.33301 -4.66699 36 -8 80c-2.66699 39.333 -5.66699 109.666 -9 210.999c-3.33301 41.333 -5 93.666 -5 156.999
c0 39.333 1 71 3 95c6 45.333 13.333 75.666 22 90.999c7.33301 10 14 15 20 15c18.667 0 28 13 28 39c0 18 -11.333 27 -34 27c-38 -4.66699 -76.667 -7 -116 -7s-78 2.33301 -116 7z" />
    <glyph glyph-name="K" unicode="K" horiz-adv-x="977" 
d="M541 467l-0.996094 1.99512c-6.66699 7.33301 -11.334 14 -14.001 20h1c0 6.66699 6 14 18 22c109.333 88.667 187.333 149.334 234 182.001c48 33.333 80.333 53.666 97 60.999c11.333 6.66699 18.333 10 21 10l3 -1c7.33301 0 22.666 8.33301 45.999 25
c4.66699 1.33301 7.66699 3.33301 9 6s2 6 2 10c0 6.66699 -4 13.334 -12 20.001c-9.33301 7.33301 -18.666 11 -27.999 11c-16 -1.33301 -38 -2.66602 -66 -3.99902c-16 -0.666992 -37 -1 -63 -1c-30.667 0 -57 0.333008 -79 1c-36 1.33301 -60 3 -72 5
c-16.667 0 -32 -6 -46 -18l-1 -2c-6 -10 -9 -17 -9 -21c0 -17.333 11.333 -26 34 -26c14.667 -0.666992 22 -6.66699 22 -18c0 -18 -23.333 -50.333 -70 -97c-44 -48 -144.333 -131.667 -301 -251c-6.66699 -8 -11.667 -12 -15 -12l1 -1v2v19
c-1.33301 30.667 -2 71.334 -2 122.001c0 48.667 1.33301 94.334 4 137.001c7.33301 48.667 15.666 79.334 24.999 92.001c5.33301 10 11.666 15 18.999 15c18 0 28.667 11.667 32 35c0 14.667 -8 22 -24 22c-4 0.666992 -6.33301 1 -7 1c-6 0.666992 -10.667 1 -14 1
c-42.667 -4.66699 -81.334 -7 -116.001 -7c-40 0 -78.333 2.33301 -115 7c-22.667 0 -34 -9 -34 -27c2 -22.667 11 -35 27 -37c4 -0.666992 9.33301 -8 16 -22c7.33301 -14 14.333 -46.333 21 -97c3.33301 -21.333 5 -66.333 5 -135v-49c-0.666992 -22 -1 -42.667 -1 -62
c-4 -111.333 -10 -191 -18 -239c-7.33301 -46.667 -14 -77 -20 -91c-4 -9.33301 -8.33301 -14 -13 -14c-2.66699 -2 -6.16699 -6 -10.5 -12s-6.5 -14.333 -6.5 -25c0 -10 2.5 -16.5 7.5 -19.5s13.5 -4.5 25.5 -4.5c48.667 3.33301 87.334 5 116.001 5
c32.667 0 71.667 -1.66699 117 -5c8.66699 0 15.334 0.333008 20.001 1c15.333 2 23 9 23 21c-2 24 -10.667 36 -26 36c-5.33301 0 -10.333 2.66699 -15 8c-8 6 -15 19.667 -21 41c-6.66699 31.333 -10 80.666 -10 147.999c0 13.333 0.666992 22 2 26
c1.33301 1.33301 6 5 14 11c9.33301 6.66699 15.666 11.334 18.999 14.001c13.333 10 26.333 21 39 33c13.333 10.667 28.666 21 45.999 31c2.66699 2.66699 8.66699 6.66699 18 12l3 2c0 -2.66699 -2.33301 -4 -7 -4c4 0 9 -4 15 -12
c88.667 -93.333 148.334 -162.333 179.001 -207c28.667 -36 43 -61.667 43 -77c0 -8 -4.66699 -13 -14 -15c-22.667 -4 -34 -20.667 -34 -50c4 -10 15.667 -16 35 -18c6 -0.666992 15.333 -1 28 -1h27c20.667 0.666992 39 1 55 1h85c24.667 0 42.667 -0.333008 54 -1
c14 0 28 0.333008 42 1h19c10.667 8 16 17 16 27c0 5.33301 -1.66699 11.333 -5 18c-18 20 -32 30 -42 30c-6 0 -16 5 -30 15c-15.333 10.667 -46 40 -92 88c-40.667 44.667 -105.334 124 -194.001 238c-6.66699 7.33301 -13 15.666 -19 24.999
c-6 6.66699 -12 14.334 -18 23.001z" />
    <glyph glyph-name="L" unicode="L" horiz-adv-x="929" 
d="M68 833c-0.666992 0 -1.00098 0.333984 -1.00098 1.00098c-20 0 -30 -9 -30 -27c2 -22.667 9.33301 -35 22 -37c5.33301 -0.666992 10.333 -7 15 -19c6 -12.667 12.333 -45 19 -97c3.33301 -35.333 5 -78.666 5 -129.999c0 -12.667 -0.333008 -30 -1 -52
c-0.666992 -30 -1 -51.667 -1 -65c-4 -118 -10 -197.667 -18 -239c-8.66699 -49.333 -16.667 -79.333 -24 -90c-2.66699 -10 -6 -15 -10 -15c-16 0 -24 -12.333 -24 -37c0 -8.66699 2.33301 -14.834 7 -18.501s13.667 -5.5 27 -5.5l26 1c38.667 2 66 3.33301 82 4
c25.333 0 45.333 -0.333008 60 -1c87.333 -2 172.333 -3 255 -3c55.333 -0.666992 139.333 -1 252 -1c28 1.33301 50.333 13.333 67 36l20 26c2.66699 4 7.33398 10 14.001 18c0.666992 1.33301 2.66699 4 6 8c7.33301 10 17.333 19 30 27c14.667 10 26 20.333 34 31
c6 4 9 12.667 9 26v7c-0.666992 4 -1 6.33301 -1 7c-2.66699 14 -14 21 -34 21h-9c-32.667 0 -59 -12.333 -79 -37c-10.667 -12 -47 -28.667 -109 -50c-66.667 -24 -135.667 -36.667 -207 -38h-64h-66c-20.667 0 -34.334 1.66699 -41.001 5c-6 6 -10 12.667 -12 20
c-7.33301 20 -12.666 53.667 -15.999 101c-2 20.667 -3 60.667 -3 120c0 3.33301 0.333008 16 1 38v43c2 119.333 7 203.333 15 252c8 46.667 16.667 77.334 26 92.001c5.33301 10 10.666 15 15.999 15c16.667 0 25 13 25 39c0 7.33301 -7.66699 14.666 -23 21.999
c-9.33301 3.33301 -18 5 -26 5c-24 -2.66699 -47.333 -4.33398 -70 -5.00098h-10c-27.333 -1.33301 -47.333 -2 -60 -2c-23.333 0 -38.666 0.333008 -45.999 1c-12 0 -28 1 -48 3z" />
    <glyph glyph-name="M" unicode="M" horiz-adv-x="1283" 
d="M54 833c-22.667 0 -34 -9.66992 -34 -29.0029c8.66699 -22 22 -36.333 40 -43c15.333 -5.33301 31.666 -9.33301 48.999 -12c15.333 -3.33301 30 -8.66602 44 -15.999c14.667 -8 25.667 -22 33 -42c4 -10.667 7.16699 -23.5 9.5 -38.5s3.5 -34.167 3.5 -57.5
c0 -58 -0.333008 -108.667 -1 -152v-36c0 -62 -1 -112.333 -3 -151s-5 -69.334 -9 -92.001c-8 -46 -17 -75.667 -27 -89c-6.66699 -9.33301 -13.667 -14 -21 -14c-18 0 -27 -12.333 -27 -37c0 -9.33301 2.66699 -15.833 8 -19.5s15.333 -5.5 30 -5.5
c19.333 2 41.666 3 66.999 3h69h35c8.66699 -2 20.667 -3.66699 36 -5c22 0 33 8.33301 33 25c0 26 -8.33301 39.667 -25 41c-5.33301 0 -12 6.33301 -20 19c-10 15.333 -18.667 45.666 -26 90.999c-4.66699 42 -7 96.333 -7 163c0 3.33301 0.333008 15 1 35v40
c0 24 -0.333008 46 -1 66v13c0 6 0.333008 16.667 1 32c0.666992 30 1.33398 51 2.00098 63v10c2 0 5 -5.33301 9 -16l81 -113l101 -143c16 -21.333 40 -51.333 72 -90l17 -21c24 -40 38.333 -65 43 -75c8.66699 -10 17 -15 25 -15c7.33301 0 16 6 26 18l35 57l126 204
l160 233v4l2 -1c1.33301 1.33301 2 2.33301 2 3c-0.666992 -4.66699 -1 -9.66699 -1 -15c-4 -38.667 -7.33301 -67.334 -10 -86.001c-5.33301 -42.667 -8 -86.667 -8 -132c0 -67.333 -0.5 -120.666 -1.5 -159.999s-3.16699 -69.333 -6.5 -90
c-5.33301 -47.333 -11.666 -77 -18.999 -89c-2 -6.66699 -3.33301 -10 -4 -10c-2 0.666992 -3.66699 1 -5 1l-3 1c-14.667 0 -22 -11.333 -22 -34c0 -10 2.33301 -16.5 7 -19.5s13 -4.5 25 -4.5c51.333 2.66699 90 4.33398 116 5.00098c28.667 0 67.334 -1.66699 116.001 -5
c13.333 0 22.333 1.83301 27 5.5s7 9.83398 7 18.501c0 24.667 -8 37 -24 37c-4.66699 0 -9 4.66699 -13 14c-6.66699 11.333 -13.667 41.333 -21 90c-6.66699 53.333 -10 134.666 -10 243.999c0 66 1.16699 119 3.5 159s5.83301 71.667 10.5 95c8 44 18.333 73.667 31 89
c6.66699 8.66699 12.667 13 18 13l4 -1c22 0 33 12.333 33 37c0 17.333 -9.33301 26 -28 26c-14 -1.33301 -39.667 -2.66602 -77 -3.99902c-18 0 -32.833 0.333008 -44.5 1s-21.834 1.33398 -30.501 2.00098c-7.33301 2 -16.333 3 -27 3s-19.667 -2.33301 -27 -7
c-58 -68.667 -117 -148 -177 -238c-59.333 -90.667 -114 -170.667 -164 -240c0.666992 1.33301 1.66699 2 3 2c0.666992 0 1 -0.333008 1 -1l-164 215c-49.333 75.333 -106.333 156.333 -171 243c-4 8.66699 -10.333 15 -19 19c-2 2 -7.16699 3.16699 -15.5 3.5
s-27.833 0.5 -58.5 0.5c-24 -0.666992 -50 -2 -78 -4h-2c-19.333 0 -40 0.666992 -62 2h-2c-8.66699 0.666992 -24 2.33398 -46 5.00098z" />
    <glyph glyph-name="N" unicode="N" horiz-adv-x="1093" 
d="M868 20l-0.00195312 -14.999c8.66699 0 15.334 0.333008 20.001 1h-7c4.66699 -6.66699 8 -10 10 -10c6 -6 16.333 -9 31 -9c5.33301 0 12.333 1 21 3c12.667 3.33301 22.167 7.16602 28.5 11.499s10.5 7.5 12.5 9.5c-2.66699 19.333 -4 48.666 -4 87.999
c0 48 0.333008 85 1 111c0 27.333 0.666992 65 2 113c0 28.667 0.666992 57 2 85c2 124 7 210.333 15 259c8 46.667 17 77.334 27 92.001c5.33301 10 11 15 17 15c19.333 0 29 12.333 29 37c0 18 -11.333 27 -34 27c-8.66699 -0.666992 -21.334 -2.33398 -38.001 -5.00098
c-9.33301 -1.33301 -14.333 -2 -15 -2c-18.667 -1.33301 -34.667 -2 -48 -2c-40 0 -79 2.33301 -117 7c-10.667 0 -18.667 -2 -24 -6s-8 -11 -8 -21c0 -23.333 10 -35 30 -35c6.66699 0 14.334 -6.33301 23.001 -19c11.333 -18 20.666 -50 27.999 -96
c5.33301 -36 8 -84.333 8 -145c0 -12.667 -0.333008 -29.334 -1 -50.001c-0.666992 -26.667 -1 -45.667 -1 -57v-9c-1.33301 -30.667 -2 -52.667 -2 -66c-0.666992 -20.667 -1.66699 -42 -3 -64c0 -10 1.33301 -15 4 -15h-1c-9.33301 7.33301 -18 16 -26 26l-59 67l-59 67
l-131 144l-124 137c-42.667 48.667 -73.667 85.667 -93 111c-4.66699 9.33301 -11.334 16 -20.001 20c-9.33301 3.33301 -33.333 5.33301 -72 6c-8 0 -17.333 0.333008 -28 1h-19c-6 0 -12.667 -0.333008 -20 -1h-12c-19.333 0 -45 1 -77 3l-60 6
c-7.33301 0.666992 -14 1.33398 -20 2.00098c-12.667 0 -21.5 -1.83301 -26.5 -5.5s-7.5 -11.167 -7.5 -22.5c8.66699 -22 23 -36.667 43 -44c18.667 -5.33301 36 -9.33301 52 -12c18.667 -3.33301 35.334 -8 50.001 -14c15.333 -7.33301 27 -21.666 35 -42.999
c6 -14 9 -33.333 9 -58c0 -5.33301 -0.333008 -12 -1 -20c-0.666992 -10 -1 -17.333 -1 -22c-2 -21.333 -3.5 -47 -4.5 -77s-1.5 -69.667 -1.5 -119c0 -62.667 -1 -113 -3 -151s-5.33301 -68.333 -10 -91c-8 -42.667 -17.667 -72 -29 -88c-8 -10 -15.667 -15 -23 -15
c-19.333 0 -29 -12 -29 -36c0 -9.33301 2.83301 -15.833 8.5 -19.5s15.834 -5.5 30.501 -5.5c19.333 2 41.666 3 66.999 3h69h40h4c13.333 -2 26.333 -3.66699 39 -5c12.667 0 21.334 2.16699 26.001 6.5s7 10.833 7 19.5c-4.66699 29.333 -16 44 -34 44
c-9.33301 0 -17.666 4 -24.999 12c-10 13.333 -18.333 40.666 -25 81.999c-2.66699 17.333 -4 53.333 -4 108c0 40 1 86.333 3 139c0 10.667 0.333008 26.334 1 47.001c1.33301 22 2 40 2 54c2 50.667 4 88.334 6 113.001c0 2 0.333008 4.66699 1 8v3
c2.66699 0 5.33398 -5.66699 8.00098 -17c14.667 -20.667 49 -61.667 103 -123l163 -163l57 -68l107 -127l61 -65c23.333 -24.667 38.666 -41.334 45.999 -50.001z" />
    <glyph glyph-name="O" unicode="O" horiz-adv-x="1117" 
d="M558 834c-64 0 -127.667 -10.999 -191 -32.999c-62.667 -21.333 -120 -51 -172 -89c-49.333 -36 -91.333 -79.667 -126 -131c-32.667 -52 -49 -106.333 -49 -163c0 -114.667 52.667 -213 158 -295c105.333 -80 232 -120 380 -120c147.333 0 274 40 380 120
c106 82.667 159 181 159 295c0 55.333 -16.667 109.666 -50 162.999c-34.667 51.333 -77 95 -127 131c-52 38 -109.333 67.667 -172 89c-64 22 -127.333 33 -190 33zM559 749.001c89.333 0 167.667 -29.6641 235 -88.9971c31.333 -28.667 54.5 -62.834 69.5 -102.501
s22.5 -87.834 22.5 -144.501c-4 -104 -37.333 -186 -100 -246c-62 -58 -137.667 -87 -227 -87c-88.667 0 -165.667 32.667 -231 98c-63.333 65.333 -95 143.666 -95 234.999c0 92 31.667 170.667 95 236c64.667 66.667 141.667 100 231 100z" />
    <glyph glyph-name="P" unicode="P" horiz-adv-x="926" 
d="M53 836c-22 0 -33.002 -9.00293 -33.002 -27.0029c2 -22.667 10.333 -35 25 -37c6 -1.33301 11 -8.33301 15 -21c7.33301 -14.667 14 -47 20 -97c3.33301 -35.333 5 -78.666 5 -129.999c0 -12.667 -0.333008 -30 -1 -52c-0.666992 -30 -1 -51.667 -1 -65
c-2 -108.667 -5.66699 -189 -11 -241c-6 -47.333 -12.333 -77.333 -19 -90c-2 -8.66699 -4.66699 -13 -8 -13c-16.667 0 -25 -12.333 -25 -37c0 -10 2.5 -16.5 7.5 -19.5s13.167 -4.5 24.5 -4.5l16 1c45.333 2 79 3.33301 101 4c32.667 0 71.667 -1.66699 117 -5
c12 0 20.333 1.83301 25 5.5s7 9.83398 7 18.501c0 18 -4 29 -12 33c-0.666992 0.666992 -2 1.66699 -4 3c-2.66699 2 -5.66699 4 -9 6c-4.66699 5.33301 -9.66699 12 -15 20s-10.666 25.667 -15.999 53v6c-0.666992 2.66699 -1 4.33398 -1 5.00098
c0 6.66699 4.33301 11 13 13c12.667 3.33301 34 8 64 14c174 30 311.333 78 412 144c104 67.333 156 137.333 156 210c0 83.333 -27.667 146.333 -83 189c-55.333 42 -120.666 71.333 -195.999 88c-77.333 16.667 -157.333 25 -240 25
c-83.333 -0.666992 -156 -2.66699 -218 -6c-40 0 -78.667 2.33301 -116 7zM316.998 753.997c162 -6.66699 267.336 -32.333 316.003 -77c45.333 -44 68 -94 68 -150c0 -52 -43.333 -103.667 -130 -155c-88.667 -54 -184.334 -94.333 -287.001 -121
c-3.33301 -1.33301 -8.33301 -2 -15 -2c-2.66699 0 -4.33398 0.333008 -5.00098 1c-2.66699 2.66699 -5.33398 8 -8.00098 16c-1.33301 13.333 -2.66602 35 -3.99902 65v80c0 88 3 161.333 9 220c8 56 13.667 91.667 17 107c1.33301 4.66699 4 8.66699 8 12
c3.33301 2.66699 13.666 4 30.999 4z" />
    <glyph glyph-name="Q" unicode="Q" horiz-adv-x="1117" 
d="M496 -3c-6 -2 -9.66406 -4.66504 -10.9971 -7.99805v6c-0.666992 4 -1 7.33301 -1 10h12c1.33301 0 3.33301 -0.333008 6 -1h5c12 -0.666992 29 -1 51 -1c147.333 0 274 40 380 120c106 82.667 159 181 159 295c0 55.333 -16.667 109.666 -50 162.999
c-34.667 51.333 -77 95 -127 131c-52 38 -109.333 67.667 -172 89c-64 22 -127.333 33 -190 33c-64 0 -127.667 -11 -191 -33c-62.667 -21.333 -120 -51 -172 -89c-49.333 -36 -91.333 -79.667 -126 -131c-32.667 -52 -49 -106.333 -49 -163
c0 -67.333 19 -130.666 57 -189.999c38 -58.667 89 -106.667 153 -144c23.333 -14 45.666 -26 66.999 -36c7.33301 -3.33301 18.333 -8 33 -14l57 -24c-3.33301 0 -5 2.33301 -5 7c0 0.666992 -0.333008 1 -1 1l-1 1c-0.666992 -0.666992 -2 -2.33398 -4 -5.00098
c-3.33301 -3.33301 -7 -7.33301 -11 -12c-11.333 -11.333 -21.333 -20.666 -30 -27.999l-5 -4c-21.333 -18 -36.333 -31 -45 -39c-15.333 -14.667 -23 -24.334 -23 -29.001c0 -4 0.833008 -7.16699 2.5 -9.5s3.16699 -3.83301 4.5 -4.5
c2 -0.666992 3.66699 -2.33398 5 -5.00098c0 -12 8.66699 -18 26 -18c1.33301 0 4.66602 0.333008 9.99902 1c7.33301 0.666992 12.333 1 15 1c18 16 50.333 24 97 24c45.333 -0.666992 95.666 -4.33398 150.999 -11.001c44 -6 94 -13.667 150 -23
c43.333 -6.66699 72.333 -10 87 -10c2.66699 0 5.66699 0.333008 9 1h5c2 0.666992 10.667 4.33398 26 11.001l21 9l78 38l6 3l71 35c26.667 17.333 45.667 31.333 57 42c-6.66699 0 -13.334 2.33301 -20.001 7c0 21.333 -16 32 -48 32c-48 -29.333 -119 -46 -213 -50
c-61.333 0 -115.666 1.66699 -162.999 5s-95 9 -143 17zM559.003 749.002c89.333 0 167.667 -29.6641 235 -88.9971c31.333 -28.667 54.5 -62.834 69.5 -102.501s22.5 -87.834 22.5 -144.501c-4 -104 -37.333 -186 -100 -246c-62 -58 -137.667 -87 -227 -87
c-88.667 0 -165.667 32.667 -231 98c-63.333 65.333 -95 143.666 -95 234.999c0 92 31.667 170.667 95 236c64.667 66.667 141.667 100 231 100z" />
    <glyph glyph-name="R" unicode="R" horiz-adv-x="941" 
d="M640 258c-2.66699 1.33301 -4.00098 2.33203 -4.00098 2.99902c0 1.33301 2.66699 2.66602 8 3.99902l2 1c19.333 10 39 19.667 59 29c64.667 34.667 116 71.667 154 111c41.333 42.667 62 85 62 127c0 82.667 -28.667 145.667 -86 189
c-54.667 41.333 -121.334 70.666 -200.001 87.999c-80 16.667 -162 25 -246 25c-84.667 -0.666992 -158 -2.66699 -220 -6c-40 0 -78.667 2.33301 -116 7c-22 0 -33 -9 -33 -27c2 -22.667 10.333 -35 25 -37c6 -1.33301 11 -8.33301 15 -21c7.33301 -14.667 14 -47 20 -97
c3.33301 -35.333 5 -78.666 5 -129.999c0 -12.667 -0.333008 -30 -1 -52c-0.666992 -30 -1 -51.667 -1 -65c-2 -108.667 -5.66699 -189 -11 -241c-6 -47.333 -12.333 -77.333 -19 -90c-2 -8.66699 -4.66699 -13 -8 -13c-16.667 0 -25 -12.333 -25 -37
c0 -10 2.5 -16.5 7.5 -19.5s13.167 -4.5 24.5 -4.5l16 1c45.333 2 79 3.33301 101 4c32.667 0 71.667 -1.66699 117 -5c12 0 20.333 1.83301 25 5.5s7 9.83398 7 18.501c0 18 -4 29 -12 33c-0.666992 0.666992 -2 1.66699 -4 3c-2.66699 2 -5.66699 4 -9 6
c-4.66699 5.33301 -9.66699 12 -15 20s-10.666 25.667 -15.999 53c0 1.33301 -0.333008 3.33301 -1 6v5c0 6.66699 4.33301 11 13 13c10.667 2.66699 28.667 6.66699 54 12c2 0.666992 5.33301 1.33398 10 2.00098c2.66699 0.666992 6.66699 1.33398 12 2.00098
c10.667 1.33301 18.334 2.66602 23.001 3.99902c4.66699 0.666992 10.334 1.66699 17.001 3s12.334 2.33301 17.001 3c19.333 4.66699 37.333 7 54 7c9.33301 -0.666992 25.666 -13.667 48.999 -39c40 -40.667 63.667 -67.334 71 -80.001c5.33301 -5.33301 8 -11 8 -17
c-1.33301 -1.33301 -3.33301 -2 -6 -2c-12 -2.66699 -18 -12 -18 -28v-6c0.666992 -4 1 -7.33301 1 -10c4 -9.33301 18.667 -14 44 -14h37c43.333 3.33301 79.333 5 108 5c29.333 -2.66699 51 -4 65 -4c20.667 0 42.667 1.66699 66 5c9.33301 0 15.833 0.833008 19.5 2.5
s5.5 6.16699 5.5 13.5c0 2.66699 -2.66699 8.33398 -8 17.001c-15.333 17.333 -28 26.333 -38 27c-6.66699 1.33301 -17.334 5.33301 -32.001 12c-14.667 7.33301 -36 23 -64 47c-21.333 17.333 -64.333 61 -129 131zM316.999 753.999
c93.333 -2.66699 165.667 -11.667 217 -27c49.333 -12.667 87.333 -29.667 114 -51c24 -19.333 38.667 -41.333 44 -66c6 -26 9 -53.667 9 -83c0 -52 -43.333 -103.667 -130 -155c-89.333 -54.667 -184.666 -95 -285.999 -121c-4 -0.666992 -8.66699 -1 -14 -1h-7
c-2.66699 2.66699 -5.33398 8 -8.00098 16c-1.33301 13.333 -2.66602 35 -3.99902 65v80c0 88 3 161.333 9 220c8 56 13.667 91.667 17 107c1.33301 4.66699 4 8.66699 8 12c3.33301 2.66699 13.666 4 30.999 4z" />
    <glyph glyph-name="S" unicode="S" horiz-adv-x="912" 
d="M685 613c9.33301 -24 27.6699 -36.0029 55.0029 -36.0029c13.333 0 23.333 4 30 12c7.33301 7.33301 11 14 11 20c0 1.33301 -0.333008 3.33301 -1 6c-1.33301 2.66699 -2 4.66699 -2 6c-13.333 25.333 -23.333 45 -30 59c-6 12.667 -13 31.667 -21 57
c-8.66699 26.667 -26.667 40 -54 40h-14c-3.33301 1.33301 -7.66602 2 -12.999 2c-65.333 34 -148.666 54.667 -249.999 62v-3c-80.667 -0.666992 -149 -12.334 -205 -35.001c-60.667 -25.333 -93.334 -73.666 -98.001 -144.999c0 -38 17 -70 51 -96
c33.333 -26 72.666 -48.333 117.999 -67s96 -34 152 -46c6 -1.33301 10.333 -2.33301 13 -3c65.333 -15.333 113.333 -27.666 144 -36.999c45.333 -13.333 83 -33.666 113 -60.999c29.333 -26 44 -57 44 -93c0 -44.667 -26.667 -83 -80 -115
c-40 -31.333 -77.333 -47 -112 -47l7 5c-20.667 -3.33301 -36.334 -5 -47.001 -5c-58 0 -107.833 5.66699 -149.5 17s-78.167 28.666 -109.5 51.999c-66 46.667 -105 92 -117 136c-0.666992 34 -15.667 51 -45 51c-30 0 -45 -18.333 -45 -55c0 -17.333 -1.66699 -37 -5 -59
c-3.33301 -17.333 -5 -37.666 -5 -60.999c0 -29.333 11.667 -47 35 -53c47.333 -33.333 107.666 -61.333 180.999 -84c74 -23.333 158 -35 252 -35c98.667 0 191 26 277 78c84.667 52.667 127 124.334 127 215.001c-2 64.667 -21.667 114.667 -59 150
c-36 36 -80 64.333 -132 85c-51.333 20 -108.333 36.667 -171 50c-64.667 14 -121.334 28.667 -170.001 44c-34.667 12 -61.667 23.333 -81 34c-23.333 11.333 -35 23 -35 35c0 17.333 12.333 32 37 44c26 13.333 59.667 20 101 20c4.66699 1.33301 12.667 2 24 2
c40.667 0 90.334 -13.667 149.001 -41c69.333 -34 112.666 -69 129.999 -105z" />
    <glyph glyph-name="T" unicode="T" horiz-adv-x="1020" 
d="M190 838c1.33301 0 2.33008 0.332031 2.99707 0.999023h-7h-34c-16 0 -29.667 -13.333 -41 -40c-8 -16 -20 -33.333 -36 -52c-8.66699 -10 -20 -24.333 -34 -43c-7.33301 -9.33301 -11.666 -15 -12.999 -17c-5.33301 -4.66699 -8 -11 -8 -19c0 -1.33301 2.66699 -3 8 -5
c8 -21.333 20 -32 36 -32h1c34 0 58.667 11.667 74 35c17.333 22.667 54 42.334 110 59.001c54.667 16.667 102.334 27.334 143.001 32.001c2.66699 0 5.33398 0.333008 8.00098 1h6c-2.66699 0 -4 2.66699 -4 8c2 -6 4 -13 6 -21c4 -26 7 -65 9 -117
c0 -64.667 -0.333008 -124.334 -1 -179.001c-0.666992 -18.667 -1 -32.667 -1 -42c-4.66699 -104.667 -11 -184.334 -19 -239.001c-9.33301 -48 -18 -77.667 -26 -89c-4 -10.667 -8 -16 -12 -16c-14 0 -21 -12.333 -21 -37c0 -10 2.33301 -16.5 7 -19.5s12.667 -4.5 24 -4.5
c7.33301 0 21 0.666992 41 2c10.667 0.666992 19.334 1 26.001 1c4.66699 0 9.66699 0.333008 15 1c22 0.666992 39 1 51 1c34 0 76 -1.66699 126 -5c12.667 0 21.334 1.83301 26.001 5.5s7 9.83398 7 18.501c0 26 -8 39.333 -24 40c-4.66699 0 -10 6 -16 18
c-9.33301 13.333 -17.666 43.333 -24.999 90c-6.66699 46 -10 125 -10 237c0 101.333 1.66699 174 5 218c3.33301 56 6.66602 95.333 9.99902 118l3 9l4 10c0 -5.33301 -1.33301 -8 -4 -8h6c3.33301 -0.666992 6.33301 -1 9 -1c35.333 -3.33301 81.666 -12.333 138.999 -27
c54.667 -13.333 93 -33.666 115 -60.999c16 -25.333 42 -38 78 -38c13.333 0 25.666 4.66699 36.999 14c8.66699 6 13 13.333 13 22c0 5.33301 -2.66699 11.666 -8 18.999l-14 15l-47 49c-22 21.333 -38 42.333 -48 63c-10 20 -31.333 30 -64 30
c-95.333 -3.33301 -193 -6.33301 -293 -9c-24.667 -1.33301 -63 -2 -115 -2c-70 0 -143.667 2 -221 6z" />
    <glyph glyph-name="U" unicode="U" horiz-adv-x="985" 
d="M670 167c-44 -12 -93.3271 -23.3281 -147.994 -33.9951c-55.333 -10 -100.333 -15.333 -135 -16c-29.333 0 -51.833 1.16699 -67.5 3.5s-27.834 6.16602 -36.501 11.499c-18 12 -28 62.333 -30 151h-2v24c-0.666992 10 -1 19.667 -1 29c0 14.667 0.666992 38 2 70v9
c1.33301 117.333 6 201 14 251c8 52 16.667 86.667 26 104c3.33301 -0.666992 8.33301 -1 15 -1c16.667 0 25 12.667 25 38c0 7.33301 -6.66699 15.333 -20 24c-9.33301 5.33301 -18.666 8 -27.999 8c-40.667 -4 -79.334 -6 -116.001 -6c-32.667 0 -71 2 -115 6
c-22 0 -33 -8.66699 -33 -26c2 -23.333 10.333 -36 25 -38c5.33301 -0.666992 10.333 -7 15 -19c7.33301 -16 13.666 -48.667 18.999 -98c4 -41.333 6 -84.666 6 -129.999c0 -10 -0.333008 -27 -1 -51c-1.33301 -28 -2 -50.333 -2 -67c0 -8.66699 -0.666992 -24 -2 -46
c-1.33301 -19.333 -2 -30 -2 -32c0 -9.33301 -0.666992 -25 -2 -47c-0.666992 -12.667 -1.33398 -23.667 -2.00098 -33h2v-4v-17c2 -92.667 23.333 -155.667 64 -189c19.333 -14.667 41.5 -25.667 66.5 -33s54.833 -11 89.5 -11c66 3.33301 133.333 15.666 202 36.999
c82.667 24 153.334 41 212.001 51c1.33301 2 2.66602 3 3.99902 3c0 0.666992 -1 1 -3 1c-4.66699 -18 -10 -27 -16 -27c-18.667 0 -28 -13 -28 -39c0 -10 2.5 -16.667 7.5 -20s13.167 -5 24.5 -5c43.333 4 82.333 6 117 6c34 0 73 -2 117 -6c21.333 0 32 8.33301 32 25
c0 26 -8.33301 39 -25 39c-4 0 -8.66699 5.66699 -14 17c-8 12 -15.333 42 -22 90c-2 21.333 -3.66699 50.166 -5 86.499s-2 87.166 -2 152.499c2 122 6.33301 206 13 252c7.33301 48.667 14.666 79.667 21.999 93c3.33301 9.33301 6.66602 14 9.99902 14
c15.333 0 23 13 23 39c0 18 -10 27 -30 27c-1.33301 -0.666992 -2.33301 -1 -3 -1c-42.667 -4 -81.334 -6 -116.001 -6c-35.333 0 -74 2 -116 6h-2c-1.33301 0.666992 -3 1 -5 1c-17.333 0 -26 -9 -26 -27c2 -22.667 10 -35 24 -37
c5.33301 -0.666992 10.333 -7.66699 15 -21c7.33301 -14.667 14 -47.334 20 -98.001c3.33301 -19.333 5 -59.333 5 -120c0 -13.333 -0.333008 -31.666 -1 -54.999c-0.666992 -32.667 -1 -56.334 -1 -71.001v-39c-0.666992 -26.667 -1 -53.334 -1 -80.001
c0 -13.333 0.333008 -30.333 1 -51v-38c0 -12.667 -19.667 -22.667 -59 -30z" />
    <glyph glyph-name="V" unicode="V" horiz-adv-x="1025" 
d="M647 203c8.66699 20.667 23.334 51.0029 44.001 91.0029c15.333 26 35 65.667 59 119c53.333 117.333 93.333 199.333 120 246c26.667 46 46.667 76.333 60 91c10.667 12 18.334 18 23.001 18c12 0 27.333 11.333 46 34c4 4 6 9.33301 6 16c0 12.667 -10.333 19 -31 19
c-18.667 -2.66699 -37.334 -4 -56.001 -4c-12 -0.666992 -30.333 -1 -55 -1h-68c-27.333 0 -49 1.33301 -65 4c-25.333 0 -38 -7.66699 -38 -23c-2 -4 -3 -8.66699 -3 -14c0 -16.667 9 -25 27 -25c8.66699 0 15 -5.33301 19 -16c2 -2.66699 3 -8.33398 3 -17.001
c0 -14.667 -4.33301 -39.334 -13 -74.001c-14.667 -56.667 -49 -140 -103 -250c-10 -20 -23 -48.667 -39 -86c-12.667 -28 -24.334 -52.333 -35.001 -73c-2 -10.667 -3.66699 -16 -5 -16c-4 2.66699 -8.33301 9.33398 -13 20.001l-7 13
c-11.333 22.667 -19.666 40 -24.999 52c-6 15.333 -14.667 34.666 -26 57.999c-3.33301 8 -7 16.333 -11 25c-63.333 120 -103.666 206.333 -120.999 259c-11.333 36 -17 62 -17 78c0 2.66699 0.333008 5.66699 1 9c0.666992 2.66699 1 4.33398 1 5.00098
c3.33301 5.33301 8.66602 8 15.999 8c18 0 27 8 27 24c0 3.33301 -1.33301 9 -4 17l-1 3c-3.33301 8.66699 -7.83301 14.667 -13.5 18s-14.167 5 -25.5 5c-18.667 -2 -44.334 -3 -77.001 -3c-22.667 -0.666992 -48.667 -1 -78 -1c-34.667 0 -74.667 2 -120 6
c-11.333 0 -19 -0.833008 -23 -2.5s-6 -6.83398 -6 -15.501c0 -6 2 -11.333 6 -16c13.333 -18.667 25 -28 35 -28c6.66699 0 15.334 -7 26.001 -21c14 -12 37.333 -45.667 70 -101c32.667 -56.667 77 -144.334 133 -263.001c10 -24 25.333 -58.333 46 -103
c14 -30.667 24.333 -54 31 -70l52 -120l22 -51c10.667 -35.333 32 -53 64 -53c24.667 0 46.334 17 65.001 51c2.66699 5.33301 6.66699 14 12 26l3 6c10 24 17.667 43.333 23 58l16 27c5.33301 9.33301 8.66602 15.333 9.99902 18c7.33301 14 11.666 21.667 12.999 23z" />
    <glyph glyph-name="W" unicode="W" horiz-adv-x="1339" 
d="M485 301l-1.00391 -6.00293c0 -4 -0.333008 -6 -1 -6s-1 1.66699 -1 5l-1 5c-0.666992 2 -2 5.33301 -4 10c-6.66699 16 -11.334 28.333 -14.001 37c-6 18 -15.667 39.333 -29 64c-56 119.333 -92.333 207 -109 263c-9.33301 36 -14 62.667 -14 80
c0 2.66699 0.333008 6 1 10c0.666992 3.33301 1 5.33301 1 6c2.66699 8.66699 7.33398 13 14.001 13c16 0 24 7 24 21c0 3.33301 -1 9 -3 17c0 1.33301 -0.333008 3 -1 5c0 4.66699 -2.33301 8.5 -7 11.5s-9.33398 4.5 -14.001 4.5l-7 -3
c-1.33301 -0.666992 -2.66602 -1 -3.99902 -1l-4 -2c-11.333 -0.666992 -36.333 -1 -75 -1h-79c-13.333 0 -30.666 0.666992 -51.999 2l-17 2c-17.333 2.66699 -30 4.33398 -38 5.00098c-20 0 -30 -6.66699 -30 -20c0 -0.666992 0.333008 -2 1 -4
c0.666992 -2.66699 1 -5 1 -7c24.667 -30 41.667 -45 51 -45c5.33301 0 11.666 -4.33301 18.999 -13c10 -12.667 27.333 -43.667 52 -93c29.333 -64 68.333 -154 117 -270l76 -171l51 -127l17 -44c12 -35.333 36 -53 72 -53c26.667 0 49 16.667 67 50h-11
c24 82.667 45.333 153 64 211c25.333 82.667 46.666 158.667 63.999 228c0 2 1 4 3 6c-2 0 -4 -2 -6 -6c14 -36.667 34 -92 60 -166c4 -12.667 10.333 -31.334 19 -56.001l56 -160l22 -63c14 -28 36 -42 66 -42c28.667 0.666992 50.334 18 65.001 52l18 47
c4 13.333 7.33301 23 10 29l14 39l4 13c6.66699 15.333 10 23.666 10 24.999c7.33301 16 19.666 45.667 36.999 89c20 50 37.333 90.333 52 121c56.667 125.333 95.334 207.333 116.001 246c24.667 49.333 41.667 80.333 51 93c6.66699 10.667 11.334 16 14.001 16
c7.33301 0 21 11.333 41 34c4 4 6 9.33301 6 16c0 8 -2.33301 13.167 -7 15.5s-13 3.5 -25 3.5c-16.667 -2.66699 -35 -4 -55 -4c-11.333 -0.666992 -29.333 -1 -54 -1c-36.667 0 -72 2 -106 6c-13.333 0 -22.666 -1.83301 -27.999 -5.5s-8.66602 -10.5 -9.99902 -20.5
c0 -1.33301 -0.333008 -3.33301 -1 -6c-0.666992 -2 -1 -3.66699 -1 -5c0 -17.333 9 -26 27 -26c9.33301 -1.33301 16 -7.66602 20 -18.999c1.33301 -3.33301 2 -9.33301 2 -18c0 -14.667 -4.33301 -40.334 -13 -77.001c-16 -56.667 -50 -140 -102 -250
c-16 -32 -26.667 -55.667 -32 -71c-4 -11.333 -9.33301 -25.666 -16 -42.999l-6 -17c2 -4 4 -6 6 -6l-2 -1c-1.33301 0.666992 -2.33301 2.33398 -3 5.00098l-1 1l-85 249c-28 80.667 -54 164 -78 250c-4.66699 16 -12.334 31 -23.001 45c-12.667 14.667 -27 22 -43 22
c-19.333 0 -34.666 -13 -45.999 -39c-9.33301 -9.33301 -15.666 -20.666 -18.999 -33.999c-11.333 -61.333 -31.333 -138.666 -60 -231.999c-4 -12.667 -7.66699 -25 -11 -37z" />
    <glyph glyph-name="X" unicode="X" horiz-adv-x="1049" 
d="M700 838c-18.667 0 -32.3369 -6.33301 -41.0039 -19c-6.66699 -10 -10 -17.667 -10 -23c0 -12.667 7.33301 -20 22 -22c12.667 -3.33301 22.334 -9.66602 29.001 -18.999c1.33301 -1.33301 2 -4.33301 2 -9c0 -6.66699 -3.33301 -19 -10 -37
c-15.333 -32 -54.666 -79.667 -117.999 -143c-10 -12 -17.333 -18 -22 -18c-7.33301 4 -15.333 11 -24 21c-62 66.667 -100.667 116 -116 148c-8.66699 17.333 -13 31.666 -13 42.999c0 2 0.666992 3.66699 2 5c4.66699 8 11 12.333 19 13c15.333 0 23 6.33301 23 19
c0 6 -3.33301 13.333 -10 22c-11.333 12.667 -25.666 19 -42.999 19c-16.667 -2.66699 -42 -4.66699 -76 -6c-34 -2 -59.667 -3 -77 -3c-41.333 0 -82 2.33301 -122 7c-12.667 0 -21 -7 -25 -21c0 -13.333 2 -22 6 -26c18.667 -16.667 32.334 -25 41.001 -25
c4.66699 0 13.334 -5.33301 26.001 -16c13.333 -10.667 40.333 -37.667 81 -81c42 -47.333 102 -118.666 180 -213.999c5.33301 -7.33301 8 -13.666 8 -18.999c0 -6.66699 -3.66699 -12.667 -11 -18c-104 -113.333 -176.667 -190.333 -218 -231
c-48.667 -48.667 -82.667 -80 -102 -94c-18.667 -16 -30.334 -24.667 -35.001 -26c-8 -2 -21 -12.667 -39 -32c-0.666992 -1.33301 -1.66699 -3.66602 -3 -6.99902c-2.66699 -4 -4 -7 -4 -9c0 -6.66699 2 -10.834 6 -12.501s11 -2.5 21 -2.5
c11.333 0 25.666 0.666992 42.999 2l12 1c21.333 1.33301 38.666 2 51.999 2c18.667 0 45 -1 79 -3c22 -1.33301 48 -3.66602 78 -6.99902c17.333 0 30.666 5.66699 39.999 17c10.667 10.667 16 19.667 16 27c0 13.333 -9 20 -27 20c-11.333 0 -19.333 4.33301 -24 13v3
c0 11.333 7.33301 30.666 22 57.999c22 38 77 103 165 195c3.33301 6 7.66602 9 12.999 9c4 0 8 -3 12 -9c80 -92 128.667 -156 146 -192c13.333 -26.667 20 -46.334 20 -59.001c0 -2 -0.666992 -4.33301 -2 -7c-4.66699 -8 -12 -12 -22 -12c-16.667 0 -25 -7 -25 -21
c0 -4 3.33301 -11.333 10 -22l1 -2c7.33301 -12 21 -18 41 -18c28.667 3.33301 59 5.66602 91 6.99902c44 2 75 3 93 3c32.667 0 73.334 -1.66699 122.001 -5c10 0 16.833 0.833008 20.5 2.5s5.5 6.16699 5.5 13.5c0 4.66699 -2 10 -6 16c-15.333 18 -30 30 -44 36
c-4.66699 2.66699 -16.667 11.667 -36 27c-6 4 -9.33301 6.33301 -10 7c-13.333 11.333 -41.666 39.666 -84.999 84.999l-13 13c-35.333 38 -98 111.667 -188 221c-10 11.333 -15 22 -15 32c0 8.66699 4 18 12 28c94 102 158 169 192 201c40.667 38.667 68.334 63 83.001 73
c13.333 9.33301 23.666 14 30.999 14c3.33301 1.33301 8.33301 4.5 15 9.5s13.334 11.833 20.001 20.5c5.33301 8.66699 8 14.334 8 17.001c0 12 -9.33301 18 -28 18c-40 -4.66699 -80 -7 -120 -7c-19.333 0 -43.666 1 -72.999 3c-28.667 2 -52.667 4 -72 6z" />
    <glyph glyph-name="Y" unicode="Y" horiz-adv-x="1045" 
d="M741 839c-20.667 0 -34.333 -6.67285 -41 -20.0059c-2.66699 -6 -4 -12.333 -4 -19c0 -8 2.16699 -14.333 6.5 -19s11.5 -7 21.5 -7c10.667 -0.666992 18 -7 22 -19c0 -1.33301 0.333008 -3 1 -5c0.666992 -2.66699 1 -4.66699 1 -6c0 -18.667 -9 -46.667 -27 -84
c-21.333 -49.333 -76.666 -131.333 -165.999 -246c-9.33301 -15.333 -16.333 -23 -21 -23s-9.66699 4 -15 12c-2 -1.33301 -4.33301 -3.33301 -7 -6c0 1.33301 -1 5.33301 -3 12c-1.33301 6 -2.33301 9.66699 -3 11c-84 122.667 -137.333 207.334 -160 254.001
c-19.333 36.667 -29 66.667 -29 90c1.33301 6.66699 6 10 14 10c20.667 0 31 8.66699 31 26c0 2 -0.333008 4.33301 -1 7c-0.666992 4 -1 7 -1 9c-6 15.333 -20.667 23 -44 23c-22 -2.66699 -46.667 -4.33398 -74 -5.00098c-32 -2 -57.333 -3 -76 -3
c-14 0 -31 0.666992 -51 2h-3c-20.667 1.33301 -37.667 3 -51 5c-6 0 -15 -2.33301 -27 -7c-9.33301 -7.33301 -14 -14.666 -14 -21.999l3 -6c14 -20 27.333 -34 40 -42c16 -10.667 31 -23.667 45 -39c20 -19.333 47.333 -52.666 82 -99.999
c28.667 -38 76 -111.667 142 -221l43 -72l34 -59c6 -10 9 -18.333 9 -25v-2c-2 -2.66699 -4.66699 -7 -8 -13l-8 -12c-38 -58.667 -67 -100 -87 -124c-17.333 -10 -31 -16.333 -41 -19c-7.33301 -5.33301 -13.333 -8.66602 -18 -9.99902c-8 -0.666992 -19.333 -8 -34 -22
c-3.33301 -3.33301 -5 -8.66602 -5 -15.999c0 -4.66699 0.666992 -9 2 -13c3.33301 -4.66699 6.5 -7.83398 9.5 -9.50098s8.16699 -2.5 15.5 -2.5c8.66699 0 22.334 0.666992 41.001 2l20 1h6c23.333 1.33301 41 2 53 2c21.333 0 43.666 -1.33301 66.999 -4
c10 -1.33301 22.333 -2.66602 37 -3.99902c11.333 -2 21.333 -3.33301 30 -4c17.333 0 30.666 5.66699 39.999 17c6.66699 6.66699 10 15.334 10 26.001c0 16 -9 24 -27 24c-10.667 1.33301 -18 8.33301 -22 21v7c0 17.333 8 44.333 24 81c20 44.667 72.667 125 158 241
l189 244c2.66699 4 4.66699 6.66699 6 8c39.333 48 67.333 79.333 84 94c12 12 20 18 24 18c6 0 18 10.667 36 32c3.33301 4 5 8.66699 5 14c0 12.667 -8.66699 19 -26 19c-23.333 -1.33301 -44 -3.66602 -62 -6.99902c-18.667 -2 -37.667 -3 -57 -3
c-22 0 -45.333 1.33301 -70 4c-6 0.666992 -23 1.66699 -51 3z" />
    <glyph glyph-name="Z" unicode="Z" horiz-adv-x="987" 
d="M243 836c-22 -1.33301 -44 -15.0039 -66 -41.0039c-6 -11.333 -15 -27.333 -27 -48l-9 -16c-11.333 -10 -25 -20.667 -41 -32c-11.333 -11.333 -17 -24 -17 -38c3.33301 -16.667 15 -25 35 -25c14.667 0 30.334 5.66699 47.001 17c14 9.33301 26.333 19.333 37 30
c20.667 17.333 67.667 35 141 53c57.333 14 123.666 21 198.999 21c26 0 53 -1 81 -3c0.666992 0 4.66699 -0.666992 12 -2l15 -2c0.666992 0 1 0.666992 1 2c0 -2 -2 -4.66699 -6 -8c-42.667 -58.667 -81.667 -108 -117 -148l-43 -50l-86 -100
c-50 -59.333 -107.333 -123.333 -172 -192c-59.333 -64.667 -122.333 -126.334 -189 -185.001c-12 -13.333 -18 -24.666 -18 -33.999c0 -2 0.666992 -4.33301 2 -7c0.666992 -2.66699 1 -5 1 -7c7.33301 -17.333 21.666 -26 42.999 -26
c42.667 2.66699 87.834 4.5 135.501 5.5s116.5 1.5 206.5 1.5l115 -1c102 -1.33301 178.667 -2 230 -2c12 0 21.667 0.666992 29 2s13.666 3 18.999 5c12 6.66699 23.333 16.334 34 29.001l6 6c19.333 20.667 32.333 34 39 40c14.667 14.667 33.334 29.334 56.001 44.001
c16.667 12 27 27.667 31 47c0 25.333 -15 38 -45 38c-16.667 0 -32 -6 -46 -18c-8 -6.66699 -18.667 -14.667 -32 -24c-32 -19.333 -73 -35.333 -123 -48c-46.667 -12.667 -92 -21.667 -136 -27c-53.333 -6 -91.333 -9.33301 -114 -10c-32 -2 -49.667 -3 -53 -3
c-30 0 -51.667 0.333008 -65 1c-13.333 0 -28.333 -0.333008 -45 -1h-18c0.666992 0 1 -1 1 -3c0.666992 1.33301 1 2.33301 1 3c1.33301 3.33301 2.33301 5.33301 3 6c41.333 56.667 83 108.667 125 156l135 156c63.333 76.667 117.333 139.334 162 188.001
c44.667 50.667 103.667 111.334 177 182.001c17.333 17.333 26 31 26 41c0 16.667 -12.667 25 -38 25c-13.333 0 -45 -0.333008 -95 -1c-17.333 -0.666992 -36 -1 -56 -1l-212 -3c-71.333 0 -128 -0.333008 -170 -1h-22c-52.667 1.33301 -80.667 4 -84 8z" />
    <glyph glyph-name="bracketleft" unicode="[" horiz-adv-x="182" 
d="M162 848v58h-142v-979h142v60h-74v861h74z" />
    <glyph glyph-name="backslash" unicode="\" horiz-adv-x="477" 
d="M87 805h-67l370 -783h67z" />
    <glyph glyph-name="bracketright" unicode="]" horiz-adv-x="182" 
d="M20 848h75v-861h-75v-60h142v979h-142v-58z" />
    <glyph glyph-name="underscore" unicode="_" horiz-adv-x="714" 
d="M20 -13v-51h674v51h-674z" />
    <glyph glyph-name="grave" unicode="`" horiz-adv-x="160" 
d="M20 836l39.999 -79c16.667 -34.667 35.334 -52 56.001 -52c16 0 24 8 24 24c0 10.667 -4.33301 23.667 -13 39l-35 68h-72z" />
    <glyph glyph-name="a" unicode="a" horiz-adv-x="749" 
d="M80 498c-5.33301 -5.33301 -8 -12.002 -8 -20.002c0 -10 6.33301 -20.333 19 -31c7.33301 -5.33301 17 -10 29 -14c4.66699 -1.33301 9.66699 -2 15 -2c4.66699 0 9.33398 0.833008 14.001 2.5s7 3.83398 7 6.50098c46.667 36.667 111 55 193 55
c30.667 -1.33301 59.334 -4 86.001 -8c29.333 -4 47.333 -10.667 54 -20c6 -10 9.66699 -20.333 11 -31c0 -14 -11 -21 -33 -21c-6 0.666992 -14.667 1 -26 1c-6.66699 1.33301 -16 2 -28 2c-107.333 0 -199 -14 -275 -42c-78.667 -30 -118 -96 -118 -198
c0 -81.333 44 -135 132 -161c37.333 -12.667 79.666 -19 126.999 -19c52 0 100.333 7.33301 145 22c9.33301 2.66699 19.666 7.33398 30.999 14.001c4 2.66699 11.333 6.33398 22 11.001l5 2c2.66699 1.33301 6.33398 3 11.001 5h1c-6 0 -9 2 -9 6v-2
c-0.666992 -1.33301 -1 -2.33301 -1 -3l-2 -18c0 -6.66699 2 -13.667 6 -21c4.66699 -8 13 -12 25 -12c10.667 1.33301 23.667 2 39 2c5.33301 -0.666992 19.333 -1 42 -1c24.667 0 42 -0.333008 52 -1c5.33301 0 15 -1 29 -3c9.33301 -0.666992 16 -1.33398 20 -2.00098
c22.667 0 34 6.66699 34 20c0 4.66699 -1.66699 9.33398 -5 14.001c-4.66699 17.333 -13 27.666 -25 30.999c-4.66699 1.33301 -9 4.66602 -13 9.99902c-6.66699 8 -12.334 22.333 -17.001 43c-4 28.667 -6.33301 68.667 -7 120c2 61.333 3 108.333 3 141
c0.666992 22.667 1 47 1 73c1.33301 8 2.33301 15 3 21v4c0.666992 2 1 5.66699 1 11c0 10.667 -1.33301 17.334 -4 20.001v2c-56 28 -109.333 47 -160 57c-52.667 12 -103 18 -151 18c-92 0 -183.667 -28 -275 -84zM477 348.998c4 0 9.66602 -1.33301 16.999 -4
c2.66699 -0.666992 4 -6.66699 4 -18v-13c-0.666992 -6.66699 -1 -11 -1 -13c-0.666992 -6 -1.66699 -15.667 -3 -29c-0.666992 -7.33301 -1 -16 -1 -26c-0.666992 -14 -1 -22.667 -1 -26c0 -10.667 -0.666992 -24.667 -2 -42c-1.33301 -12 -2.66602 -21.667 -3.99902 -29
c-0.666992 -6 -5.66699 -11.667 -15 -17l-4 -2l-12 -6c-4.66699 -3.33301 -9.66699 -6 -15 -8c-42 -18 -77.667 -27 -107 -27c-22 0 -42.333 4.66699 -61 14c-40 22 -60 53 -60 93c0 41.333 18.333 76.333 55 105c41.333 31.333 111.333 47.333 210 48z" />
    <glyph glyph-name="b" unicode="b" horiz-adv-x="758" 
d="M310 1c8 0 14.3389 -0.664062 19.0059 -1.99707h24c109.333 0 200.333 28.333 273 85c74.667 58.667 112 133 112 223c0 92.667 -36.333 162 -109 208c-70.667 44.667 -149.667 68 -237 70c-45.333 0 -74 -6 -86 -18c-10.667 -7.33301 -25 -12 -43 -14
c-2 0 -3 2.33301 -3 7c0.666992 23.333 1 37.333 1 42c1.33301 58 2.66602 95 3.99902 111c0 4.66699 0.333008 13.667 1 27c0 14 0.333008 22.667 1 26c-4 1.33301 -7 2 -9 2c4.66699 0 10.667 12 18 36c0 11.333 -3 19.166 -9 23.499s-15.667 6.5 -29 6.5
c-12 -1.33301 -21.333 -2 -28 -2c-6 0.666992 -15 1 -27 1h-62c-22 0 -43 1 -63 3c-8.66699 0 -16.334 -1.66699 -23.001 -5c-6.66699 -2 -10.834 -4.66699 -12.501 -8s-2.5 -9 -2.5 -17c9.33301 -20 21.666 -30 36.999 -30c6.66699 0 12 -5.33301 16 -16
c7.33301 -13.333 13.666 -45 18.999 -95c3.33301 -34.667 5 -77.667 5 -129c0 -14 -0.333008 -33 -1 -57c-0.666992 -33.333 -1 -57.333 -1 -72c-4 -114.667 -8.33301 -193.334 -13 -236.001c-5.33301 -48 -10.666 -78.667 -15.999 -92
c-2.66699 -11.333 -5.33398 -17.333 -8.00098 -18c-10.667 -0.666992 -20 -13 -28 -37c0 -0.666992 -0.666992 -1.33398 -2 -2.00098c0 -10 2.83301 -16.667 8.5 -20s14.5 -5 26.5 -5c7.33301 0.666992 14.666 1.16699 21.999 1.5s19.333 0.5 36 0.5
c12.667 -0.666992 31.667 -1 57 -1c11.333 0 29.333 1 54 3c2 0 8 0.333008 18 1h19h21c11.333 -0.666992 18 -1 20 -1zM266.006 475.003c35.333 18 64.998 27.0029 88.998 27.0029c56.667 0 102.667 -13.333 138 -40c18 -12.667 31 -33.334 39 -62.001
s12 -66.334 12 -113.001c-6 -86 -27.667 -142.333 -65 -169c-40.667 -27.333 -88 -42.666 -142 -45.999h-17c-2.66699 0.666992 -5.66699 1 -9 1c-4 0 -7.33301 0.333008 -10 1c-24 3.33301 -38 21.666 -42 54.999c-1.33301 20.667 -2.66602 56.334 -3.99902 107.001
c0 36 0.333008 74 1 114c0.666992 29.333 1 49.666 1 60.999v24v23c0 3.33301 0.333008 6.66602 1 9.99902c0.666992 2.66699 3.33398 5 8.00098 7z" />
    <glyph glyph-name="c" unicode="c" horiz-adv-x="653" 
d="M591 205c-14.667 0 -29.668 -10.667 -45.001 -32c-19.333 -22.667 -42.666 -38.334 -69.999 -47.001c-32 -12 -63.333 -18.333 -94 -19c-52 0 -98 21.667 -138 65c-40.667 44 -62.667 86 -66 126c0 12 0.666992 27.333 2 46v6c4 22.667 11 45.334 21 68.001
c12 22.667 29 41.667 51 57c20.667 16.667 49.334 25 86.001 25c22.667 0 41.667 -4.66699 57 -14c17.333 -10 30.333 -20 39 -30c10.667 -9.33301 16 -16.333 16 -21c0 2 0.666992 3.66699 2 5c-11.333 -6 -17 -23.333 -17 -52c0 -12.667 5.66699 -22 17 -28
c3.33301 -3.33301 9.33301 -5 18 -5c6.66699 0 13 2.33301 19 7c6 3.33301 14.667 9 26 17l22 14c15.333 10 30.666 17 45.999 21c22 7.33301 33 24.333 33 51c0 8.66699 -9 21 -27 37c-2 1.33301 -3.33301 2.33301 -4 3c-15.333 11.333 -24.666 18.333 -27.999 21
c-50 38 -113.667 57 -191 57c-83.333 0 -161.666 -28.333 -234.999 -85c-74 -58.667 -111 -128.667 -111 -210c0 -80 30.333 -149.333 91 -208c58.667 -56.667 140.667 -85 246 -85c50 1.33301 95.333 12.333 136 33c42 21.333 78.667 47 110 77
c-0.666992 0 -1.33398 -0.333008 -2.00098 -1c2 0 4 1.33301 6 4c1.33301 1.33301 2.66602 3 3.99902 5l1 1c2 0.666992 6.66699 8.33398 14 23.001c4.66699 10.667 7 17.667 7 21s-0.666992 6.66602 -2 9.99902c-4 24.667 -17.333 37 -40 37z" />
    <glyph glyph-name="d" unicode="d" horiz-adv-x="755" 
d="M452 542c-2.66699 1.33301 -5.66602 2.66797 -8.99902 4.00098l-42 16c-18 8 -40.667 12.333 -68 13c-97.333 0 -173.333 -30.333 -228 -91c-56.667 -63.333 -85 -134.666 -85 -213.999c0 -80.667 29 -146.667 87 -198c56 -52.667 121.667 -79 197 -79
c38 0 80.333 11 127 33c6.66699 3.33301 15.667 7.33301 27 12c9.33301 4 15.333 6.66699 18 8h-1c1.33301 0 2.33301 -5 3 -15c0 -6.66699 5.66699 -14.667 17 -24c12 -6.66699 21.333 -10 28 -10c5.33301 1.33301 10.666 2 15.999 2c0 -0.666992 13.667 -1 41 -1
c26 0 45.667 0.333008 59 1c12 0 25 -0.333008 39 -1c8.66699 -0.666992 15 -1 19 -1c6.66699 0 15.667 4.66699 27 14c7.33301 9.33301 11 17.666 11 24.999l-3 -6c-6.66699 22 -18.667 33 -36 33c-8 0 -15 5.33301 -21 16c-8.66699 13.333 -16.667 44.666 -24 93.999
c-4 35.333 -6 86.666 -6 153.999c0 3.33301 0.333008 16 1 38v46c0.666992 75.333 2 153.333 4 234v20c0 22.667 0.333008 47.667 1 75v22v18c1.33301 6 3 15.333 5 28c0 20.667 -10.333 31 -31 31h-4l-4 -1c-16 -1.33301 -29.333 -3.66602 -40 -6.99902
c-6.66699 -1.33301 -17.667 -2 -33 -2c-14.667 0 -32 0.666992 -52 2l-17 2c-17.333 2.66699 -30 4.33398 -38 5.00098c-7.33301 0 -15.666 -2.66699 -24.999 -8c-8 -5.33301 -12 -14 -12 -26c10 -20 23.333 -30 40 -30c8.66699 0 17 -4 25 -12
c7.33301 -6.66699 13.666 -24.334 18.999 -53.001c3.33301 -12 5 -37.667 5 -77c0 -8.66699 -0.333008 -20.667 -1 -36c-0.666992 -22 -1 -38 -1 -48c0 -6.66699 -2 -11.667 -6 -15v2c-7.33301 0 -17 2.33301 -29 7zM480.001 217.002l-0.00292969 -46.001
c-0.666992 -10 -7 -21.333 -19 -34c-25.333 -23.333 -56.333 -35 -93 -35h-9c-5.33301 0.666992 -9.66602 1 -12.999 1c-42.667 5.33301 -78.667 23 -108 53s-48 76.667 -56 140c-1.33301 7.33301 -2 18.333 -2 33c0 44.667 14.667 81 44 109
c36.667 35.333 78.667 53 126 53c40.667 0 75.334 -11.333 104.001 -34c13.333 -10.667 22.333 -20 27 -28c4 -9.33301 6 -19.666 6 -30.999c-1.33301 -34 -2.66602 -65.333 -3.99902 -94c-1.33301 -36.667 -2.33301 -65.667 -3 -87z" />
    <glyph glyph-name="e" unicode="e" horiz-adv-x="651" 
d="M251 178c39.333 30 79.332 58.998 119.999 86.998l74 50l58 39v2l75 56c6.66699 5.33301 11.667 12.333 15 21c0 0.666992 0.333008 2.33398 1 5.00098v4c0 10 -5 20.333 -15 31c-28.667 32 -62 57.667 -100 77c-41.333 20 -84.666 30.333 -129.999 31
c-69.333 0 -139.333 -26 -210 -78c-77.333 -54 -117 -125.667 -119 -215c0 -90.667 32 -161.667 96 -213c63.333 -53.333 140.666 -80 231.999 -80c48.667 1.33301 97 14.333 145 39c50.667 24 90.667 56.333 120 97l4 12l3 12c3.33301 -2 5.33301 -3.33301 6 -4
c3.33301 4.66699 5 11.667 5 21c0 18.667 -9.33301 30.667 -28 36c-4 2 -9.66699 3 -17 3c-5.33301 0 -13.666 -2 -24.999 -6l-5 -2c-15.333 -8 -25.666 -17.333 -30.999 -28c-11.333 -18 -27 -32.333 -47 -43c-18.667 -12 -43.334 -19 -74.001 -21
c-58 0 -108.333 16.333 -151 49c-6 4 -9 7.33301 -9 10s2.33301 5.33398 7 8.00098zM395.999 395.998c-33.333 -29.333 -65 -53.6641 -95 -72.9971c-31.333 -21.333 -64.333 -45.333 -99 -72c-2.66699 -2.66699 -6.33398 -4 -11.001 -4c-3.33301 0 -7 2 -11 6
c-10 9.33301 -15 22 -15 38c0 47.333 10.667 91.666 32 132.999c19.333 40 61 60 125 60c27.333 0 46 -5 56 -15c12.667 -14 23.334 -30 32.001 -48c2 -2.66699 3 -5.66699 3 -9c0 -0.666992 -0.333008 -1.33398 -1 -2.00098c-8 -6.66699 -13.333 -11.334 -16 -14.001z" />
    <glyph glyph-name="f" unicode="f" horiz-adv-x="522" 
d="M499 758c-14 53.333 -61.0068 79.9951 -141.007 79.9951c-38.667 0 -83.667 -14.333 -135 -43c-35.333 -21.333 -63.666 -41.333 -84.999 -60c-10.667 -14 -16 -28 -16 -42c0 -3.33301 1 -8.66602 3 -15.999c0.666992 -4 1.33398 -7.33301 2.00098 -10l1 -5
c0.666992 -7.33301 1.66699 -20.333 3 -39c1.33301 -20 2 -37 2 -51c0 -5.33301 -3.66699 -8 -11 -8c-5.33301 0.666992 -13 1 -23 1h-20c-9.33301 0 -18.666 -2.66699 -27.999 -8c-9.33301 -6 -15.666 -13 -18.999 -21c-4.66699 -8.66699 -7.66699 -13.667 -9 -15
c0 -4.66699 -0.666992 -8.66699 -2 -12v-5c-0.666992 -2.66699 -1 -4.33398 -1 -5.00098c0 -5.33301 2 -11 6 -17c6 -6.66699 14.667 -10 26 -10c7.33301 0 22.666 0.333008 45.999 1l19 1c11.333 0 17 -4 17 -12v-26v-29c-2 -99.333 -5.33301 -178 -10 -236
c-6.66699 -48 -13.667 -78.333 -21 -91c-4.66699 -12 -10 -18.667 -16 -20c-12 -0.666992 -22.667 -12.667 -32 -36c0 -0.666992 -0.333008 -1.66699 -1 -3s-1 -2.66602 -1 -3.99902c0 -13.333 11.333 -20 34 -20c18 2.66699 37.333 4 58 4h57h58
c22 0 41.333 -1.33301 58 -4c23.333 0 35 8.66699 35 26l-1 1c-7.33301 20.667 -16.666 31.334 -27.999 32.001c-4 0.666992 -7.66699 7.33398 -11 20.001c-6.66699 18.667 -12.334 51 -17.001 97c-2.66699 48 -4 100 -4 156c0 3.33301 0.333008 15.666 1 36.999v45v28v26
c0 3.33301 -1.33301 5 -4 5c4 1.33301 8.66699 2 14 2c2.66699 0 9.33398 -0.333008 20.001 -1c6.66699 0 13 -0.333008 19 -1c18.667 -1.33301 32.667 -2 42 -2c10.667 0 20.667 2.66699 30 8c8.66699 6.66699 15.334 14 20.001 22c0 2.66699 0.333008 4.66699 1 6
s1.66699 3 3 5c0.666992 0.666992 1 1.33398 1 2.00098c0.666992 1.33301 1.33398 3.33301 2.00098 6c0.666992 2 1.33398 3.66699 2.00098 5c0 1.33301 0.333008 3 1 5l1 2c0 0.666992 0.333008 2.33398 1 5.00098v4c0 6 -1.66699 11 -5 15c-4.66699 8 -13.667 12 -27 12
c-40.667 0 -78.667 -1 -114 -3c-4 0 -6 1 -6 3v3c1.33301 28 2 47.333 2 58v42l6 6c-4 0.666992 -6 3.33398 -6 8.00098c0 36 2.33301 58.667 7 68c4 -4.66699 8 -7 12 -7c4.66699 0 8.33398 -5 11.001 -15c6 -15.333 9 -30.666 9 -45.999v-2v-1
c0 -0.666992 -0.333008 -1.33398 -1 -2.00098c-0.666992 -1.33301 -1 -2.33301 -1 -3c0 -4 1.16699 -8.16699 3.5 -12.5s4.83301 -6.5 7.5 -6.5c7.33301 -5.33301 14.333 -8 21 -8c1.33301 0 3.66602 0.333008 6.99902 1c2 0.666992 3.66699 1 5 1
c15.333 5.33301 25.333 10 30 14c12 9.33301 22 15.666 30 18.999l20 9c8.66699 4 15 6.66699 19 8c17.333 8 26 24 26 48c0 2.66699 -1 6.33398 -3 11.001z" />
    <glyph glyph-name="g" unicode="g" horiz-adv-x="802" 
d="M143 75c-4 -6 -11.0039 -9.6709 -21.0039 -11.0039c-14.667 -3.33301 -31 -13.333 -49 -30c-14.667 -13.333 -22 -28.666 -22 -45.999c0 -0.666992 0.333008 -3 1 -7v-7c8 -42 38 -79 90 -111c51.333 -29.333 120.333 -44 207 -44c81.333 0 151 19.333 209 58
c58.667 38.667 91.334 75.667 98.001 111c1.33301 0.666992 2.33301 2.66699 3 6c1.33301 4 3 8.66699 5 14s3.66699 10 5 14c2.66699 6 7 15 13 27c0 1.33301 0.333008 3.33301 1 6c0.666992 2 1 3.66699 1 5c0 14.667 -11 25 -33 31
c-9.33301 1.33301 -20.333 3.33301 -33 6l-18.999 4c-7.33301 1.33301 -15 3 -23 5s-16 3.66699 -24 5c-2 0.666992 -6.33301 1.66699 -13 3l-71 14l-72 14l-35 7c-33.333 6.66699 -69 13.334 -107 20.001c-0.666992 0.666992 -1 2.33398 -1 5.00098
c1.33301 -0.666992 3.33301 -1 6 -1c7.33301 0.666992 17 1 29 1c10.667 -0.666992 25.667 -1.66699 45 -3c6 -0.666992 10 -1 12 -1c3.33301 0 7.66602 -0.333008 12.999 -1h10c79.333 0 147 17.667 203 53c65.333 41.333 98 91.333 98 150
c0 40.667 -16.667 77.667 -50 111l-1 1c-1.33301 0 -2 0.333008 -2 1h3c0.666992 0.666992 1.66699 1 3 1c10 0 20.333 -8 31 -24c0.666992 -1.33301 2 -3 4 -5c2 -2.66699 3.33301 -4.66699 4 -6c2 -16 11.333 -26 28 -30c15.333 0 30 8.33301 44 25
c8.66699 12.667 17.334 21.667 26.001 27c15.333 11.333 23 22.666 23 33.999c0 8 -3 15 -9 21c-22.667 32 -60 48 -112 48c-30.667 0 -60.334 -8.66699 -89.001 -26c-12.667 -8 -23 -12 -31 -12c-1.33301 0 -2.66602 0.333008 -3.99902 1c-52 26.667 -116 40 -192 40
c-89.333 0 -165.333 -19.333 -228 -58c-64.667 -41.333 -97 -91 -97 -149c0 -36.667 12.667 -68.334 38 -95.001c23.333 -26.667 54.333 -48.667 93 -66l11 -11h3h-2c-3.33301 -3.33301 -10.666 -7.33301 -21.999 -12c-6 -3.33301 -11.333 -6.66602 -16 -9.99902
c-6 -3.33301 -10.333 -5.66602 -13 -6.99902c-10.667 -4.66699 -23.667 -12.667 -39 -24c-6 -5.33301 -15.667 -12 -29 -20l-4 -2c-6 -4 -9 -9.66699 -9 -17c0 -3.33301 3.66699 -10 11 -20c9.33301 -9.33301 19 -14.666 29 -15.999c9.33301 -2 24 -4.33301 44 -7
c0.666992 -0.666992 1.33398 -1 2.00098 -1l1 -1c0.666992 0 3 1 7 3c7.33301 3.33301 13.333 6.33301 18 9zM348.996 509.996c62 0 99.333 -15.334 112 -46.001c13.333 -36 21 -66.667 23 -92c0 -33.333 -12 -67.666 -36 -102.999c-23.333 -19.333 -58.333 -29 -105 -29
c-45.333 2 -78 17 -98 45c-21.333 29.333 -32 58.333 -32 87c0 31.333 7 62.333 21 93c14 30 52.333 45 115 45zM253.996 45.9951c30 0 65 -6.00098 105 -18.001c32 -8.66699 75.667 -19 131 -31l11 -2c0.666992 -1.33301 1 -3.66602 1 -6.99902c0 -19.333 -16 -39 -48 -59
c-34 -22 -74 -33 -120 -33c-46.667 0 -86 8.33301 -118 25c-27.333 14.667 -41.333 30.334 -42 47.001c1.33301 23.333 20 41.666 56 54.999v1c11.333 7.33301 17 16 17 26c0 -0.666992 2.33301 -2 7 -4z" />
    <glyph glyph-name="h" unicode="h" horiz-adv-x="749" 
d="M504 270c0 -6 0.327148 -14.002 0.994141 -24.002v-18c0 -17.333 -0.5 -32 -1.5 -44s-2.5 -25.667 -4.5 -41c-0.666992 -8.66699 -1.33398 -15.334 -2.00098 -20.001c-6.66699 -30 -12.334 -49 -17.001 -57s-8.66699 -12.333 -12 -13
c-10.667 -1.33301 -18.667 -11 -24 -29c0 -8 6.66699 -16.667 20 -26c10.667 -4.66699 19.667 -7 27 -7c10.667 1.33301 25.667 3.33301 45 6c1.33301 0 3.33301 0.333008 6 1c14 2 30.333 3 49 3h53c16.667 0 34 -1.33301 52 -4c22 0 33 9.66699 33 29
c-7.33301 12 -17 21.333 -29 28c-5.33301 2 -10.666 8 -15.999 18c-4 10 -7.66699 30 -11 60v15c-0.666992 7.33301 -1 14 -1 20c0 34 1.66699 68.333 5 103v2v2v4c-0.666992 2.66699 -1 8.33398 -1 17.001v16v17v16c0 43.333 -0.333008 74 -1 92c0 26.667 -3 49 -9 67
c-8.66699 25.333 -21 42.333 -37 51c-18.667 8.66699 -36 14.334 -52 17.001c-8 2 -21.667 3 -41 3c-8 0 -23.667 -0.666992 -47 -2h-4c-47.333 -5.33301 -86.333 -11.666 -117 -18.999c-8.66699 -1.33301 -21 -4.66602 -37 -9.99902l-9 -3
c-6.66699 -2 -11.667 -3.66699 -15 -5c-12.667 -4.66699 -22.667 -8 -30 -10c-1.33301 -0.666992 -3.66602 -1 -6.99902 -1c-1.33301 0 -3.33301 0.333008 -6 1c-1.33301 0.666992 -2.66602 1 -3.99902 1c1.33301 1.33301 2 7 2 17l4 142l1 25c0 14 0.333008 29.667 1 47v14
v2c0.666992 0 1.66699 5.66699 3 17c0.666992 5.33301 1.33398 12 2.00098 20c0 20 -13 30 -39 30c-14 -1.33301 -24 -2.66602 -30 -3.99902c-4.66699 -0.666992 -12.667 -1 -24 -1h-63c-23.333 0 -44 1 -62 3c-23.333 0 -35 -9.33301 -35 -28
c5.33301 -22 16.666 -33 33.999 -33c6.66699 0 12.334 -5.33301 17.001 -16c8.66699 -12 16.667 -44 24 -96c4.66699 -35.333 7 -91 7 -167v-42c-0.666992 -17.333 -1 -33.666 -1 -48.999c-3.33301 -116.667 -8 -196.334 -14 -239.001c-7.33301 -47.333 -14 -77.333 -20 -90
c-4.66699 -11.333 -8.66699 -17.666 -12 -18.999c-11.333 -1.33301 -20.666 -13 -27.999 -35c0 -10.667 2.5 -17.834 7.5 -21.501s13.833 -5.5 26.5 -5.5c7.33301 0.666992 14.5 1.16699 21.5 1.5s18.833 0.5 35.5 0.5c12.667 -0.666992 32.334 -1 59.001 -1
c26 0 45.333 0.333008 58 1c12.667 0 25.667 -0.333008 39 -1c10 -0.666992 16.667 -1 20 -1c12 0 20.5 1.16699 25.5 3.5s7.5 7.5 7.5 15.5v5c-0.666992 2 -1 3.33301 -1 4c-11.333 20 -23.666 31.667 -36.999 35c-7.33301 1.33301 -13.333 8.66602 -18 21.999
c-7.33301 15.333 -12.666 46.666 -15.999 93.999c-2 15.333 -3 45 -3 89c0 40.667 1 89.334 3 146.001c0 2 0.333008 3.66699 1 5c0 0.666992 0.333008 2 1 4v4c0 8.66699 1 14 3 16c4 2.66699 9.66699 5 17 7l2 1l15 4c18 5.33301 33.667 9.66602 47 12.999
c18 2.66699 42 4 72 4c34 0 58 -4 72 -12c15.333 -10.667 23 -43 23 -97c0 -27.333 -1 -49.333 -3 -66v-10v5h-1v-15v-1v-1v-2z" />
    <glyph glyph-name="i" unicode="i" horiz-adv-x="332" 
d="M177 818c-26.667 0 -48.667 -7.33301 -66 -22c-18 -16 -27 -35 -27 -57s9 -40.667 27 -56c18.667 -14.667 40.667 -22 66 -22c24.667 0 47 7.33301 67 22c19.333 15.333 29 34 29 56s-9.66699 41 -29 57c-18.667 14.667 -41 22 -67 22zM85 274
c0 -62 -2.33301 -109.332 -7 -141.999c-4 -25.333 -8.66699 -42.666 -14 -51.999c-4 -7.33301 -7.66699 -11.333 -11 -12c-10 -0.666992 -18.667 -11.334 -26 -32.001c0 -8 2.66699 -15.667 8 -23c6.66699 -7.33301 15 -11 25 -11c10 1.33301 28 2 54 2
c10.667 -0.666992 28.667 -1 54 -1h57h27c10.667 -0.666992 20.334 -1 29.001 -1s16 2 22 6c4 4 6.5 7.33301 7.5 10s1.5 6.33398 1.5 11.001l-2 6c-6.66699 18 -15 27.667 -25 29c-3.33301 1.33301 -6.33301 4 -9 8c-4.66699 5.33301 -9 18.666 -13 39.999
c-2.66699 22 -4.66699 61.333 -6 118c1.33301 97.333 2.33301 165 3 203v75v13c2 6.66699 3 16.334 3 29.001c0 10.667 -3.16699 18 -9.5 22s-15.833 6 -28.5 6c-12 -1.33301 -20.667 -2 -26 -2h-26c-26 0 -45.667 0.333008 -59 1
c-26.667 1.33301 -46.334 2.66602 -59.001 3.99902c-12.667 0 -21.667 -1.83301 -27 -5.5s-8 -11.167 -8 -22.5c9.33301 -22.667 21.333 -34.667 36 -36c7.33301 -2.66699 13.333 -7.66699 18 -15c8 -10.667 13.333 -31 16 -61c1.33301 -6.66699 2 -19.667 2 -39
c0 -34.667 -2.33301 -77.334 -7 -128.001z" />
    <glyph glyph-name="j" unicode="j" horiz-adv-x="320" 
d="M93 577c-14 0 -23.8369 -2.00293 -29.5039 -6.00293s-8.5 -11 -8.5 -21c2 -18.667 10.667 -28 26 -28c6.66699 -1.33301 12.334 -6 17.001 -14c10 -13.333 17.667 -35.666 23 -66.999c5.33301 -28 8 -67 8 -117v-27c-0.666992 -11.333 -1 -22 -1 -32
c-7.33301 -58.667 -11 -122.334 -11 -191.001c0 -56.667 -27 -109.334 -81 -158.001l-7 -5c-6 -8.66699 -9 -16 -9 -22c0 -24.667 14.667 -37 44 -37c5.33301 0 9 0.666992 11 2c5.33301 0.666992 9.33301 1.66699 12 3c47.333 18.667 82 44.334 104 77.001
c20.667 30.667 48.334 53.334 83.001 68.001c2.66699 0 8.33398 3.66699 17.001 11c4 2 6.33301 4.5 7 7.5s1 8.5 1 16.5c0 2 -0.333008 3.66699 -1 5c-0.666992 4 -1 6.66699 -1 8c0 13.333 -3.66699 23.5 -11 30.5s-13.333 11.5 -18 13.5c0 -8 2 -13.167 6 -15.5
s7.33301 -3.5 10 -3.5c1.33301 0 2.66602 -0.5 3.99902 -1.5s2 -2.16699 2 -3.5c-1.33301 4 -2.66602 17.667 -3.99902 41c-0.666992 2.66699 -1 5.33398 -1 8.00098c-2.66699 34.667 -5.33398 84.334 -8.00098 149.001c0.666992 54.667 2 110 4 166v17
c0.666992 33.333 2.33398 56 5.00098 68v23c2.66699 2.66699 4 7 4 13c0 14.667 -9 22 -27 22h-5c-16 -1.33301 -28.333 -2 -37 -2h-39h-46c-11.333 0 -25.666 0.666992 -42.999 2zM204.996 810.997c-26 0 -48.333 -7.66602 -67 -22.999c-18.667 -16 -28 -35 -28 -57
c0 -22.667 9.33301 -41.334 28 -56.001s41 -22 67 -22c24 0 46 7.33301 66 22c19.333 16 29 34.667 29 56c0 20.667 -9.66699 39.667 -29 57c-19.333 15.333 -41.333 23 -66 23z" />
    <glyph glyph-name="k" unicode="k" horiz-adv-x="756" 
d="M55 836c-12.667 0 -21.667 -1.3291 -27 -3.99609s-8 -8.33398 -8 -17.001c0 -1.33301 0.333008 -2.66602 1 -3.99902s1 -2.66602 1 -3.99902c10 -19.333 20.667 -29 32 -29l7 1l3 1c3.33301 0 6 -4.66699 8 -14c8 -12.667 14.667 -44.667 20 -96
c4 -38.667 6 -97.667 6 -177v-39c-0.666992 -16.667 -1 -32.334 -1 -47.001c0 -107.333 -2.66699 -186.666 -8 -237.999c-5.33301 -48 -11 -78.333 -17 -91c-4 -12 -8.33301 -18.333 -13 -19c-13.333 -0.666992 -24 -12.334 -32 -35.001
c0 -0.666992 -0.666992 -1.33398 -2 -2.00098c0 -10 2.83301 -16.667 8.5 -20s14.5 -5 26.5 -5c7.33301 0.666992 14.666 1.16699 21.999 1.5s19.333 0.5 36 0.5c12.667 -0.666992 31.667 -1 57 -1s45 0.333008 59 1c12 0 25 -0.333008 39 -1c8.66699 -0.666992 15 -1 19 -1
c23.333 0 35 6.33301 35 19c0 1.33301 -0.333008 2.66602 -1 3.99902c-1.33301 1.33301 -2 2.66602 -2 3.99902c-4.66699 14 -13.334 22.333 -26.001 25c-3.33301 0.666992 -7.66602 3.66699 -12.999 9c-4.66699 5.33301 -9 18.666 -13 39.999
c-4 27.333 -6.33301 63.666 -7 108.999c0 10.667 0.333008 17 1 19c0 1.33301 4 3.33301 12 6c5.33301 5.33301 11.333 10.333 18 15c1.33301 1.33301 4.33301 3.33301 9 6c5.33301 2.66699 9 5 11 7c3.33301 3.33301 6.66602 5 9.99902 5c7.33301 0 14.333 -5 21 -15
c49.333 -60 86.333 -109 111 -147c13.333 -18.667 20 -34 20 -46h-6c-16.667 0 -25 -10.333 -25 -31c0 -16 13.333 -24 40 -24h5c46.667 2.66699 83 4.33398 109 5.00098c12.667 0 29 -0.666992 49 -2c1.33301 0 4.66602 -0.333008 9.99902 -1
c18.667 -1.33301 33.334 -2 44.001 -2c13.333 0 22 0.833008 26 2.5s6 6.83398 6 15.501c0 4.66699 -2.33301 10.334 -7 17.001c-14 19.333 -25.667 29.666 -35 30.999c-5.33301 0 -13.666 4.33301 -24.999 13c-13.333 7.33301 -35 23.666 -65 48.999
c-28 34.667 -72 98.667 -132 192c-10 12.667 -15.667 22.667 -17 30c0 5.33301 10.333 15.333 31 30c53.333 44 94 74 122 90c20 14 36.667 23.667 50 29c6 1.33301 11 2.33301 15 3c4 1.33301 6.66699 2 8 2c7.33301 0 21.333 8.33301 42 25c6 4 9 10.333 9 19v2
c-0.666992 1.33301 -1 2.66602 -1 3.99902c-3.33301 12 -12 18 -26 18c-12 -1.33301 -33 -2 -63 -2h-60c-10.667 0 -28 0.666992 -52 2h-13c-29.333 1.33301 -50.333 2.66602 -63 3.99902c-20 0 -35.667 -7 -47 -21v-7c-0.666992 -3.33301 -1 -5.66602 -1 -6.99902
c0 -17.333 8.66699 -28.666 26 -33.999c11.333 -3.33301 18.333 -7 21 -11c0 -8.66699 -9 -20.667 -27 -36c-22 -22.667 -72.333 -61 -151 -115c-3.33301 -2.66699 -8 -4.33398 -14 -5.00098h4v34c0 14.667 0.333008 26 1 34c2 121.333 3 206.333 3 255v97v20
c0.666992 5.33301 2 14 4 26c0 20.667 -10 31 -30 31h-4l-4 -1c-13.333 -1.33301 -23.333 -2.66602 -30 -3.99902c-5.33301 -0.666992 -13.666 -1 -24.999 -1h-62c-22 0 -43 1 -63 3z" />
    <glyph glyph-name="l" unicode="l" horiz-adv-x="345" 
d="M53 836c-12 0 -20.501 -1.82812 -25.501 -5.49512s-7.5 -11.167 -7.5 -22.5c5.33301 -21.333 16.333 -32 33 -32c6 0 11 -5.33301 15 -16c8 -14 15 -46 21 -96c4.66699 -33.333 7 -87 7 -161v-43c-0.666992 -18.667 -1 -36.334 -1 -53.001
c-3.33301 -112.667 -7.66602 -191.334 -12.999 -236.001c-7.33301 -47.333 -13.666 -78.333 -18.999 -93c-4 -12 -7.66699 -18.333 -11 -19c-10.667 -0.666992 -19.667 -12.334 -27 -35.001c0 -10.667 2.5 -17.834 7.5 -21.501s13.5 -5.5 25.5 -5.5
c7.33301 0.666992 14.666 1.16699 21.999 1.5s19.333 0.5 36 0.5c12.667 -0.666992 31.667 -1 57 -1s45 0.333008 59 1c12 0 25 -0.333008 39 -1c8.66699 -0.666992 15 -1 19 -1c23.333 0 35 6.33301 35 19c0 1.33301 -0.333008 3 -1 5
c-1.33301 1.33301 -2 2.66602 -2 3.99902c-6.66699 16 -17.334 25 -32.001 27c-4 0 -8 6 -12 18c-6 19.333 -10.667 52.666 -14 99.999c-1.33301 17.333 -2 52 -2 104c0 14 0.333008 33.667 1 59c0.666992 35.333 1 61.333 1 78c2 120 3 204.667 3 254v97v20
c0.666992 5.33301 2 14 4 26c0 20.667 -10 31 -30 31h-4l-4 -1c-13.333 -1.33301 -23.333 -2.66602 -30 -3.99902c-5.33301 -0.666992 -13.666 -1 -24.999 -1h-62c-22 0 -43 1 -63 3z" />
    <glyph glyph-name="m" unicode="m" horiz-adv-x="1196" 
d="M951 266c0 -36 -0.673828 -65.6689 -2.00684 -89.002s-3 -42.333 -5 -57c-5.33301 -30 -10.666 -49.333 -15.999 -58c-4 -7.33301 -8.33301 -11.666 -13 -12.999c-11.333 -0.666992 -19.666 -10.334 -24.999 -29.001c0 -6 6.33301 -14.333 19 -25
c12.667 -5.33301 22.334 -8 29.001 -8c7.33301 0.666992 19.333 2.33398 36 5.00098l16 2c18.667 1.33301 34.667 2 48 2c4 -0.666992 11.333 -1.33398 22 -2.00098c12.667 -1.33301 22.667 -2.33301 30 -3c5.33301 -1.33301 11.333 -2 18 -2h35c22 0 33 11 33 33
c-7.33301 12 -17 21.333 -29 28c-5.33301 2 -10.333 7.66699 -15 17c-4 9.33301 -7.66699 29.666 -11 60.999v15c-0.666992 7.33301 -1 14 -1 20c0 34.667 1.66699 69 5 103v2v2v4c-0.666992 2.66699 -1 8.33398 -1 17.001v16v17v16c0 13.333 -0.333008 31 -1 53v39
c-1.33301 30.667 -4.33301 53 -9 67c-14 42.667 -41.667 67.334 -83 74.001c-12 3.33301 -32 5 -60 5c-47.333 0 -100.666 -6.33301 -159.999 -19c-17.333 -3.33301 -35 -9.33301 -53 -18c-10 -4 -22.667 -9.33301 -38 -16l-15 -6l-3 -1
c-8.66699 -3.33301 -14.334 -5 -17.001 -5c-1.33301 0 -3.33301 0.666992 -6 2c-6.66699 7.33301 -12.667 14.333 -18 21c-14 16.667 -35.667 28.334 -65 35.001c-8.66699 2.66699 -19.334 4.16699 -32.001 4.5s-35 0.5 -67 0.5
c-39.333 -0.666992 -80.666 -5.66699 -123.999 -15c-15.333 -4 -32.333 -10.333 -51 -19c-14.667 -8 -30.667 -14 -48 -18c-2 -0.666992 -4.66699 -1 -8 -1c-0.666992 0 -1 -0.333008 -1 -1c-2.66699 3.33301 -4 7.33301 -4 12c0 1.33301 0.333008 3.66602 1 6.99902
c0 0.666992 0.333008 2 1 4c0 11.333 -3 19.166 -9 23.499s-15.667 6.5 -29 6.5c-11.333 -1.33301 -20 -2 -26 -2h-26c-27.333 0 -47.333 0.333008 -60 1c-20 0 -40 1 -60 3c-11.333 0 -19.666 -1.83301 -24.999 -5.5s-8 -11.5 -8 -23.5
c9.33301 -23.333 21.333 -35.333 36 -36c6.66699 -2 13 -7 19 -15c6.66699 -9.33301 12 -29.333 16 -60c1.33301 -7.33301 2 -21.666 2 -42.999c0 -30.667 -2 -72 -6 -124c0 -66 -2 -114 -6 -144c-4.66699 -29.333 -9 -47.666 -13 -54.999
c-2.66699 -7.33301 -5.66699 -11.666 -9 -12.999c-10 -4.66699 -17.333 -16.334 -22 -35.001c0 -6.66699 3 -14 9 -22c7.33301 -7.33301 15.666 -11 24.999 -11c10 1.33301 27.333 2 52 2h55h57c18 0 36.333 -1 55 -3c10 0 18 3 24 9c3.33301 3.33301 5.5 6.83301 6.5 10.5
s1.5 7.16699 1.5 10.5l-4 6c-6 17.333 -14 27 -24 29c-4.66699 1.33301 -9 4.66602 -13 9.99902c-7.33301 9.33301 -12.666 24 -15.999 44c-4 24 -6.66699 63.667 -8 119c1.33301 44.667 2.33301 82.334 3 113.001c0 32 0.333008 56.333 1 73v8c0 8 0.333008 13.667 1 17
c2 5.33301 10.667 11 26 17c15.333 7.33301 37 14 65 20c31.333 7.33301 57.666 11 78.999 11c28 0 48.333 -5.33301 61 -16c18.667 -17.333 28 -58.666 28 -123.999c0 -6.66699 -0.333008 -15.334 -1 -26.001c-0.666992 -14.667 -1 -25 -1 -31v-8v-9v-2v11h6
c-4 -6.66699 -6.33301 -11 -7 -13s-1 -6.66699 -1 -14h2c0 -60.667 -2.66699 -105.334 -8 -134.001c-4 -27.333 -9.33301 -46.666 -16 -57.999c-4 -7.33301 -8.33301 -11.666 -13 -12.999c-11.333 -1.33301 -19.666 -11 -24.999 -29c0 -6.66699 6 -15 18 -25
c12 -5.33301 21.667 -8 29 -8c7.33301 0.666992 18 2 32 4c7.33301 1.33301 14 2.33301 20 3c18.667 1.33301 35 2 49 2h52c16 0 33.333 -1 52 -3c22 0 33 9.66699 33 29c-7.33301 12 -16.666 21.333 -27.999 28c-6 2 -11.333 7.66699 -16 17
c-5.33301 12.667 -9 32.667 -11 60v16c-0.666992 7.33301 -1 14 -1 20c0 34.667 1.66699 69 5 103v2c0 5.33301 0.833008 9 2.5 11s6.83398 4 15.501 6h-21c0.666992 0.666992 1 2.66699 1 6v16v17v16v38v34c0 8 2.33301 15.333 7 22
c10.667 9.33301 22.334 16.333 35.001 21c20 7.33301 34.333 11.666 43 12.999c31.333 7.33301 60.333 11 87 11c28 0 48.667 -4.33301 62 -13c20 -15.333 30 -57 30 -125v-24c-0.666992 -10 -1 -19.333 -1 -28v-8v4h-1v-15v-2v-2z" />
    <glyph glyph-name="n" unicode="n" horiz-adv-x="752" 
d="M520 268c1.33301 -16 1.99902 -31.3379 1.99902 -46.0049c0 -26 -3 -54.667 -9 -86l-2 -12c-4.66699 -25.333 -11.334 -44.333 -20.001 -57c-6 -8.66699 -12 -13.334 -18 -14.001c-12 -1.33301 -20.667 -11 -26 -29c0 -8 6.66699 -16.667 20 -26
c10.667 -4.66699 19.667 -7 27 -7c10.667 1.33301 25.667 3.33301 45 6c1.33301 0 3.33301 0.333008 6 1c14 2 30.333 3 49 3h53c16.667 0 34 -1.33301 52 -4c22 0 33 9.33301 33 28c-6 11.333 -13.333 20.666 -22 27.999c-4.66699 2 -9 8 -13 18
c-6.66699 12.667 -11.334 33.334 -14.001 62.001c-1.33301 11.333 -2.16602 25.833 -2.49902 43.5s-0.5 49.167 -0.5 94.5v1v2v4c-0.666992 2.66699 -1 8.33398 -1 17.001v16v17v16c0 34 1 64 3 90c2 6.66699 3 16 3 28c0 18.667 -2 32.334 -6 41.001
c-8 24 -22.333 41 -43 51c-25.333 9.33301 -44 15 -56 17c-8 2 -21.667 3 -41 3c-8 0 -23.667 -0.666992 -47 -2h-4c-46 -5.33301 -85.333 -11.666 -118 -18.999c-12 -2.66699 -25.333 -6.66699 -40 -12l-40 -14c-11.333 -3.33301 -19.666 -5 -24.999 -5h-1
c1.33301 0.666992 2 4 2 10v6c0.666992 2.66699 1 6.66699 1 12c0 10.667 -3.16699 18 -9.5 22s-15.833 6 -28.5 6c-12 -1.33301 -20.667 -2 -26 -2h-26c-13.333 0 -34 -0.666992 -62 -2h-13c-8 -0.666992 -12.667 -1 -14 -1c-4 0 -10 0.333008 -18 1s-13.667 1 -17 1
c-12 0 -20.5 -1.83301 -25.5 -5.5s-7.5 -11.167 -7.5 -22.5c9.33301 -22.667 21.333 -34.667 36 -36c8.66699 -1.33301 15.667 -5.66602 21 -12.999c8.66699 -10.667 14.334 -30 17.001 -58c1.33301 -7.33301 2 -21.333 2 -42c0 -34 -2.33301 -75.333 -7 -124
c0 -65.333 -2.66699 -113 -8 -143c-3.33301 -30 -8.66602 -52.667 -15.999 -68h-13c-11.333 -0.666992 -20 -11.667 -26 -33c0 -2.66699 2.66699 -5 8 -7c5.33301 -18 13.666 -27 24.999 -27c19.333 2 38 3 56 3c12 1.33301 31 2 57 2c24.667 0 42.667 -0.666992 54 -2h6
c20 -1.33301 35.667 -2.66602 47 -3.99902c23.333 0 35 6.66699 35 20c0 1.33301 -0.666992 4 -2 8c-1.33301 2 -2 3.66699 -2 5c-6 18 -14 28.667 -24 32c-2.66699 0 -5 -2 -7 -6c-4.66699 10 -8.66699 29 -12 57c-2.66699 22.667 -4.66699 62.334 -6 119.001
c0 34 -0.166992 57.667 -0.5 71s-1.5 25.333 -3.5 36c-0.666992 14 -1 38.333 -1 73c0.666992 20 14.334 34 41.001 42c5.33301 2.66699 12.666 5 21.999 7c5.33301 1.33301 14 3.33301 26 6c35.333 7.33301 65 11 89 11s43.333 -3.66699 58 -11
c19.333 -12.667 29 -52.667 29 -120v-23c-0.666992 -10 -1 -19.667 -1 -29v-3c-0.666992 -2 -1 -3.33301 -1 -4c-0.666992 -2.66699 -1 -6 -1 -10v-2v-1v-1v-2z" />
    <glyph glyph-name="o" unicode="o" horiz-adv-x="783" 
d="M391 583c-102.667 0 -189.667 -28.666 -261 -85.999c-73.333 -58 -110 -127.667 -110 -209c0 -80.667 36.667 -150 110 -208c71.333 -56.667 158.333 -85 261 -85c102 0 189.333 28.333 262 85c73.333 59.333 110 128.666 110 207.999c0 80 -36.667 149.667 -110 209
c-72 57.333 -159.333 86 -262 86zM389 507.001c74 0 123.001 -20.334 147.001 -61.001c26.667 -44 42 -97 46 -159c0 -34.667 -4.5 -64.5 -13.5 -89.5s-22.5 -47.5 -40.5 -67.5s-38 -34.667 -60 -44s-47.333 -14 -76 -14c-52.667 2.66699 -98.334 24.334 -137.001 65.001
c-36.667 41.333 -55 91.333 -55 150c0 62 13.667 114 41 156c26 42.667 75.333 64 148 64z" />
    <glyph glyph-name="p" unicode="p" horiz-adv-x="748" 
d="M293 534l-28.9971 0.00390625c-1.33301 0 -2 1.33301 -2 4v5c2 6 3.33301 12 4 18c0 11.333 -3 19.166 -9 23.499s-15.667 6.5 -29 6.5c-24.667 -3.33301 -38.667 -6 -42 -8c-5.33301 -1.33301 -15 -2 -29 -2c-24.667 0 -42.334 -0.333008 -53.001 -1
c-10 0 -21 0.333008 -33 1c-8.66699 0.666992 -15 1 -19 1v1c-21.333 0 -32 -9.33301 -32 -28c5.33301 -27.333 16.666 -41 33.999 -41c6 0 12.333 -4.33301 19 -13c10 -14.667 18 -44 24 -88c2.66699 -21.333 4.66699 -50.833 6 -88.5s2 -93.167 2 -166.5
c-2 -73.333 -5.33301 -133 -10 -179c-2.66699 -21.333 -4 -49 -4 -83c0 -5.33301 0.333008 -12.333 1 -21v-14c0.666992 -10.667 2.66699 -20.667 6 -30c3.33301 -8.66699 14.666 -13 33.999 -13c27.333 0 50.666 7.66699 69.999 23c14.667 12 33 19.667 55 23
c14.667 2 23 11.333 25 28c0 10 0.333008 18 1 24v3c-0.666992 13.333 -3.66699 23.666 -9 30.999c-3.33301 5.33301 -5.33301 10.666 -6 15.999v2c-1.33301 10.667 -2 18.667 -2 24s4.33301 8.33301 13 9c118.667 10.667 223.334 49.667 314.001 117
c90 68.667 135 143.667 135 225c0 84 -28 146 -84 186c-54 40 -125 60 -213 60c-36.667 -3.33301 -66.667 -13 -90 -29c-22 -14.667 -38 -23.334 -48 -26.001zM291.003 466.004c24 11.333 52.667 17.333 86 18c58.667 0 101 -15.667 127 -47
c26.667 -32.667 40 -71.334 40 -116.001c0 -22 -6.66699 -48.333 -20 -79c-13.333 -28.667 -37.333 -56.667 -72 -84c-16.667 -12.667 -39.667 -26.334 -69 -41.001c-17.333 -8.66699 -42 -19 -74 -31l-3 -1c-10 -3.33301 -17.333 -5 -22 -5s-8 1 -10 3
c-6.66699 2.66699 -10 7 -10 13v32v35v162c-0.666992 28.667 -1 63.334 -1 104.001c0 10.667 2.33301 18.334 7 23.001c6.66699 5.33301 13.667 10 21 14z" />
    <glyph glyph-name="q" unicode="q" horiz-adv-x="758" 
d="M491 543c-18 8 -43.0059 17.6641 -75.0059 28.9971c-25.333 8.66699 -52.666 13 -81.999 13c-87.333 0 -159.666 -27.667 -216.999 -83c-58 -54.667 -90 -126.667 -96 -216v-12c-0.666992 -5.33301 -1 -8.66602 -1 -9.99902c0 -78.667 27.667 -144.334 83 -197.001
c54.667 -52.667 122.667 -79 204 -79h12c5.33301 0.666992 10.333 1 15 1c58.667 4 114 20 166 48c1.33301 0.666992 3 1.66699 5 3c5.33301 2.66699 10 5.33398 14 8.00098c0 -1.33301 -1.16699 -2.16602 -3.5 -2.49902s-4.16602 -0.5 -5.49902 -0.5
c-5.33301 0 -8 -0.333008 -8 -1c-4.66699 -41.333 -9.66699 -76.333 -15 -105c-6 -28 -9 -55.667 -9 -83c0 -8.66699 2 -15.334 6 -20.001c2.66699 -5.33301 15.334 -9 38.001 -11c18.667 0 37 8.66699 55 26c14.667 12.667 35.334 20 62.001 22
c9.33301 0.666992 18.333 5.66699 27 15c7.33301 7.33301 11 16.333 11 27v5c-0.666992 2.66699 -1 4.33398 -1 5.00098c-2.66699 12.667 -4.5 27 -5.5 43s-1.5 35.667 -1.5 59c0 32 -0.166992 57.167 -0.5 75.5s-1.16602 35.833 -2.49902 52.5
c-2.66699 44.667 -4 100.334 -4 167.001c0 13.333 0.666992 32.333 2 57c0.666992 16.667 1 27.667 1 33c4 49.333 9.66699 80.666 17 93.999c5.33301 8.66699 11.333 13 18 13c16 0 28 10.333 36 31c0 0.666992 0.666992 1.33398 2 2.00098c0 10.667 -2.66699 17.667 -8 21
s-14.333 5 -27 5c-7.33301 -1.33301 -18 -2 -32 -2c-3.33301 0 -7.33301 0.333008 -12 1h-10c-22.667 1.33301 -41 2 -55 2c-23.333 0 -35.333 -0.333008 -36 -1c-2 0 -5.33301 0.333008 -10 1c-6 0.666992 -11.667 1 -17 1c-22 0 -33 -9.33301 -33 -28
c0 -5.33301 1.33301 -10.666 4 -15.999c0.666992 0 1 0.333008 1 1c0 -2.66699 3.66699 -4 11 -4c-3.33301 1.33301 -6.33301 2 -9 2c-2.66699 1.33301 -5 2.66602 -7 3.99902c-4 2.66699 -6.33301 4 -7 4zM498.994 421.997c0 -38.667 0.333008 -71.332 1 -97.999l1 -29
c0.666992 -45.333 1.66699 -85.333 3 -120c0 -20.667 -6.66699 -34.667 -20 -42c-9.33301 -4.66699 -23.333 -10.667 -42 -18c-2 -0.666992 -5 -2 -9 -4c-18 -6.66699 -35.667 -10 -53 -10c-61.333 9.33301 -109.333 32.333 -144 69c-31.333 30.667 -47 67 -47 109
c0 1.33301 0.333008 4.66602 1 9.99902v10c0 56.667 12 103.667 36 141c24 38.667 61.667 58 113 58c46 0 94.333 -17.333 145 -52c10 -6 15 -14 15 -24z" />
    <glyph glyph-name="r" unicode="r" horiz-adv-x="553" 
d="M533 472c-0.666992 36 -16.333 64.6719 -47 86.0049c-28 20 -57.333 30 -88 30c-32.667 0 -53.667 -4.33301 -63 -13c-3.33301 -2.66699 -10.333 -7 -21 -13c-9.33301 -5.33301 -16.333 -9.66602 -21 -12.999c-0.666992 -0.666992 -1.66699 -1.33398 -3 -2.00098
c-4.66699 -2.66699 -8 -4.33398 -10 -5.00098s-3.66699 -1.33398 -5 -2.00098c-3.33301 -1.33301 -5.33301 -2.33301 -6 -3h-8h7c0 2 1 5.33301 3 10c0 20 -13 30 -39 30h-30c-11.333 -0.666992 -21 -1 -29 -1c-26 0 -45.667 0.333008 -59 1
c-26.667 1.33301 -46.334 2.66602 -59.001 3.99902c-12.667 0 -21.667 -1.83301 -27 -5.5s-8 -11.167 -8 -22.5c9.33301 -22.667 21.333 -34.667 36 -36c7.33301 -2.66699 13.333 -7.66699 18 -15c8 -10.667 13.333 -31 16 -61c1.33301 -6.66699 2 -19.667 2 -39
c0 -34.667 -2.33301 -77.334 -7 -128.001c0 -62 -2.33301 -109.333 -7 -142c-4 -25.333 -8.66699 -42.666 -14 -51.999c-4 -7.33301 -7.66699 -11.333 -11 -12c-10 -0.666992 -18.667 -11.334 -26 -32.001c0 -8 2.66699 -15.667 8 -23c6.66699 -7.33301 15 -11 25 -11
c10 1.33301 28 2 54 2c10.667 -0.666992 28.667 -1 54 -1h57h27c10.667 -0.666992 20.334 -1 29.001 -1s16 2 22 6c4 4 6.5 7.33301 7.5 10s1.5 6.33398 1.5 11.001l-2 6c-6.66699 18 -15 27.667 -25 29c-3.33301 1.33301 -6.33301 4 -9 8
c-4.66699 5.33301 -9 18.666 -13 39.999c-2.66699 22 -4.66699 61.333 -6 118v107c0 21.333 0.333008 41.333 1 60v16c0 10 2.66699 18.333 8 25c7.33301 8.66699 17 16 29 22c10.667 5.33301 20.667 8 30 8c23.333 0 35 -7 35 -21c0 -2 -2 -5 -6 -9
c-15.333 -14 -23 -28 -23 -42v-12c2 -17.333 13.333 -26 34 -26c20 0 34 5 42 15c8.66699 12.667 21.334 20.667 38.001 24c17.333 3.33301 36.666 10.666 57.999 21.999c20 11.333 30 26.333 30 45v4v2v2z" />
    <glyph glyph-name="s" unicode="s" horiz-adv-x="664" 
d="M495 416l5.00293 -4.00098c5.33301 -4.66699 10 -8.33398 14 -11.001c9.33301 -6 18.333 -9 27 -9c23.333 0 35 9.33301 35 28v5c-0.666992 2 -1 3.33301 -1 4c-3.33301 9.33301 -9.66602 19 -18.999 29c-6.66699 13.333 -12 31.333 -16 54
c-2.66699 12 -14.334 21.333 -35.001 28c-14.667 4 -26 7.66699 -34 11c-22 7.33301 -49.667 13 -83 17c-16 2 -42.333 5 -79 9c-14 1.33301 -24 2.33301 -30 3v-2c-1.33301 0 -5.66602 0.333008 -12.999 1h-13c-48 0 -92.667 -7 -134 -21c-52.667 -20 -79 -58.333 -79 -115
c0 -32.667 11 -59 33 -79c28 -23.333 58.333 -37.666 91 -42.999c30 -12.667 69 -23 117 -31c38.667 -6 77.334 -14.333 116.001 -25c26.667 -12 46.667 -24.333 60 -37c12 -12.667 18.333 -29 19 -49c0 -27.333 -13.667 -49.666 -41 -66.999
c-27.333 -33.333 -55 -50 -83 -50c0 8.66699 -0.333008 15 -1 19s-2.33398 6 -5.00098 6c-36 0 -66.333 3.33301 -91 10s-45.667 17 -63 31c-36 30 -60.333 59 -73 87c-2.66699 4 -6.33398 11.667 -11.001 23c-0.666992 1.33301 -1.33398 3.33301 -2.00098 6
c-6.66699 20.667 -23 31 -49 31c-24.667 0 -37 -12 -37 -36c0 -6 0.333008 -13.333 1 -22v-12v-43v-41c0 -26.667 7.33301 -42 22 -46c30 -20.667 72.667 -38.334 128 -53.001c51.333 -13.333 109.333 -20 174 -20c67.333 0 133.666 18.333 198.999 55
c66.667 38 100 88.333 100 151c-2 47.333 -18 84 -48 110c-24 24 -57 44.667 -99 62c-39.333 14.667 -80 25.334 -122 32.001h-2c-52 8.66699 -90 15.334 -114 20.001c-18.667 5.33301 -36.334 12.666 -53.001 21.999c-13.333 6.66699 -20 13.667 -20 21
c0 9.33301 6 15.333 18 18c22 6 44.333 9.33301 67 10c34.667 0 73.667 -8 117 -24c49.333 -16.667 85 -37.667 107 -63z" />
    <glyph glyph-name="t" unicode="t" horiz-adv-x="488" 
d="M425 641l-5 0.00195312c-2.66699 0.666992 -4.66699 1 -6 1c-6 2 -11.333 3 -16 3c-28 -0.666992 -50.667 -3 -68 -7h-3c-2 -0.666992 -3.66699 -1 -5 -1c-2 0 -3 3.66699 -3 11c0 50.667 0.333008 81.334 1 92.001c0 16.667 0.333008 26.334 1 29.001
c0 1.33301 0.333008 2.66602 1 3.99902c0.666992 0.666992 1.66699 10 3 28c0 8.66699 -1.33301 16.667 -4 24c-2.66699 12 -15.667 18 -39 18h-26c-22 0 -34 -9 -36 -27c-9.33301 -39.333 -31.333 -81.333 -66 -126c-33.333 -46 -68.333 -74.667 -105 -86
c-14 -4.66699 -22.667 -12.667 -26 -24c-2 -10 -3 -16 -3 -18c2 -10 6.33301 -18 13 -24c7.33301 -6 16.333 -9 27 -9c24 0 42.333 1.33301 55 4c0.666992 0 1.66699 0.333008 3 1h3c1.33301 0 3.33301 -0.333008 6 -1h5c2 -0.666992 3 -3 3 -7
c0 -10.667 -0.666992 -28.667 -2 -54v-3v-64c-0.666992 -98 -3 -176 -7 -234c-4 -48 -8 -77 -12 -87c-2 -10 -4.33301 -15.333 -7 -16c-11.333 -1.33301 -21.666 -16 -30.999 -44c0 -0.666992 -0.666992 -1.33398 -2 -2.00098c0 -10 2.83301 -16.667 8.5 -20
s14.5 -5 26.5 -5c2 0 5 0.333008 9 1c20 2 36.333 3.33301 49 4h57h58c12.667 -0.666992 29.334 -2 50.001 -4c3.33301 -0.666992 6 -1 8 -1c22.667 0 34 8.66699 34 26c-4 27.333 -12.333 41.333 -25 42c-4.66699 1.33301 -9.33398 8 -14.001 20
c-6.66699 12 -12.667 41.667 -18 89c-2.66699 42.667 -4 89.334 -4 140.001c0 3.33301 0.333008 17.666 1 42.999v54v66c0.666992 8.66699 1 18.334 1 29.001c0.666992 15.333 1 24.666 1 27.999c0 2 0.333008 5.33301 1 10l1 4c0 -2.66699 1 -4 3 -4h4
c2 -0.666992 3.66699 -1 5 -1l12 -2c8 -0.666992 12.333 -1.33398 13 -2.00098c4 -3.33301 16 -5 36 -5c11.333 0 21.666 2.33301 30.999 7c4.66699 4 10.334 11 17.001 21l5 5c2.66699 3.33301 4.66699 6 6 8c3.33301 2.66699 6.66602 6.66699 9.99902 12
c5.33301 5.33301 8 12.666 8 21.999v6l-1 5c-8.66699 14 -22.667 21 -42 21z" />
    <glyph glyph-name="u" unicode="u" horiz-adv-x="759" 
d="M464 133c-22 -9.33301 -42.3359 -15.9971 -61.0029 -19.9971c-19.333 -4 -39 -8.33301 -59 -13h-3c-2.66699 -0.666992 -5.33398 -1 -8.00098 -1c-5.33301 0 -14.666 0.333008 -27.999 1c-3.33301 0.666992 -6.66602 1 -9.99902 1
c-20.667 3.33301 -31.667 43.333 -33 120v16c-1.33301 22 -2 45 -2 69l4 147l1 23c2 26 3.66699 44.667 5 56c0 -3.33301 -2.66699 -5 -8 -5c6.66699 0 10.834 1.83301 12.501 5.5s2.5 10.5 2.5 20.5c0 7.33301 -5.66699 14.333 -17 21c-4.66699 3.33301 -12 5 -22 5
c-28.667 -2.66699 -54.334 -4 -77.001 -4c-6.66699 0 -20.334 -0.333008 -41.001 -1l-17 -1h-15c-7.33301 -0.666992 -11.666 -1 -12.999 -1c-3.33301 0 -9.33301 0.333008 -18 1c-6 0.666992 -10 1 -12 1c-9.33301 0 -15.833 -1.66699 -19.5 -5s-5.5 -9.33301 -5.5 -18
c0 -24 8.66699 -36 26 -36c6 -0.666992 12 -4.66699 18 -12c8.66699 -9.33301 16 -28.666 22 -57.999c6 -22 9 -57.333 9 -106c0 -6 -0.333008 -14.667 -1 -26c-0.666992 -14 -1 -24 -1 -30c-0.666992 -8 -1 -16.667 -1 -26c-0.666992 -14.667 -1 -23.667 -1 -27
c-1.33301 -21.333 -2.33301 -36.333 -3 -45v-13v-12c0 -34 3 -61.5 9 -82.5s14.667 -37.167 26 -48.5c25.333 -24.667 60 -37 104 -37c41.333 0 85 7.33301 131 22l84 25c23.333 6.66699 41.333 12 54 16c2 1.33301 4.33301 2 7 2v1
c0 -0.666992 -0.333008 -1.33398 -1 -2.00098c-0.666992 -1.33301 -1 -2.33301 -1 -3c-3.33301 -16.667 -5 -27.667 -5 -33c0 -14 9 -21 27 -21c12 2 25 3 39 3c8.66699 0.666992 21.667 1 39 1c21.333 0 40 -0.333008 56 -1c10.667 0 25 -1 43 -3c4 -0.666992 8 -1 12 -1
c18 0 27 7 27 21c0 31.333 -7.33301 47.666 -22 48.999c-3.33301 0.666992 -8.33301 4.33398 -15 11.001c-7.33301 6 -14 22 -20 48c-2 12 -3.5 29.5 -4.5 52.5s-1.5 57.167 -1.5 102.5c0.666992 52 2 105.333 4 160v13c0 14.667 0.333008 31 1 49v14
c0 2.66699 0.666992 4.66699 2 6v23c0 7.33301 -3.66699 15 -11 23c-7.33301 8.66699 -18.333 13 -33 13c-6 -0.666992 -13.333 -1.66699 -22 -3c-5.33301 -1.33301 -9.33301 -2 -12 -2h-12c-7.33301 -0.666992 -13.333 -1 -18 -1h-54c-18.667 0 -36 0.666992 -52 2
c-9.33301 0 -16.166 -1.33301 -20.499 -4s-6.5 -8.66699 -6.5 -18c2 -26 9.33301 -40.333 22 -43c6 -2.66699 11.667 -7.33398 17 -14.001c8.66699 -10.667 15.334 -30.334 20.001 -59.001c3.33301 -10.667 5.33301 -26.334 6 -47.001s1 -59 1 -115
c-0.666992 -6.66699 -1.66699 -21.667 -3 -45c0 -6 -0.333008 -14 -1 -24v-49c0 -10.667 -13.333 -20 -40 -28z" />
    <glyph glyph-name="v" unicode="v" horiz-adv-x="786" 
d="M447 32c22.667 38 45.668 79.666 69.001 124.999c8.66699 15.333 18.667 34 30 56c16.667 32 29 55 37 69c32.667 65.333 62.667 119.666 90 162.999c18 28 31 46 39 54c5.33301 5.33301 9 8 11 8c6.66699 0 19.334 12.333 38.001 37l5 7c0 4.66699 -3.33301 12 -10 22
c-6.66699 5.33301 -13.667 8 -21 8c-22.667 -1.33301 -40.334 -2.33301 -53.001 -3s-29.334 -1 -50.001 -1c-33.333 0 -61.666 1 -84.999 3c-18 0 -29.333 -7.33301 -34 -22v-9c-0.666992 -4 -1 -6.66699 -1 -8c0 -24.667 10.333 -37 31 -37c8.66699 0 13 -5 13 -15
c0 -8 -5.33301 -24.667 -16 -50c-14 -30 -36 -68.333 -66 -115c0 -0.666992 -1.66699 -3.33398 -5 -8.00098c-12 -22.667 -20 -39 -24 -49c-6 -15.333 -13.333 -30.666 -22 -45.999c-1.33301 -6.66699 -2.33301 -10 -3 -10c-1.33301 0.666992 -3.33301 4.33398 -6 11.001
l-1 2c-5.33301 9.33301 -12.666 25 -21.999 47c-5.33301 14.667 -15.333 35.334 -30 62.001c-37.333 56 -60.333 98 -69 126l-2 9c-2.66699 12.667 -4 21.667 -4 27c0 4 0.333008 6.66699 1 8c3.33301 7.33301 7.33301 12 12 14c11.333 1.33301 17 9.33301 17 24
c0 8 -0.666992 13.667 -2 17c-4.66699 16 -19 24 -43 24c-16 -1.33301 -34.667 -2.33301 -56 -3h-12c-22 -1.33301 -37 -2 -45 -2c-15.333 0 -29 1 -41 3l-5 1c-16.667 3.33301 -30.334 5.66602 -41.001 6.99902c-6 0 -16.333 -4.33301 -31 -13
c-13.333 -13.333 -20 -23 -20 -29c14.667 -15.333 25 -23 31 -23c4 0 8.66699 -4.33301 14 -13c11.333 -10 28 -32.667 50 -68c36 -59.333 70 -119 102 -179l61 -116l9 -17c22.667 -43.333 39 -75.666 49 -96.999c9.33301 -25.333 29 -38 59 -38
c21.333 0 38.666 12.333 51.999 37z" />
    <glyph glyph-name="w" unicode="w" horiz-adv-x="1036" 
d="M372 233l0.000976562 -5.99902c0.666992 1.33301 1 3.33301 1 6l-3 4c-4.66699 6 -7.33398 10.333 -8.00098 13c-2 8 -8 22.667 -18 44c-42.667 80.667 -67 134 -73 160c-0.666992 2.66699 -1.33398 8 -2.00098 16c-2 9.33301 -3 16 -3 20
c0 6.66699 0.333008 10.667 1 12c6 6.66699 12 11 18 13c10 2.66699 15 9.66699 15 21c0 6 -4.33301 17.667 -13 35c-0.666992 1.33301 -2 2.83301 -4 4.5s-5.33301 2.5 -10 2.5h-3c-4 -0.666992 -7 -1 -9 -1c-4.66699 0 -9.66699 -0.333008 -15 -1
c-15.333 -1.33301 -28.666 -2.33301 -39.999 -3c-20 -2 -37.667 -3 -53 -3c-9.33301 0 -23.333 0.666992 -42 2h-5c-5.33301 0 -14.666 0.666992 -27.999 2l-22 2c-8.66699 0 -17 -3.66699 -25 -11c-0.666992 -1.33301 -1.66699 -3 -3 -5c-5.33301 -8 -8 -14.333 -8 -19
c17.333 -25.333 29.666 -38 36.999 -38c4 0 6.66699 -0.666992 8 -2c7.33301 -6.66699 19.333 -24.667 36 -54c19.333 -34 49.333 -94.333 90 -181c23.333 -44.667 41 -82.667 53 -114c18.667 -44.667 35.667 -83 51 -115c8.66699 -28.667 28 -43 58 -43
c30.667 0 54 14.667 70 44h-12c16 48.667 33.667 94.334 53 137.001c22 47.333 41.333 99 58 155c1.33301 2.66699 4.66602 5.66699 9.99902 9c0 -2 -1 -3.33301 -3 -4s-3.66699 -1 -5 -1s-2.33301 -0.333008 -3 -1c6 -14 11.667 -28.333 17 -43l44 -109
c10.667 -30 28 -74 52 -132l13 -30h1c8 -15.333 25 -23 51 -23c22 0 39 12.667 51 38c24.667 52 43 95.333 55 130l48 117l60 114l26 49c0.666992 0.666992 6.33398 10.667 17.001 30c8.66699 16 14.334 26 17.001 30c4 6 7.33301 9.66699 10 11
c1.33301 0 6.33301 2.66699 15 8c0 8 0.5 15.5 1.5 22.5s1.83301 12.167 2.5 15.5c4.66699 0.666992 9.33398 2.33398 14.001 5.00098c-8.66699 12 -17.334 18 -26.001 18c-8.66699 -0.666992 -20 -2.66699 -34 -6c-4 -0.666992 -6.66699 -1 -8 -1
c-10.667 -1.33301 -22.667 -2 -36 -2c-14.667 0 -31 1 -49 3c-5.33301 0.666992 -15 1.33398 -29 2.00098c-12.667 1.33301 -19.334 2 -20.001 2c-6 0 -13 -3.66699 -21 -11c-7.33301 -9.33301 -11 -16.333 -11 -21v-5c-0.666992 -2.66699 -1 -4.33398 -1 -5.00098
c0 -16 7.33301 -24 22 -24c7.33301 -0.666992 12.666 -4.33398 15.999 -11.001c0.666992 -2 1 -6.33301 1 -13c0 -10 -2 -24 -6 -42c-7.33301 -30 -31 -85.333 -71 -166c-9.33301 -16.667 -14 -27.334 -14 -32.001c0 -0.666992 -0.666992 -2.66699 -2 -6
c-1.33301 -2.66699 -3 -6.33398 -5 -11.001c0.666992 -0.666992 1.33398 -1 2.00098 -1s1.33398 -0.333008 2.00098 -1c-7.33301 18.667 -19.333 47.667 -36 87l-28 69c-22.667 50 -42.334 101.667 -59.001 155c-12 32 -30 48 -54 48c-30 0 -48 -18 -54 -54
c-10 -48 -28.333 -101 -55 -159c-33.333 -64 -56 -112.667 -68 -146z" />
    <glyph glyph-name="x" unicode="x" horiz-adv-x="766" 
d="M466 577l-3.99805 0.992188h-4c-10.667 0 -18 -5 -22 -15c-4 -7.33301 -6 -15 -6 -23c0 -10.667 1.5 -18.5 4.5 -23.5s8.5 -8.83301 16.5 -11.5c7.33301 -2 13.666 -5.66699 18.999 -11v-5c0 -3.33301 -1 -7.66602 -3 -12.999c-5.33301 -12 -23.666 -33.333 -54.999 -64
c-4.66699 -6 -9 -9 -13 -9c-30.667 36 -50 62.667 -58 80l-2 6c-4 11.333 -6 20.666 -6 27.999c0.666992 4 2.33398 7.33301 5.00098 10c4 2.66699 6.5 4.83398 7.5 6.50098s1.5 4.83398 1.5 9.50098c0 1.33301 -2.66699 3 -8 5l-2 1c-8 20 -18.667 30 -32 30
c-10.667 -2 -32 -3 -64 -3c-21.333 -0.666992 -44 -1 -68 -1h-42c-8.66699 0 -18 0.333008 -28 1h-15c-12 0 -19 -5.66699 -21 -17c0 -1.33301 -0.333008 -2.66602 -1 -3.99902c0 -3.33301 1.33301 -7.66602 4 -12.999l1 -2c13.333 -20 22.333 -30 27 -30l1 -1
c6.66699 -2.66699 12.334 -5.66699 17.001 -9c12 -9.33301 30.333 -26 55 -50c30 -30.667 70.667 -78 122 -142c3.33301 -3.33301 5 -6.66602 5 -9.99902c0 -2.66699 -2 -6.66699 -6 -12c-64 -68.667 -113.667 -119.667 -149 -153c-32 -29.333 -54.333 -48.333 -67 -57
c-6.66699 -6 -13 -9 -19 -9s-15 -5 -27 -15c-4.66699 0 -7.5 -1.5 -8.5 -4.5s-1.5 -7.83301 -1.5 -14.5c0 -0.666992 0.333008 -2 1 -4c0.666992 -2.66699 1 -5 1 -7c4.66699 -13.333 12.334 -20 23.001 -20c26 2.66699 50.333 4 73 4c6.66699 0 19 -0.333008 37 -1l31 -1
c11.333 -0.666992 26 -1.33398 44 -2.00098c12 0 19.333 -0.333008 22 -1c1.33301 0 3 -0.333008 5 -1s3.33301 -1 4 -1c14.667 0 27 5.66699 37 17c6.66699 8.66699 10 15.334 10 20.001c0 5.33301 -2 10.333 -6 15s-9 7 -15 7c-10 3.33301 -17.667 8 -23 14v5
c0 7.33301 2.33301 16 7 26c10.667 22 41.667 58.667 93 110c2.66699 3.33301 5 5 7 5s4 -1.33301 6 -4c53.333 -58 84.333 -96.667 93 -116c4.66699 -11.333 7 -20.333 7 -27v-3c-3.33301 -4 -8.66602 -6.66699 -15.999 -8c-4.66699 0 -8.83398 -2.16699 -12.501 -6.5
s-5.5 -8.83301 -5.5 -13.5c0 -5.33301 5 -14.666 15 -27.999c6.66699 -8.66699 16.667 -13 30 -13h4c19.333 2 38.333 3.66699 57 5c9.33301 0 17.666 0.333008 24.999 1c20.667 0.666992 34 1 40 1c28 0 55 -1.33301 81 -4h8c7.33301 0 16 3 26 9
c11.333 10.667 17 20.334 17 29.001c-12.667 14.667 -24.334 24.334 -35.001 29.001c-6.66699 3.33301 -18 11 -34 23c-12.667 7.33301 -35.667 23.666 -69 48.999c-28.667 33.333 -71.334 89 -128.001 167c-6 6 -9 12.667 -9 20c0 6 2 11 6 15c66 72.667 108 117 126 133
c22 20.667 38.667 33.334 50 38.001c1.33301 0.666992 3.33301 1 6 1c-5.33301 0 -8 1.66699 -8 5l9 -9c5.33301 0 15.333 6.33301 30 19c1.33301 1.33301 2.66602 3 3.99902 5s2 4.33301 2 7s-2 8 -6 16c-6 12.667 -13.667 19 -23 19c-26 -2.66699 -52.333 -4 -79 -4
c-22.667 0 -43.334 0.333008 -62.001 1c-27.333 0.666992 -47.333 1.66699 -60 3z" />
    <glyph glyph-name="y" unicode="y" horiz-adv-x="833" 
d="M579 582c-17.333 0 -29.667 -8.00098 -37 -24.001c-3.33301 -4 -5 -10.333 -5 -19c0 -14 9 -21 27 -21c9.33301 0 16 -4.33301 20 -13c1.33301 -2 2 -6.33301 2 -13c0 -16.667 -4.66699 -37.667 -14 -63c-12.667 -43.333 -50.667 -117.666 -114 -222.999
c-6 -12.667 -11 -19 -15 -19c-2.66699 0 -5.66699 3 -9 9c0 0.666992 -0.666992 2 -2 4c-0.666992 0 -1.66699 1 -3 3c-1.33301 3.33301 -3 6.66602 -5 9.99902c-68 120.667 -108.667 197.667 -122 231c-13.333 32.667 -20 54.334 -20 65.001
c0 0.666992 0.333008 1.66699 1 3v1c0.666992 1.33301 1.66699 2 3 2h4c2 -0.666992 3.33301 -1 4 -1l1 -1c14.667 0 22 7 22 21c0 8.66699 -1.66699 16.334 -5 23.001c-1.33301 7.33301 -4.5 12.666 -9.5 15.999s-13.167 5 -24.5 5
c-18.667 -2.66699 -38.667 -4.33398 -60 -5.00098l-17 -1c-22 -0.666992 -37 -1 -45 -1c-11.333 0 -26.333 1.33301 -45 4c-5.33301 1.33301 -13.666 2.66602 -24.999 3.99902c-5.33301 0.666992 -9.66602 1.33398 -12.999 2.00098c0 2 -1.83301 3.33301 -5.5 4
s-6.83398 1 -9.50098 1c-6 0 -13 -4 -21 -12c-11.333 -12 -17 -21.667 -17 -29c11.333 -18.667 23.666 -30.334 36.999 -35.001c10 -3.33301 21.667 -12.666 35 -27.999c15.333 -16 37.333 -47.667 66 -95c32 -52.667 69.333 -125.334 112 -218.001c6 -10 15 -26 27 -48
c1.33301 -3.33301 4.66602 -9.66602 9.99902 -18.999l22 -54l9 -24l1 -2c4 -10 6 -17 6 -21c0 -0.666992 -0.333008 -2 -1 -4v-2l-1 -3c-4 -7.33301 -7.33301 -12.333 -10 -15c-26.667 -36 -49.667 -59.333 -69 -70c-19.333 -12 -38 -20.667 -56 -26
c-13.333 -3.33301 -28 -6.33301 -44 -9c-15.333 -0.666992 -29.333 -8.33398 -42 -23.001c-4.66699 -3.33301 -7 -8.66602 -7 -15.999c0 -6 1.66699 -12 5 -18c6.66699 -14 15.667 -21.667 27 -23c1.33301 0 5 -0.333008 11 -1h10c6.66699 0 20.334 0.666992 41.001 2h4
c31.333 3.33301 53.333 5 66 5h8c4.66699 0.666992 7.33398 1 8.00098 1c9.33301 0 19.333 -1 30 -3c24 0 40 6.33301 48 19c34 43.333 65.333 103 94 179c24.667 68.667 54 126.334 88 173.001c56 112 99 191 129 237c26.667 42.667 48 72 64 88c10.667 10.667 19 16 25 16
c12 0 25.333 11.667 40 35c0 6 -0.833008 10.833 -2.5 14.5s-4.83398 7.5 -9.50098 11.5c-8.66699 8.66699 -16 13 -22 13c-31.333 -2.66699 -62.333 -4 -93 -4c-8 0 -23.333 0.666992 -46 2h-9c-9.33301 0.666992 -18 1 -26 1c-13.333 0.666992 -22 1 -26 1z" />
    <glyph glyph-name="z" unicode="z" horiz-adv-x="712" 
d="M182 577c-14.667 -0.666992 -31.002 -10.668 -49.002 -30.001l-15 -24c-6 -8 -9.66699 -13.333 -11 -16c-6.66699 -10.667 -17 -22.334 -31 -35.001c-7.33301 -6.66699 -11 -14.667 -11 -24c0 -1.33301 0.333008 -3 1 -5c0.666992 -1.33301 1 -2.66602 1 -3.99902
c4.66699 -13.333 11.667 -21.666 21 -24.999c4.66699 -2.66699 11.667 -4 21 -4c10.667 0 20.334 3.33301 29.001 10c11.333 6 24 15 38 27c12 11.333 37 23 75 35c30 10 70.333 15 121 15h24c14 -0.666992 22 -1 24 -1c0.666992 0 3.33398 -0.666992 8.00098 -2
c5.33301 -0.666992 9.33301 -1.33398 12 -2.00098c-2.66699 0 -4 1.66699 -4 5l-1 -2l-1 -2c-26 -34.667 -50.667 -63.667 -74 -87c-16 -16.667 -41 -45 -75 -85c-3.33301 -4 -6 -7 -8 -9l-7 -7l-109 -122c-40.667 -44.667 -83 -86.667 -127 -126
c-9.33301 -7.33301 -14 -16.333 -14 -27c0 -1.33301 0.333008 -3 1 -5c0.666992 -1.33301 1 -2.66602 1 -3.99902c4.66699 -15.333 15.667 -23 33 -23c29.333 2 61.833 3.33301 97.5 4s85.167 1 148.5 1c58 -0.666992 141 -1 249 -1c28 0 48 8.33301 60 25
c14.667 16 25.334 32.333 32.001 49c4.66699 14 14.667 27.333 30 40c13.333 9.33301 20 22.666 20 39.999c0 20 -12.667 31 -38 33c-9.33301 0 -21.333 -5.66699 -36 -17c-0.666992 0 -5 -3 -13 -9c-4 -3.33301 -8.33301 -6.66602 -13 -9.99902
c-52 -30.667 -103 -50.334 -153 -59.001c-52.667 -10 -81.334 -15 -86.001 -15c-20.667 0 -36 0.333008 -46 1c-10 0 -20 -0.333008 -30 -1h-13c3.33301 0 5 -2.33301 5 -7l1 3l1 3c28 37.333 53.333 67 76 89c24.667 23.333 52.667 54 84 92l46 55l66 81
c48.667 54.667 89.667 98.334 123 131.001c12.667 12.667 19 22.667 19 30c0 14 -10.667 21 -32 21c-37.333 0 -73 -0.333008 -107 -1l-157 -3h-53c-32.667 -0.666992 -63 -1 -91 -1c-37.333 0 -58.333 1.66699 -63 5z" />
    <glyph glyph-name="braceleft" unicode="{" horiz-adv-x="308" 
d="M287 -62c-29.333 47.333 -54.335 109.668 -75.002 187.001c-14.667 63.333 -24 135 -28 215c-0.666992 19.333 -18 37 -52 53c-22.667 10 -34 20.667 -34 32c0 10 11.333 21 34 33c32.667 18 49.667 36 51 54c4 84 13.333 159 28 225
c20.667 76 46.334 138.667 77.001 188c-52.667 -20.667 -97 -72.334 -133 -155.001c-26.667 -72 -42.334 -156.667 -47.001 -254c-1.33301 -10.667 -14.333 -22 -39 -34c-32.667 -20.667 -49 -40 -49 -58c0 -20 16.667 -38.667 50 -56c24 -10.667 37 -22 39 -34
c4.66699 -94.667 20.334 -176.667 47.001 -246c34.667 -80 78.334 -130 131.001 -150z" />
    <glyph glyph-name="bar" unicode="|" horiz-adv-x="104" 
d="M20 805v-783h64v783h-64z" />
    <glyph glyph-name="braceright" unicode="}" horiz-adv-x="309" 
d="M21 -63c50.667 19.333 94.667 69.668 132 151.001c25.333 66.667 41.666 148.667 48.999 246c1.33301 12 13.666 23.333 36.999 34c33.333 17.333 50 36 50 56c0 17.333 -16.333 36.666 -49 57.999c-23.333 12 -35.666 23.333 -36.999 34c-6 99.333 -22.333 184 -49 254
c-35.333 82.667 -80 134.334 -134 155.001c30.667 -47.333 56.334 -112 77.001 -194c16 -66 26 -139 30 -219c1.33301 -18.667 17.666 -36.667 48.999 -54c24 -12 36 -23 36 -33c0 -11.333 -11.667 -22 -35 -32c-32 -15.333 -48.667 -33 -50 -53
c-5.33301 -80 -15.666 -151.667 -30.999 -215c-20.667 -80.667 -45.667 -143.334 -75 -188.001z" />
    <glyph glyph-name="asciitilde" unicode="~" horiz-adv-x="447" 
d="M224 715c0 -7.33301 9.33398 -21.334 28.001 -42.001v11c22.667 -15.333 42.334 -23 59.001 -23c19.333 0 39.333 8.66699 60 26c19.333 16 38 36.667 56 62v12v6v7v47c-24.667 -37.333 -48.667 -66.333 -72 -87c-14 -13.333 -28.667 -20 -44 -20
c-20 0 -41.667 14 -65 42c-4 5.33301 -9.33301 11.333 -16 18c-2.66699 3.33301 -5.33398 6.33301 -8.00098 9c-1.33301 2 -5.33301 6.66699 -12 14s-11.334 12 -14.001 14v1c-22.667 15.333 -42.667 23 -60 23c-18 0 -38 -8.33301 -60 -25
c-14 -13.333 -32.667 -34.666 -56 -63.999v-11v-7v-7v-44c28 38 52 66.333 72 85c15.333 13.333 30 20 44 20c19.333 0 42 -14.667 68 -44c8 -10 14.667 -17.667 20 -23z" />
    <glyph glyph-name="quoteleft" horiz-adv-x="230" 
d="M49 668c19.333 -20 37.666 -29.999 54.999 -29.999c7.33301 0 11.833 1.33301 13.5 4s2.5 6.66699 2.5 12c0 6.66699 -4.66699 16.667 -14 30c-3.33301 3.33301 -6 6.66602 -8 9.99902c4.66699 2.66699 10.334 4 17.001 4c24.667 0 46.667 7 66 21
c19.333 17.333 29 36.333 29 57s-9.66699 39.667 -29 57c-17.333 14.667 -39.333 22 -66 22c-52.667 0 -83 -25.667 -91 -77c-2.66699 -8 -4 -19.333 -4 -34c0 -32 9.66699 -57.333 29 -76z" />
    <glyph glyph-name="quoteright" horiz-adv-x="231" 
d="M181 668c20 18 30.002 43.667 30.002 77c0 14 -1.33301 25 -4 33c-8 51.333 -38.333 77 -91 77c-27.333 0 -49.666 -7.33301 -66.999 -22c-19.333 -16 -29 -35 -29 -57s9.66699 -41 29 -57c19.333 -14 41.666 -21 66.999 -21c5.33301 0 9.66602 -1.66699 12.999 -5l-4 -8
l-1 -2c-9.33301 -14 -14 -23.667 -14 -29c0 -10.667 5.33301 -16 16 -16c17.333 0 35.666 10 54.999 30z" />
    <glyph glyph-name="quotedblleft" horiz-adv-x="409" 
d="M229 668c18 -20 36 -30 54 -30c7.33301 0 12 1.33301 14 4s3 6.66699 3 12c0 4 -5 14 -15 30l-7 10c4.66699 2.66699 10 4 16 4c24 0 46.333 7 67 21c18.667 16.667 28 35.667 28 57s-9.33301 40.333 -28 57c-18.667 14.667 -41 22 -67 22c-52 0 -82.667 -26 -92 -78
c-1.33301 -8 -2 -18.667 -2 -32c0 -34 9.66699 -59.667 29 -77zM49 668c19.333 -20 37.666 -29.999 54.999 -29.999c7.33301 0 11.833 1.33301 13.5 4s2.5 6.66699 2.5 12c0 6.66699 -4.66699 16.667 -14 30c-3.33301 3.33301 -6 6.66602 -8 9.99902
c4.66699 2.66699 10.334 4 17.001 4c24.667 0 46.667 7 66 21c19.333 17.333 29 36.333 29 57s-9.66699 39.667 -29 57c-17.333 14.667 -39.333 22 -66 22c-52.667 0 -83 -25.667 -91 -77c-2.66699 -8 -4 -19.333 -4 -34c0 -32 9.66699 -57.333 29 -76z" />
    <glyph glyph-name="quotedblright" horiz-adv-x="409" 
d="M181 668c20 18 30.002 43.667 30.002 77c0 14 -1.33301 25 -4 33c-8 51.333 -38.333 77 -91 77c-27.333 0 -49.666 -7.33301 -66.999 -22c-19.333 -16 -29 -35 -29 -57s9.66699 -41 29 -57c19.333 -14 41.666 -21 66.999 -21c5.33301 0 9.66602 -1.66699 12.999 -5l-4 -8
l-1 -2c-9.33301 -14 -14 -23.667 -14 -29c0 -10.667 5.33301 -16 16 -16c17.333 0 35.666 10 54.999 30zM361.002 668c18.667 18 28 43.333 28 76c0 14.667 -1.33301 26 -4 34c-8 51.333 -38.333 77 -91 77c-26.667 0 -48.334 -7.33301 -65.001 -22
c-18.667 -16 -28 -35 -28 -57s9.33301 -41 28 -57c18.667 -14 40.334 -21 65.001 -21c6.66699 0 11.667 -1.66699 15 -5c-0.666992 -2 -2 -4.33301 -4 -7c-1.33301 -1.33301 -2 -2.33301 -2 -3c-9.33301 -15.333 -14 -25 -14 -29c0 -10.667 5.66699 -16 17 -16
c14.667 0 33 10 55 30z" />
    <glyph glyph-name="sterling" unicode="&#xa3;" horiz-adv-x="827" 
d="M120 370c2.66699 -11.333 4 -23.002 4 -35.002c0 -50.667 -10 -99.667 -30 -147c-16 -40.667 -38.333 -87 -67 -139c-4.66699 -2.66699 -7 -8.33398 -7 -17.001c0 -6.66699 3 -13 9 -19c8 -9.33301 17.333 -14 28 -14c96 5.33301 186 8.33301 270 9
c59.333 0 113 -0.5 161 -1.5s98 -2.5 150 -4.5c28 0 47.333 8.66699 58 26l2 3c6.66699 14.667 12 27.334 16 38.001c6.66699 14.667 13 27.334 19 38.001c6.66699 11.333 16.667 24.333 30 39c14 14 26 28.333 36 43c5.33301 5.33301 8 12.666 8 21.999
c0 4.66699 -1.66699 10.334 -5 17.001c-6.66699 12.667 -19 19 -37 19c-34 0 -58.667 -11 -74 -33c-30 -35.333 -74.333 -57.666 -133 -66.999c-54 -8.66699 -126.333 -13.667 -217 -15c-26.667 0 -40 5.33301 -40 16v8l5 17c8 30.667 15 53.667 21 69
c11.333 30.667 17 61.667 17 93c0 6.66699 -1.66699 18.334 -5 35.001h39h140l-24 55h-169c-2.66699 6.66699 -5 13.334 -7 20.001c-9.33301 24.667 -15.666 42.334 -18.999 53.001c-9.33301 24 -14 48 -14 72c0 27.333 9 54.333 27 81
c9.33301 17.333 26.666 32.666 51.999 45.999c20.667 13.333 38.667 21.666 54 24.999c15.333 2 37 3 65 3c18 0 38.667 -3.33301 62 -10c8 -2 13.667 -3.33301 17 -4l5 -1c0 -1.33301 -3.66699 -3.33301 -11 -6c-18.667 -22.667 -28 -46.667 -28 -72
c0 -31.333 13.667 -58.666 41 -81.999c25.333 -22 56.333 -33 93 -33c36 0 67 11 93 33c27.333 25.333 41 52.666 41 81.999c0 21.333 -6.66699 41.666 -20 60.999c-25.333 44.667 -70.333 80.667 -135 108c-62.667 26 -133.334 39 -212.001 39
c-77.333 0 -145.666 -15.333 -204.999 -46c-57.333 -28 -97.333 -63.333 -120 -106h-1c-20.667 -42 -31.667 -81.333 -33 -118c0 -28 4.66699 -55 14 -81c7.33301 -18.667 14.333 -40 21 -64h-48l22 -55h41z" />
    </font>
</defs>
</svg>
